<svg width="70" height="40" viewBox="0 0 70 40" fill="none" xmlns="http://www.w3.org/2000/svg">
<path fill-rule="evenodd" clip-rule="evenodd" d="M36.138 16.5963V12.5C36.6161 12.9716 37.1309 13.4046 37.6774 13.795V22.8034C37.3004 22.9125 36.9168 22.9971 36.5289 23.0567C36.0472 23.1348 35.56 23.1732 35.072 23.1716C34.5916 23.1785 34.1141 23.0961 33.6637 22.9288C33.2646 22.7784 32.9033 22.5425 32.605 22.2376C32.3048 21.9252 32.0749 21.552 31.9308 21.1433C31.7687 20.6809 31.6892 20.1935 31.6961 19.7035C31.6904 19.2209 31.757 18.7402 31.8936 18.2773C32.0103 17.8767 32.2065 17.5037 32.4707 17.1806C32.7209 16.8774 33.0378 16.6361 33.3966 16.4757C33.7927 16.304 34.2211 16.2195 34.6528 16.228C34.9405 16.2236 35.2272 16.2623 35.5034 16.3429C35.7219 16.4087 35.9342 16.4935 36.138 16.5963ZM15.0537 13.0577C11.1566 13.0577 8 16.2385 8 20.1599C8 24.0822 11.159 27.2614 15.0537 27.2614C18.9484 27.2614 22.105 24.0814 22.105 20.1599C22.105 16.2385 18.9509 13.0577 15.0537 13.0577ZM19.4801 20.1908C19.4622 22.6184 17.4797 24.5719 15.0521 24.554C12.634 24.5451 10.6807 22.5781 10.6887 20.1599L10.6889 20.1261C10.7067 17.6984 12.6892 15.745 15.1168 15.7628C17.5445 15.7807 19.498 17.7632 19.4801 20.1908ZM54.0106 23.0049H52.4728V16.368H54.0106V23.0049ZM53.8933 15.111C54.0826 14.9347 54.1848 14.684 54.1725 14.4255L54.1757 14.4231C54.1895 14.1608 54.0874 13.9057 53.8965 13.7254C53.7174 13.5591 53.4812 13.4681 53.2369 13.4713C52.9867 13.4664 52.7443 13.5583 52.5602 13.7278C52.3698 13.9084 52.268 14.1634 52.2818 14.4255C52.2697 14.6838 52.3714 14.9344 52.5602 15.111C52.7435 15.2795 52.9848 15.3705 53.2336 15.3652C53.4781 15.3691 53.7146 15.278 53.8933 15.111ZM60.5285 19.6824C60.5196 20.7614 59.6376 21.6289 58.5586 21.62C57.4795 21.611 56.6121 20.7291 56.621 19.65C56.6299 18.578 57.501 17.7133 58.5731 17.7124C59.6569 17.7168 60.5321 18.5986 60.5285 19.6824ZM55.0977 19.658C55.1111 17.7521 56.6671 16.2178 58.5731 16.2312C60.4713 16.2406 62.004 17.7842 62 19.6824L61.9999 19.7066C61.9865 21.6126 60.4305 23.1468 58.5245 23.1334C56.6185 23.12 55.0843 21.564 55.0977 19.658ZM28.1284 21.926C28.4896 21.9349 28.8509 21.9094 29.2073 21.8499V20.1502C29.0862 20.1172 28.9632 20.0918 28.839 20.0741C28.6628 20.0475 28.4847 20.0345 28.3064 20.0353C28.1344 20.0359 27.9627 20.0489 27.7925 20.0741C27.6298 20.0959 27.4715 20.1426 27.3231 20.2125C27.1878 20.2768 27.0718 20.3753 26.9864 20.4983C26.898 20.6361 26.8539 20.7976 26.8601 20.9612C26.8601 21.3263 26.9742 21.5763 27.2025 21.7172C27.4307 21.858 27.7391 21.926 28.1284 21.926ZM29.2866 16.3931C28.8724 16.2556 28.4376 16.1909 28.0013 16.2021L28.0013 16.2013C27.6016 16.1995 27.2026 16.2339 26.8091 16.3041C26.5212 16.3512 26.2371 16.4197 25.9593 16.5088L26.1495 17.7512C26.3849 17.6717 26.6267 17.6124 26.8722 17.574C27.1951 17.521 27.5219 17.4956 27.8491 17.4979C28.0712 17.4919 28.2925 17.5262 28.5023 17.5991C28.6644 17.658 28.8095 17.7558 28.9248 17.884C29.0302 18.0073 29.1063 18.1528 29.1474 18.3097C29.1902 18.4754 29.2114 18.646 29.2105 18.8172V19.0689C28.8396 18.9781 28.4592 18.9317 28.0774 18.9305C27.7257 18.9291 27.3749 18.9652 27.0309 19.0381C26.7176 19.1011 26.4188 19.2216 26.1495 19.3935C25.8987 19.5541 25.6914 19.774 25.5457 20.0337C25.3899 20.3308 25.3138 20.6632 25.3247 20.9985C25.3128 21.3451 25.3798 21.6899 25.5206 22.0069C25.6448 22.2687 25.8326 22.4952 26.0669 22.6658C26.32 22.8447 26.607 22.9701 26.9103 23.034C27.2684 23.1134 27.6345 23.152 28.0013 23.149C28.5428 23.1532 29.0839 23.1172 29.6201 23.0413C30.0976 22.9685 30.4553 22.9078 30.6925 22.8568V18.8342C30.6955 18.4721 30.6506 18.1112 30.5589 17.7609C30.4803 17.4515 30.3291 17.1651 30.1178 16.9257C29.8884 16.683 29.603 16.5001 29.2866 16.3931ZM41.5406 21.926C41.9018 21.9349 42.2631 21.9094 42.6195 21.8499V20.1502C42.4984 20.1173 42.3754 20.0919 42.2512 20.0741C42.0749 20.0475 41.8969 20.0345 41.7186 20.0353C41.5463 20.0359 41.3743 20.0489 41.2039 20.0741C41.0415 20.096 40.8834 20.1427 40.7352 20.2125C40.5999 20.2766 40.4837 20.3751 40.3985 20.4983C40.3099 20.636 40.2656 20.7975 40.2715 20.9612C40.2715 21.3263 40.3856 21.5763 40.6138 21.7172C40.8421 21.858 41.1513 21.926 41.5406 21.926ZM42.6955 16.3931C42.2824 16.256 41.8487 16.1914 41.4135 16.2021V16.2013C41.0138 16.1995 40.6148 16.2339 40.2213 16.3041C39.9333 16.3509 39.6493 16.4191 39.3714 16.508L39.5649 17.7504C39.8006 17.6709 40.0427 17.6116 40.2885 17.5732C40.6114 17.5201 40.9382 17.4947 41.2654 17.4971C41.4856 17.492 41.7049 17.5266 41.9129 17.5991C42.0755 17.6578 42.2212 17.7556 42.337 17.884C42.4424 18.0073 42.5184 18.1528 42.5596 18.3097C42.602 18.4755 42.6232 18.646 42.6227 18.8172V19.0689C42.2518 18.9781 41.8714 18.9317 41.4896 18.9305C41.1379 18.9291 40.7871 18.9652 40.4431 19.0381C40.1296 19.1011 39.8305 19.2216 39.5608 19.3935C39.3103 19.5541 39.1033 19.774 38.9578 20.0337C38.8018 20.3307 38.7254 20.6631 38.7361 20.9985C38.7242 21.3451 38.7911 21.6899 38.9319 22.0069C39.0558 22.2687 39.2434 22.4952 39.4775 22.6658C39.7309 22.8446 40.0182 22.9699 40.3216 23.034C40.6798 23.1134 41.0458 23.152 41.4127 23.149C41.9542 23.1532 42.4953 23.1172 43.0314 23.0413C43.5098 22.9685 43.8675 22.9078 44.1039 22.8568V18.8342C44.1072 18.4721 44.0625 18.1113 43.9711 17.7609C43.8915 17.4512 43.7392 17.1648 43.5268 16.9257C43.2972 16.6832 43.0118 16.5004 42.6955 16.3931ZM36.138 21.7358C35.9974 21.7665 35.8553 21.7895 35.7122 21.8046C35.5037 21.8282 35.294 21.839 35.0842 21.837C34.5176 21.837 34.0738 21.6449 33.7527 21.2607C33.4317 20.8765 33.2698 20.3453 33.2671 19.667C33.2671 19.0152 33.3963 18.4991 33.6548 18.1187C33.913 17.7383 34.3201 17.5481 34.8794 17.5481C35.1246 17.5467 35.3683 17.5875 35.5997 17.6687C35.7896 17.7328 35.9706 17.8204 36.1388 17.9293L36.138 21.7358ZM49.6198 21.0511C49.457 21.1579 49.2791 21.2398 49.092 21.2939C48.8682 21.3629 48.6351 21.397 48.4008 21.395C47.9875 21.4095 47.5879 21.2459 47.3033 20.9458C47.02 20.6448 46.8784 20.1686 46.8784 19.5173C46.8784 18.9167 47.0265 18.4311 47.3228 18.0604C47.619 17.6897 48.0461 17.506 48.604 17.5092C48.8076 17.5067 49.0112 17.5176 49.2135 17.5416C49.3753 17.5618 49.5097 17.5861 49.6181 17.6112L49.6198 21.0511ZM48.591 16.228C49.0672 16.2264 49.5426 16.2648 50.0123 16.3429L50.0147 16.3421C50.4631 16.423 50.8435 16.4991 51.1576 16.5849V23.1409C51.1549 24.1968 50.8851 24.9706 50.3482 25.4622C49.8113 25.9537 48.9884 26.1995 47.8796 26.1995C47.6821 26.1995 47.445 26.1882 47.2022 26.1696C47.0446 25.6873 46.8584 25.2148 46.6445 24.7548L46.8201 24.7896C47.1775 24.8602 47.5412 24.8943 47.9055 24.8916C48.5222 24.8916 48.962 24.7648 49.2248 24.5111C49.4876 24.2575 49.6189 23.8812 49.6189 23.3821V22.3218C49.4242 22.414 49.2222 22.4903 49.0152 22.55C48.7371 22.6297 48.4488 22.6679 48.1596 22.6633C47.7633 22.6686 47.3694 22.6 46.9982 22.461C46.6567 22.3324 46.3488 22.1282 46.0974 21.8637C45.8348 21.5813 45.6358 21.246 45.5138 20.8803C45.3665 20.441 45.2956 19.9797 45.3042 19.5165C45.2995 19.063 45.3748 18.6123 45.5267 18.1851C45.6646 17.7951 45.8855 17.4396 46.1742 17.1434C46.4681 16.8496 46.8202 16.6205 47.2078 16.4708C47.6495 16.3035 48.1188 16.2211 48.591 16.228Z" fill="#8C7343"/>
</svg>
