<svg width="162" height="65" viewBox="0 0 162 65" fill="none" xmlns="http://www.w3.org/2000/svg">
<path d="M96.9529 48.5847C93.9829 48.5847 92.4871 47.9335 91.3992 46.5154C90.2388 45.0031 90.2388 42.7022 90.2388 40.5189V0.0198963H99.3009V41.8177C99.3009 45.1261 99.6726 47.494 104.002 48.4382V48.5847H96.9529Z" fill="#2E2E2E"/>
<path d="M85.6715 48.5775H74.3321L65.9971 31.2466C61.4479 33.7139 58.8515 39.43 54.2389 43.2033C51.8872 45.1261 49.1367 46.841 45.708 48.0005C44.156 48.525 41.5197 49.2034 40.5261 49.3028C40.1127 49.3444 39.8207 49.3264 39.7591 49.178C39.712 49.0623 39.8262 48.9736 40.2686 48.762C40.7726 48.5196 42.8541 47.6586 44.1596 46.7523C45.7878 45.62 46.7216 44.3953 46.7941 43.4493C46.3462 41.8738 43.1569 38.379 46.4188 31.9647C47.5901 29.6638 48.6018 28.0069 49.3271 26.3427C50.1611 24.4307 50.7504 21.7373 50.9498 19.7349C50.9607 19.6173 50.9825 19.6245 51.0459 19.6879C52.6342 21.2905 58.7935 27.6162 57.9032 33.9038C59.9503 33.1188 63.5022 30.7365 65.1395 29.4648C66.8674 28.1227 67.9952 26.7226 69.8246 26.6918C71.4637 26.6647 71.6051 27.4461 72.9106 27.618C73.2333 27.6614 73.712 27.5981 73.9604 27.4769C74.0601 27.4281 74.0366 27.3195 73.8843 27.2833C72.1038 26.8637 71.6777 25.4166 69.375 25.4166C67.3098 25.4166 65.6671 27.3141 64.4759 28.0919L58.6521 15.9851C56.217 10.922 56.9604 7.24276 62.3055 0.00361633L85.6697 48.5811L85.6715 48.5775Z" fill="#2E2E2E"/>
<path d="M115.204 48.5847C112.234 48.5847 110.738 47.9335 109.65 46.5154C108.49 45.0031 108.49 42.7022 108.49 40.5189V0.0198963H117.552V41.8177C117.552 45.1261 117.924 47.494 122.253 48.4382V48.5847H115.204Z" fill="#2E2E2E"/>
<path d="M7.30928 61.9234H3.1318L2.33402 63.8462H0.199951L4.21062 54.8688H6.26673L10.2901 63.8462H8.10525L7.30747 61.9234H7.30928ZM6.65293 60.3461L5.22598 56.9092L3.79904 60.3461H6.65293Z" fill="#2E2E2E"/>
<path d="M12.9463 63.4049C12.2048 63.0069 11.6228 62.4552 11.1985 61.7498C10.7742 61.0443 10.5621 60.2466 10.5621 59.3584C10.5621 58.4703 10.7742 57.6725 11.1985 56.9671C11.6228 56.2616 12.2048 55.7099 12.9463 55.3119C13.6879 54.914 14.522 54.715 15.4467 54.715C16.2263 54.715 16.9316 54.8525 17.5608 55.1256C18.19 55.3988 18.7194 55.7931 19.1491 56.305L17.8128 57.5369C17.2036 56.835 16.4493 56.4859 15.55 56.4859C14.9934 56.4859 14.4966 56.6071 14.0596 56.8513C13.6226 57.0955 13.2818 57.4356 13.037 57.8715C12.7922 58.3075 12.6707 58.8031 12.6707 59.3584C12.6707 59.9137 12.7922 60.4094 13.037 60.8453C13.2818 61.2812 13.6226 61.6213 14.0596 61.8655C14.4966 62.1097 14.9934 62.2309 15.55 62.2309C16.4493 62.2309 17.2036 61.8764 17.8128 61.1673L19.1491 62.3991C18.7212 62.9201 18.19 63.3181 17.5554 63.5912C16.9208 63.8643 16.2136 64.0018 15.434 64.0018C14.5165 64.0018 13.6879 63.8028 12.9463 63.4049Z" fill="#2E2E2E"/>
<path d="M22.2006 63.4049C21.459 63.0069 20.877 62.4552 20.4528 61.7498C20.0285 61.0443 19.8163 60.2466 19.8163 59.3584C19.8163 58.4703 20.0285 57.6725 20.4528 56.9671C20.877 56.2616 21.459 55.7099 22.2006 55.3119C22.9422 54.914 23.7762 54.715 24.701 54.715C25.4806 54.715 26.1859 54.8525 26.8151 55.1256C27.4442 55.3988 27.9737 55.7931 28.4034 56.305L27.0671 57.5369C26.4579 56.835 25.7036 56.4859 24.8043 56.4859C24.2477 56.4859 23.7509 56.6071 23.3139 56.8513C22.8769 57.0955 22.5361 57.4356 22.2913 57.8715C22.0465 58.3075 21.925 58.8031 21.925 59.3584C21.925 59.9137 22.0465 60.4094 22.2913 60.8453C22.5361 61.2812 22.8769 61.6213 23.3139 61.8655C23.7509 62.1097 24.2477 62.2309 24.8043 62.2309C25.7036 62.2309 26.4579 61.8764 27.0671 61.1673L28.4034 62.3991C27.9755 62.9201 27.4442 63.3181 26.8096 63.5912C26.175 63.8643 25.4679 64.0018 24.6883 64.0018C23.7708 64.0018 22.9422 63.8028 22.2006 63.4049Z" fill="#2E2E2E"/>
<path d="M31.4694 63.3976C30.7188 62.9961 30.1331 62.4426 29.7089 61.7371C29.2846 61.0316 29.0724 60.2393 29.0724 59.3584C29.0724 58.4775 29.2846 57.6852 29.7089 56.9797C30.1331 56.2743 30.7206 55.7208 31.4694 55.3192C32.2182 54.9176 33.0614 54.7168 33.9951 54.7168C34.9289 54.7168 35.7684 54.9176 36.5154 55.3192C37.2606 55.7208 37.848 56.2743 38.276 56.9797C38.7039 57.6852 38.9178 58.4775 38.9178 59.3584C38.9178 60.2393 38.7039 61.0316 38.276 61.7371C37.848 62.4426 37.2606 62.9961 36.5154 63.3976C35.7702 63.7992 34.9289 64 33.9951 64C33.0614 64 32.2182 63.7992 31.4694 63.3976ZM35.4348 61.8655C35.8627 61.6213 36.1999 61.2812 36.4447 60.8453C36.6894 60.4094 36.8109 59.9137 36.8109 59.3584C36.8109 58.8031 36.6894 58.3075 36.4447 57.8715C36.1999 57.4356 35.8645 57.0955 35.4348 56.8513C35.0069 56.6071 34.5264 56.4859 33.9951 56.4859C33.4639 56.4859 32.9834 56.6071 32.5555 56.8513C32.1276 57.0955 31.7903 57.4356 31.5456 57.8715C31.3008 58.3075 31.1793 58.8031 31.1793 59.3584C31.1793 59.9137 31.3008 60.4094 31.5456 60.8453C31.7903 61.2812 32.1258 61.6213 32.5555 61.8655C32.9852 62.1097 33.4639 62.2309 33.9951 62.2309C34.5264 62.2309 35.0069 62.1097 35.4348 61.8655Z" fill="#2E2E2E"/>
<path d="M46.2465 63.8462L44.5113 61.3446H42.5967V63.8462H40.5134V54.8688H44.408C45.2058 54.8688 45.8966 55.0008 46.484 55.2667C47.0715 55.5326 47.523 55.9071 47.8403 56.3955C48.1576 56.8821 48.3153 57.4591 48.3153 58.1266C48.3153 58.794 48.1539 59.3693 47.833 59.8522C47.5121 60.3352 47.0552 60.7042 46.4641 60.9611L48.4821 63.8462H46.2447H46.2465ZM45.7189 56.9653C45.3925 56.6957 44.9175 56.5619 44.292 56.5619H42.5949V59.6912H44.292C44.9175 59.6912 45.3925 59.5538 45.7189 59.2806C46.0435 59.0075 46.2066 58.6222 46.2066 58.1266C46.2066 57.6309 46.0435 57.2348 45.7189 56.9653Z" fill="#2E2E2E"/>
<path d="M53.0513 60.2032C52.801 59.9535 52.6759 59.6442 52.6759 59.277C52.6759 58.9098 52.801 58.6005 53.0513 58.3545C53.3015 58.1085 53.6043 57.9855 53.9596 57.9855C54.315 57.9855 54.6178 58.1085 54.868 58.3545C55.1182 58.6005 55.2433 58.908 55.2433 59.277C55.2433 59.646 55.1182 59.9553 54.868 60.2032C54.6178 60.4528 54.315 60.5776 53.9596 60.5776C53.6043 60.5776 53.3015 60.4528 53.0513 60.2032Z" fill="#2E2E2E"/>
<path d="M60.0899 54.8688H62.1732V62.1531H66.6861V63.8462H60.0917V54.8688H60.0899Z" fill="#2E2E2E"/>
<path d="M67.8809 54.8688H69.9642V63.8462H67.8809V54.8688Z" fill="#2E2E2E"/>
<path d="M80.7234 54.8688L76.8288 63.8462H74.7727L70.8908 54.8688H73.1409L75.8787 61.2813L78.6546 54.8688H80.7252H80.7234Z" fill="#2E2E2E"/>
<path d="M88.4619 62.1803V63.8481H81.494V54.8706H88.2951V56.5384H83.5646V58.4883H87.7421V60.1037H83.5646V62.1821H88.4619V62.1803Z" fill="#2E2E2E"/>
<path d="M93.8089 54.8688H95.8922V62.1531H100.405V63.8462H93.8107V54.8688H93.8089Z" fill="#2E2E2E"/>
<path d="M101.6 54.8688H103.683V63.8462H101.6V54.8688Z" fill="#2E2E2E"/>
<path d="M114.029 63.8462L114.016 58.4594L111.367 62.8966H110.428L107.792 58.5752V63.8462H105.837V54.8688H107.56L110.929 60.4474L114.245 54.8688H115.955L115.98 63.8462H114.025H114.029Z" fill="#2E2E2E"/>
<path d="M118.143 54.8688H120.226V63.8462H118.143V54.8688Z" fill="#2E2E2E"/>
<path d="M124.25 56.5619H121.37V54.8688H129.212V56.5619H126.333V63.8462H124.25V56.5619Z" fill="#2E2E2E"/>
<path d="M130.356 54.8688H132.44V62.1531H136.953V63.8462H130.358V54.8688H130.356Z" fill="#2E2E2E"/>
<path d="M145.114 62.1803V63.8481H138.146V54.8706H144.947V56.5384H140.216V58.4883H144.394V60.1037H140.216V62.1821H145.114V62.1803Z" fill="#2E2E2E"/>
<path d="M147.69 63.7124C147.026 63.5206 146.492 63.2692 146.089 62.9617L146.796 61.397C147.182 61.6792 147.641 61.9053 148.172 62.0772C148.704 62.249 149.235 62.334 149.766 62.334C150.357 62.334 150.794 62.2472 151.077 62.0717C151.36 61.8963 151.501 61.6629 151.501 61.3735C151.501 61.1601 151.418 60.9828 151.251 60.8417C151.084 60.7006 150.87 60.5866 150.609 60.5016C150.348 60.4166 149.995 60.3225 149.549 60.2194C148.863 60.0566 148.301 59.8938 147.864 59.7329C147.427 59.5701 147.052 59.3096 146.74 58.9496C146.426 58.5896 146.27 58.1121 146.27 57.5134C146.27 56.9924 146.412 56.5185 146.695 56.097C146.977 55.6755 147.404 55.3391 147.973 55.0895C148.542 54.8416 149.238 54.7168 150.062 54.7168C150.636 54.7168 151.197 54.7856 151.746 54.9212C152.294 55.0587 152.774 55.2541 153.186 55.5109L152.544 57.0883C151.713 56.618 150.881 56.3828 150.051 56.3828C149.469 56.3828 149.037 56.4769 148.76 56.665C148.481 56.8531 148.343 57.1009 148.343 57.4084C148.343 57.716 148.504 57.9457 148.825 58.094C149.146 58.2441 149.637 58.3907 150.297 58.5372C150.983 58.7 151.545 58.8628 151.982 59.0238C152.419 59.1866 152.794 59.4434 153.106 59.7925C153.418 60.1435 153.576 60.6174 153.576 61.2161C153.576 61.7299 153.432 62.1965 153.144 62.6198C152.858 63.0431 152.426 63.3796 151.851 63.6274C151.276 63.8752 150.578 64 149.755 64C149.044 64 148.355 63.9041 147.692 63.7124H147.69Z" fill="#2E2E2E"/>
<path d="M155.918 63.7124C155.254 63.5206 154.72 63.2692 154.317 62.9617L155.024 61.397C155.41 61.6792 155.869 61.9053 156.4 62.0772C156.932 62.249 157.463 62.334 157.994 62.334C158.585 62.334 159.022 62.2472 159.305 62.0717C159.588 61.8963 159.729 61.6629 159.729 61.3735C159.729 61.1601 159.646 60.9828 159.479 60.8417C159.312 60.7006 159.098 60.5866 158.837 60.5016C158.576 60.4166 158.223 60.3225 157.777 60.2194C157.091 60.0566 156.529 59.8938 156.092 59.7329C155.655 59.5701 155.28 59.3096 154.968 58.9496C154.654 58.5896 154.498 58.1121 154.498 57.5134C154.498 56.9924 154.64 56.5185 154.923 56.097C155.206 55.6755 155.632 55.3391 156.201 55.0895C156.77 54.8416 157.467 54.7168 158.29 54.7168C158.864 54.7168 159.425 54.7856 159.974 54.9212C160.522 55.0587 161.002 55.2541 161.414 55.5109L160.772 57.0883C159.941 56.618 159.109 56.3828 158.279 56.3828C157.697 56.3828 157.265 56.4769 156.988 56.665C156.709 56.8531 156.571 57.1009 156.571 57.4084C156.571 57.716 156.732 57.9457 157.053 58.094C157.374 58.2441 157.865 58.3907 158.525 58.5372C159.211 58.7 159.773 58.8628 160.21 59.0238C160.647 59.1866 161.022 59.4434 161.334 59.7925C161.646 60.1435 161.804 60.6174 161.804 61.2161C161.804 61.7299 161.66 62.1965 161.372 62.6198C161.086 63.0431 160.654 63.3796 160.079 63.6274C159.504 63.8752 158.806 64 157.983 64C157.273 64 156.584 63.9041 155.92 63.7124H155.918Z" fill="#2E2E2E"/>
</svg>
