<svg width="100" height="58" viewBox="0 0 100 58" fill="none" xmlns="http://www.w3.org/2000/svg">
<path fill-rule="evenodd" clip-rule="evenodd" d="M88.5716 31.1692L88.5472 31.1939C88.584 30.9055 88.4921 30.6154 88.2967 30.4027C88.1013 30.19 87.8227 30.0769 87.5366 30.094C87.8641 30.2934 87.7414 30.5028 87.6599 30.6419C87.6505 30.658 87.6416 30.6731 87.634 30.6872C87.561 30.8231 87.3662 31.0579 86.8061 30.8231C85.9323 30.4576 85.0155 30.2084 84.0787 30.0816C83.4334 28.3515 82.6663 26.3 82.0454 24.6563H81.1566C80.9557 25.2138 80.7091 25.9059 80.4427 26.6534C79.6106 28.9879 78.5856 31.8636 78.1613 32.8746C77.8935 33.6161 77.4795 34.1104 76.9438 34.1104V34.543H80.7669V34.1104C80.012 34.1104 79.8903 33.6779 80.1095 33.0723L80.6574 31.5028C80.6872 31.4702 80.716 31.4385 80.744 31.4077C81.2878 30.8095 81.5125 30.5624 82.2767 30.5389C82.7713 30.5131 83.2646 30.6107 83.7135 30.8231L84.5658 33.0971C84.7484 33.6779 84.5658 34.1104 83.9326 34.1104V34.543H86.6113V34.1104C86.0785 34.0959 85.6029 33.7676 85.3937 33.2701C85.2502 32.9683 85.0203 32.395 84.726 31.6607C84.6707 31.5229 84.6132 31.3794 84.5536 31.231C85.4125 31.6351 86.322 31.9179 87.2566 32.0713C87.6219 32.0713 88.4742 32.0713 88.5716 31.1692ZM83.2995 29.958H83.336C83.3231 29.9561 83.3103 29.9542 83.2974 29.9525L82.1793 26.9426L80.7061 31.1321L80.9009 30.7737C81.5302 30.1348 82.4168 29.8316 83.2974 29.9525L83.2995 29.958Z" fill="#8C7343"/>
<path d="M76.5907 25.2496L76.6272 25.2619C75.848 25.299 75.4097 25.4967 75.4097 25.954C75.3574 26.2559 75.333 26.562 75.3366 26.8685V34.5678H74.2651C72.6214 32.4298 70.308 29.4267 68.2625 26.955V32.541C68.2414 32.8455 68.2414 33.1511 68.2625 33.4555C68.3356 33.9128 68.7008 34.1476 69.7601 34.1476V34.5801H66.2901V34.1476C67.0815 34.1105 67.5076 33.9128 67.5076 33.4555C67.5536 33.1529 67.578 32.8472 67.5807 32.541V26.3618C67.2476 25.6928 66.5779 25.265 65.8396 25.2496V24.817H69.0539C70.7464 27.0292 72.8649 29.6986 74.6791 31.9725V26.8562C74.6731 26.5496 74.6446 26.2439 74.5939 25.9416C74.5574 25.4844 74.2043 25.2496 73.1328 25.2496V24.817H76.5907V25.2496Z" fill="#8C7343"/>
<path d="M61.2858 34.6048L61.2371 34.5678H61.2858V34.6048Z" fill="#8C7343"/>
<path fill-rule="evenodd" clip-rule="evenodd" d="M61.2858 34.1723V34.5678H65.0603V34.1352C64.4637 34.1352 64.0619 33.6162 63.8427 32.8994C63.3313 31.5647 61.6754 26.9798 60.8475 24.6811H59.9587C59.8674 24.9256 59.7727 25.1794 59.6754 25.4399C58.5537 28.4456 57.095 32.3539 56.6469 33.3319C56.4329 33.8255 55.9602 34.1518 55.4293 34.1723V34.6048H58.108V34.1723C57.487 34.1723 57.2922 33.7398 57.487 33.1589L58.0349 31.5029H61.3711L61.9433 33.1342C62.1625 33.7398 62.0285 34.1723 61.2858 34.1723ZM59.703 26.7944L61.0545 30.8603H58.2297L59.703 26.7944Z" fill="#8C7343"/>
<path d="M49.8406 26.609C49.8406 27.5853 50.8755 28.1414 52.2757 29.2166C53.676 30.2917 54.1143 31.0703 54.1143 32.1331C54.1143 33.8386 52.4219 34.7655 50.4616 34.7655C49.5729 34.7891 48.6881 34.6381 47.856 34.3206C47.7868 34.281 47.7483 34.2027 47.7586 34.1228V32.0096H48.1238C48.2232 33.1936 49.1386 34.1383 50.3033 34.2588C50.7575 34.2555 51.1917 34.0684 51.5094 33.7389C51.8272 33.4095 52.0022 32.9649 51.9957 32.5039C51.9957 31.5894 51.5939 30.9344 49.6823 29.6985C48.6203 29.2186 47.8979 28.1921 47.7951 27.0168C47.7951 25.6327 49.0979 24.6563 50.9973 24.6563C51.7505 24.6277 52.5041 24.7025 53.2376 24.8788C53.3193 24.9112 53.3759 24.9878 53.3837 25.0765V27.0044H53.0063C52.7628 26.127 52.2514 25.1878 51.1678 25.1878C50.7993 25.1758 50.4434 25.3243 50.1898 25.5959C49.9362 25.8675 49.8091 26.2362 49.8406 26.609Z" fill="#8C7343"/>
<path d="M44.8121 30.7243L44.7147 30.6996C44.6874 30.979 44.6874 31.2605 44.7147 31.5399V34.0981C43.599 34.4922 42.4259 34.6927 41.2446 34.6913C38.2128 34.6913 35.8995 33.1465 35.8995 29.5997C35.8995 27.4987 37.4336 24.6563 41.4394 24.6563C42.3181 24.6499 43.1901 24.8134 44.0085 25.1383C44.3981 25.2619 44.5442 25.4473 44.5442 25.6821V27.4987H44.1789C43.9856 26.0963 42.7723 25.0736 41.3785 25.1383C39.0164 25.1383 38.018 27.0168 38.018 29.5626C38.018 32.1084 39.1869 34.3082 41.1472 34.3082C42.4622 34.3082 42.9127 33.8633 42.9127 32.4544V31.5646C42.9399 31.2852 42.9399 31.0037 42.9127 30.7243C42.8518 30.4771 42.3769 30.3535 41.415 30.3535V29.921H45.9566V30.3535C45.3356 30.403 44.8121 30.4771 44.8121 30.7243Z" fill="#8C7343"/>
<path d="M34.8645 25.2867L34.9741 25.299C34.1949 25.3361 33.8296 25.5338 33.7565 25.9911C33.6672 26.2782 33.598 26.5714 33.5496 26.8685V34.5678H32.4781C30.8344 32.4298 28.521 29.4267 26.4755 26.955V32.5781C26.4718 32.8846 26.4963 33.1907 26.5485 33.4926C26.6094 33.9499 26.9869 34.1847 28.034 34.1847V34.6172H24.5639V34.1847C25.3553 34.1476 25.7815 33.9499 25.7815 33.4926C25.8275 33.1899 25.8519 32.8843 25.8545 32.5781V26.3989C25.5214 25.7299 24.8517 25.3021 24.1134 25.2867V24.8541H27.3278C29.0202 27.0663 31.1388 29.7357 32.9529 32.0096V26.8932C32.9469 26.5867 32.9184 26.281 32.8677 25.9787C32.8312 25.5215 32.4781 25.2867 31.4066 25.2867V24.8541H34.8645L34.8645 25.2867Z" fill="#8C7343"/>
<path fill-rule="evenodd" clip-rule="evenodd" d="M19.2796 34.1352V34.5678L23.0906 34.5678V34.1352C22.494 34.1352 22.08 33.6162 21.8122 32.8994C21.3008 31.5647 19.6449 26.9798 18.8169 24.6811H17.9281C17.3193 26.3248 16.5523 28.3886 15.8948 30.1064C14.9618 30.2326 14.049 30.4818 13.1796 30.8479C12.6195 31.0827 12.4125 30.8479 12.3395 30.712C12.3319 30.6979 12.323 30.6828 12.3136 30.6667C12.2321 30.5276 12.1094 30.3182 12.4369 30.1188C12.1516 30.1009 11.8736 30.2144 11.68 30.4277C11.4863 30.6411 11.3976 30.9316 11.4385 31.2187C11.4385 32.1332 12.376 32.1579 12.7534 32.1208C13.7015 31.9617 14.6233 31.6706 15.493 31.2557C15.1277 32.195 14.8233 32.9365 14.665 33.2949C14.4511 33.7884 13.9783 34.1147 13.4475 34.1352V34.5678H16.1139V34.1352C15.493 34.1352 15.2982 33.7027 15.493 33.1218L16.3331 30.8479C16.782 30.6355 17.2752 30.5379 17.7698 30.5637C18.5163 30.5637 18.748 30.8196 19.2651 31.3909C19.3047 31.4346 19.3459 31.4802 19.3892 31.5276L19.9493 33.0971C20.1684 33.7027 20.0345 34.1352 19.2796 34.1352ZM19.2187 31.1445H19.2553L19.1518 30.9542L17.7455 26.955L16.6253 29.9705C17.5185 29.8353 18.422 30.1379 19.0605 30.7861L19.1518 30.9542L19.2187 31.1445Z" fill="#8C7343"/>
</svg>
