<svg width="100" height="58" viewBox="0 0 100 58" fill="none" xmlns="http://www.w3.org/2000/svg">
<path fill-rule="evenodd" clip-rule="evenodd" d="M29.6709 31.1695L30.8722 34.1013H32.1274L27.5519 23.2783L22.855 34.1013H24.0965L25.3248 31.1695H29.6709ZM29.2257 30.101H25.7836L27.5249 25.9634L29.2257 30.101ZM33.111 27.6623H34.1906V28.3609H34.2175C34.5956 27.854 34.9194 27.4841 35.6213 27.4841C35.9857 27.4841 36.2827 27.6077 36.5932 27.7855L36.0802 28.7858C36.0525 28.7665 36.0259 28.7474 36 28.7287C35.8241 28.6021 35.6794 28.4979 35.4325 28.4979C34.2448 28.4979 34.1906 30.046 34.1906 30.8816V34.1013H33.111V27.6623ZM38.887 28.6761H40.0209V27.6623H38.887V25.3472H37.8074V27.6623H37.1457V28.6761H37.8074V34.1013H38.887V28.6761ZM48.1715 23.5936C49.3053 23.5936 50.2636 24.1824 50.8036 25.1963L49.8992 25.7856C49.4942 25.0731 49.0084 24.662 48.1446 24.662C47.2402 24.662 46.4575 25.3194 46.4575 26.2647C46.4575 27.1528 47.3566 27.564 48.0441 27.8785L48.0502 27.8813L48.7252 28.1831C50.0478 28.772 51.168 29.4432 51.168 31.0871C51.168 32.8958 49.7373 34.2795 47.969 34.2795C46.3357 34.2795 45.1211 33.2106 44.7973 31.6079L45.9038 31.2927C46.0525 32.3477 46.8488 33.2106 47.9421 33.2106C49.0353 33.2106 50.0342 32.3615 50.0342 31.1968C50.0342 30.0118 49.1342 29.5944 48.2063 29.1642L48.1582 29.1418L47.5371 28.8678C46.3494 28.3197 45.3236 27.7035 45.3236 26.224C45.3236 24.6208 46.66 23.5936 48.1715 23.5936ZM58.3471 31.1148C58.4552 29.1965 57.3752 27.4841 55.3373 27.4841C53.3529 27.4841 52.2597 29.0599 52.2597 30.964C52.2597 32.8134 53.4747 34.2795 55.3643 34.2795C56.66 34.2795 57.6858 33.6217 58.2933 32.4708L57.3752 31.9366C56.9569 32.7037 56.3631 33.2657 55.445 33.2657C54.2168 33.2657 53.3798 32.3065 53.3666 31.1148H58.3471ZM55.3506 28.4979C54.4193 28.4979 53.5554 29.2516 53.4204 30.183H57.2133C57.065 29.2516 56.2956 28.4979 55.3506 28.4979ZM60.9503 27.6623H59.8707V34.1013H60.9503V30.8816C60.9503 30.046 61.0045 28.4979 62.1922 28.4979C62.4391 28.4979 62.5838 28.602 62.7597 28.7287C62.7856 28.7473 62.8122 28.7665 62.8399 28.7858L63.353 27.7855C63.0424 27.6077 62.7455 27.4841 62.3811 27.4841C61.6791 27.4841 61.3553 27.854 60.9772 28.3609H60.9503V27.6623ZM64.1216 25.2375C64.1216 24.8125 64.4723 24.4565 64.891 24.4565C65.3093 24.4565 65.6604 24.8125 65.6604 25.2375C65.6604 25.6759 65.3093 26.0184 64.891 26.0184C64.4723 26.0184 64.1216 25.6759 64.1216 25.2375ZM64.351 27.6623V34.1013H65.431V27.6623H64.351ZM69.9519 27.4841C71.9898 27.4841 73.0698 29.1965 72.9617 31.1148H67.9811C67.9944 32.3065 68.8313 33.2657 70.0596 33.2657C70.9777 33.2657 71.5715 32.7037 71.9898 31.9366L72.9078 32.4708C72.3003 33.6217 71.2746 34.2795 69.9788 34.2795C68.0892 34.2795 66.8742 32.8134 66.8742 30.964C66.8742 29.0599 67.9675 27.4841 69.9519 27.4841ZM68.035 30.183C68.17 29.2516 69.0338 28.4979 69.9652 28.4979C70.9102 28.4979 71.6796 29.2516 71.8278 30.183H68.035ZM76.1595 27.4841C76.8883 27.4841 77.5629 28.0049 77.8466 28.6761L76.9422 29.1557C76.7935 28.8132 76.4697 28.4979 76.0783 28.4979C75.7002 28.4979 75.2957 28.7993 75.2957 29.2104C75.2957 29.7292 75.8607 29.961 76.5024 30.2242C76.5895 30.2599 76.6779 30.2962 76.7666 30.3339C77.5091 30.6487 78.2379 31.101 78.2379 32.1833C78.2379 33.4027 77.266 34.2795 76.092 34.2795C75.0257 34.2795 74.1887 33.6629 73.8512 32.649L74.8095 32.238C75.0795 32.8407 75.3901 33.2657 76.1053 33.2657C76.6858 33.2657 77.131 32.8684 77.131 32.2792C77.131 31.6216 76.5329 31.3677 75.8836 31.092C75.1126 30.7648 74.2695 30.4068 74.2695 29.3062C74.2695 28.2239 75.1333 27.4841 76.1595 27.4841Z" fill="#8C7343"/>
</svg>
