<svg width="100" height="58" viewBox="0 0 100 58" fill="none" xmlns="http://www.w3.org/2000/svg">
<path fill-rule="evenodd" clip-rule="evenodd" d="M40.5647 29.354C41.2604 28.6849 41.8463 28.1036 43.1133 26.4772C43.6098 25.8305 43.8588 25.4692 44.1606 25.0083L44.1401 24.9533C43.8062 24.9886 43.6686 24.996 43.4333 25.0086C43.3714 25.0119 43.3026 25.0156 43.2217 25.0202C43.0401 25.4761 42.7966 25.904 42.4981 26.2913C42.0974 26.8571 41.6646 27.3987 41.2018 27.9133C40.9313 28.2111 40.6374 28.4861 40.323 28.7355C39.7942 28.1869 39.5994 27.9788 38.4554 26.5545C37.8505 25.7978 37.6659 25.5346 37.0727 24.6693C36.6793 24.8689 36.2664 25.0263 35.8409 25.1391C36.1108 25.563 36.4182 25.9611 36.7593 26.3285C36.9287 26.5338 37.5072 27.2512 37.8706 27.7018L38.142 28.0382C38.6825 28.6849 38.952 28.9704 39.4485 29.4848V30.582L39.4445 30.7366C39.4355 31.0873 39.4265 31.4316 39.4265 31.7713V32.934C39.5455 32.9266 39.6437 32.9203 39.7308 32.9147L39.7324 32.9146C40.0308 32.8954 40.1989 32.8846 40.6247 32.8685C40.5843 32.2724 40.581 32.0585 40.5728 31.5158L40.5705 31.3655V29.354H40.5647ZM28.296 29.2662C28.2419 30.4358 28.198 31.629 28.1979 32.7779L27.2487 33.0633C27.2542 32.9814 27.2619 32.8996 27.2696 32.8177C27.2784 32.7241 27.2872 32.6306 27.2927 32.537C27.319 32.1311 27.4655 28.569 27.4655 27.5714C27.4712 26.7407 27.4316 25.9104 27.3469 25.0841C27.7093 25.0719 28.07 25.0276 28.4249 24.9518C28.9497 25.7113 29.5431 26.4196 30.1972 27.0674C30.6074 27.4956 32.1204 29.0165 32.7356 29.6112C33.5998 30.466 33.6965 30.5641 34.3673 31.2763C34.3054 30.7196 34.28 30.1594 34.2912 29.5993V28.5943C34.2912 26.6422 34.2809 26.2809 34.2267 25.2402C34.558 25.1735 34.8856 25.0891 35.2081 24.9875C35.1983 25.9795 35.1895 26.2559 35.1679 26.9324L35.1679 26.934L35.1539 27.3766C35.1319 28.1007 35.11 28.8351 35.11 29.5695C35.11 30.0037 35.1217 31.3774 35.1964 31.9364C35.2125 32.1021 35.2624 32.2626 35.3429 32.4077C34.9851 32.6292 34.8414 32.7285 34.5053 32.9605L34.464 32.989L34.327 32.8381C33.8615 32.3252 33.7751 32.2299 32.7356 31.2049C32.4883 30.9542 32.2409 30.704 31.9937 30.454C31.1826 29.6338 30.3729 28.8149 29.5703 27.9832C28.5773 26.9753 28.5655 26.9633 28.3282 26.6021C28.3282 26.7626 28.3308 26.9231 28.3334 27.0821C28.336 27.2381 28.3385 27.393 28.3385 27.5446C28.3385 27.8822 28.3297 28.158 28.3175 28.5421C28.311 28.7449 28.3036 28.9781 28.296 29.2662ZM17.2958 32.8492L18.3505 32.8936L18.3824 32.8287C18.6264 32.3316 18.7165 32.148 19.4724 30.8659C19.5759 30.6817 19.6836 30.498 19.7926 30.312C19.8656 30.1874 19.9395 30.0614 20.0129 29.9338C20.4447 29.1776 20.467 29.177 20.8908 29.1667L22.3169 29.1666C22.5371 29.171 22.7574 29.1601 22.9761 29.1339C23.1372 29.1068 23.2959 29.0665 23.4507 29.0135C23.6543 29.4371 23.9316 29.9898 24.2069 30.5383C24.4581 31.0391 24.7077 31.5366 24.8978 31.9289C25.2306 32.6134 25.2433 32.6626 25.3179 32.9524L25.3197 32.9592C25.6915 32.8174 26.08 32.7254 26.4753 32.6857C26.1573 31.9584 26.025 31.6934 25.0272 29.6964L24.8553 29.3525C23.5913 26.8102 22.9863 25.3963 22.9658 25.3205C22.9213 25.2238 22.8955 25.1193 22.8897 25.0128C22.5784 25.0587 22.265 25.088 21.9508 25.1005C21.4425 26.3716 20.7087 27.5327 19.9748 28.6849L19.81 28.9441C19.554 29.3472 19.3012 29.7451 19.0345 30.1419L18.9706 30.2338C18.7327 30.576 18.4956 30.917 18.2684 31.2718C17.9181 31.7806 17.5935 32.307 17.2958 32.8492ZM11.8807 25.4632L12.5618 25.4514L12.5178 32.5206L11.8382 32.5311V32.87L11.8664 32.8697C13.5458 32.8491 14.8239 32.8334 15.9629 32.1267C16.5561 31.7758 16.934 31.3268 16.934 30.7574C16.934 30.188 16.5356 29.5294 15.8765 29.0685C15.6114 28.8974 15.3332 28.7482 15.0445 28.6225C15.812 28.2612 16.7714 27.7126 16.7714 26.7255C16.7714 25.8929 16.1255 25.432 15.834 25.2789C15.4883 25.1154 15.1309 25.0618 14.1701 25.0618C13.2522 25.0618 12.7286 25.0903 11.9672 25.1318L11.8587 25.1377L11.8807 25.4454V25.4632ZM13.694 25.4826C14.1481 25.4722 14.7311 25.4618 15.1851 25.9286C15.4755 26.2392 15.6478 26.6443 15.6714 27.0719C15.6714 27.9817 14.6022 28.6284 14.2067 28.8381C14.1203 28.8812 13.9797 28.9585 13.9797 29.0893C13.9797 29.2194 14.0867 29.2539 14.1513 29.2748C14.2106 29.2971 14.2711 29.3168 14.3305 29.3361C14.3898 29.3554 14.4491 29.3748 14.5084 29.3971C15.4927 29.7806 15.8384 30.5864 15.8384 31.0429C15.8384 31.4472 15.6216 31.7862 15.2012 32.0285C14.6992 32.3222 14.1029 32.3781 13.6296 32.4224L13.612 32.424C13.6442 28.5407 13.6545 27.6532 13.6984 25.4826H13.694ZM22.2379 26.2304L22.3569 26.5176C22.622 27.1579 22.7829 27.5467 23.2851 28.6522C23.0039 28.7518 22.8208 28.8009 22.1397 28.8009C21.8277 28.8009 21.4278 28.8009 21.1144 28.7801C20.9093 28.7682 20.8214 28.7578 20.8214 28.6478C20.8585 28.5299 20.9076 28.4163 20.9679 28.3088C21.3521 27.5925 21.7741 26.8977 22.232 26.2274L22.2379 26.2304ZM43.3331 32.8937L43.3572 32.8444C43.6072 32.3353 43.6926 32.1615 44.4565 30.8659C44.5629 30.6764 44.6732 30.4875 44.785 30.296C44.8548 30.1765 44.9251 30.056 44.9955 29.9338C45.4273 29.1776 45.4495 29.177 45.8734 29.1667L47.2995 29.1666C47.5197 29.171 47.7399 29.1601 47.9586 29.1339C48.1197 29.1065 48.2784 29.0662 48.4332 29.0135C48.6454 29.4564 48.9385 30.0406 49.226 30.6135C49.4645 31.0887 49.6991 31.5562 49.8804 31.9289C50.2143 32.6188 50.2261 32.6634 50.3008 32.9592C50.6727 32.8175 51.0612 32.7256 51.4564 32.6857C51.1479 31.9769 51.0131 31.7072 50.0828 29.8455L49.8364 29.3525C48.5738 26.8102 47.9689 25.3963 47.9469 25.3205C47.9031 25.2236 47.8773 25.1192 47.8708 25.0128C47.5595 25.0588 47.2461 25.088 46.9319 25.1005C46.4251 26.3716 45.6898 27.5327 44.9559 28.6849C44.8911 28.7867 44.8267 28.8882 44.7626 28.9893L44.7604 28.9927C44.5153 29.3791 44.273 29.761 44.017 30.1419L43.9491 30.2397C43.7126 30.5799 43.4768 30.919 43.2495 31.2718C42.8996 31.7805 42.5755 32.307 42.2784 32.8492L43.3331 32.8937ZM47.2204 26.2304L47.3238 26.4797C47.5986 27.143 47.757 27.525 48.2677 28.6522C47.9879 28.7518 47.8034 28.8009 47.1237 28.8009C46.8103 28.8009 46.4104 28.8009 46.0984 28.7801C45.8934 28.7682 45.8055 28.7578 45.8055 28.6478C45.842 28.5297 45.8911 28.4161 45.952 28.3088C46.3351 27.5922 46.7566 26.8973 47.2146 26.2274L47.2204 26.2304ZM53.2786 29.2662C53.2244 30.4378 53.1819 31.6331 53.1819 32.7838L53.1804 32.7779L52.2313 33.0633C52.2364 32.9756 52.2445 32.8878 52.2525 32.8001C52.2606 32.7124 52.2686 32.6247 52.2738 32.537C52.3001 32.1311 52.4466 28.569 52.4466 27.5714C52.4523 26.7407 52.4127 25.9104 52.3279 25.0841C52.6909 25.0719 53.0521 25.0276 53.4075 24.9518C53.9316 25.7114 54.5245 26.4197 55.1783 27.0674C55.5885 27.4956 57.1015 29.0165 57.7167 29.6112C58.5809 30.466 58.6791 30.5641 59.3484 31.2763C59.2873 30.7195 59.2618 30.1594 59.2723 29.5993V28.5943C59.2723 26.6422 59.262 26.2809 59.2078 25.2402C59.5392 25.1738 59.8668 25.0895 60.1892 24.9875C60.1808 25.9514 60.1715 26.2397 60.1509 26.8759C60.1462 27.0207 60.141 27.1836 60.135 27.3766L60.1319 27.4871C60.1123 28.1752 60.0925 28.8725 60.0925 29.5695C60.0925 30.0037 60.1028 31.3774 60.179 31.9364C60.195 32.1021 60.2448 32.2626 60.3254 32.4077C59.9851 32.6184 59.8397 32.7185 59.536 32.9275L59.4466 32.989L59.3139 32.8425C58.846 32.3257 58.7619 32.2329 57.7182 31.2049C57.4369 30.9194 57.1555 30.6346 56.8741 30.3499L56.8718 30.3475C56.0964 29.5628 55.3219 28.779 54.5529 27.9832C53.5598 26.9752 53.5495 26.9633 53.3108 26.6021C53.3108 26.7627 53.3138 26.9232 53.3167 27.0823C53.3196 27.2384 53.3225 27.393 53.3225 27.5446C53.3225 27.8726 53.3136 28.1423 53.3015 28.5095L53.3015 28.5111C53.2945 28.7211 53.2866 28.9632 53.2786 29.2662ZM63.7676 25.4365C64.1875 25.5426 64.6194 25.5926 65.0521 25.5852C65.6468 25.5852 65.9588 25.5852 66.5857 25.6179L66.5894 25.912C66.5986 26.6342 66.6077 27.35 66.6077 28.0635C66.6146 28.329 66.6069 29.2167 66.6011 29.8804C66.5983 30.2018 66.596 30.4706 66.596 30.5909C66.596 31.8308 66.596 31.9721 66.5432 32.8715C66.9466 32.8591 67.3503 32.874 67.7516 32.9161C67.718 32.1728 67.7077 31.7267 67.7077 31.1618C67.7077 30.9598 67.7134 30.4037 67.719 29.8595C67.7244 29.3384 67.7297 28.8282 67.7297 28.6507C67.7297 27.1165 67.7297 26.9514 67.7517 25.6699C69.0143 25.6907 69.2735 25.6803 70.0616 25.5926L70.4834 24.9474L70.4512 24.9146C69.7598 25.1124 68.651 25.1391 67.1467 25.1391C66.5213 25.1391 65.8621 25.1391 65.1708 25.0856C64.8179 25.0696 64.4672 25.0198 64.1235 24.9369L63.7676 25.4365ZM71.349 25.4365H70.7338L70.7426 25.4305V25.1332C70.9609 25.1174 71.1796 25.1044 71.3994 25.0913C71.6353 25.0773 71.8726 25.0632 72.1122 25.0455L72.1476 25.0436C72.5204 25.0233 72.9063 25.0024 73.284 25.0024C73.6736 25.0024 74.9494 25.0024 75.6817 25.768C75.9063 25.9857 76.0293 26.29 76.0201 26.605C76.0201 26.9916 75.8795 27.6353 75.0812 28.4783C74.746 28.8545 74.3328 29.1505 73.8713 29.345C75.6304 31.0443 76.2354 31.5915 77.435 32.4032L76.4404 33.1049C75.8472 32.6262 75.2745 32.1341 74.7135 31.6182C73.9639 30.9445 73.2501 30.2309 72.575 29.4803L72.6158 29.4711C73.1358 29.3529 73.744 29.2148 74.2492 28.6701C74.5187 28.3846 74.8219 27.9237 74.8219 27.6056C74.8219 27.0139 74.6711 26.4073 74.2492 25.9613C73.7087 25.4142 73.0716 25.4142 72.5955 25.4142C72.5065 26.101 72.4576 26.7925 72.4491 27.4852C72.434 28.1496 72.4293 28.8071 72.4245 29.4682C72.4223 29.7743 72.4201 30.0815 72.4168 30.3902L72.4133 30.6372C72.4029 31.3645 72.3926 32.0842 72.3729 32.8135L71.1542 32.9012C71.2573 32.0094 71.315 31.1127 71.3271 30.2148C71.3593 29.2618 71.3915 28.0442 71.3915 27.1685C71.3915 26.5652 71.3754 26.1382 71.3565 25.6351L71.349 25.4365ZM82.5982 32.1133L82.4679 31.9929C81.9983 32.2959 81.718 32.2991 80.6974 32.3107L80.6648 32.311H79.2616L79.3904 29.1637H80.719C81.0946 29.1544 81.4703 29.1763 81.8424 29.2291L82.5338 28.3965L82.4473 28.3088C81.9069 28.4842 81.6154 28.5288 80.8698 28.5288H79.4051L79.4476 25.6327C79.5942 25.6327 79.7431 25.6301 79.8917 25.6275C80.04 25.6249 80.1882 25.6223 80.3337 25.6223C80.7556 25.6223 81.1217 25.6327 81.63 25.6669L82.2994 25.1629L82.2452 25.0143C81.857 25.102 81.4894 25.1778 80.341 25.1778C79.8547 25.1778 79.4768 25.1674 79.1312 25.1451C79.0128 25.1375 78.8971 25.1312 78.7819 25.125C78.5606 25.113 78.3408 25.1012 78.1059 25.0797C78.212 25.5366 78.2772 26.0024 78.3007 26.4712C78.3226 26.9648 78.3329 27.4584 78.3329 27.9579C78.3329 29.1473 78.2904 30.2044 78.204 31.257C78.1395 32.0003 78.1059 32.2976 77.9989 32.9444C78.6451 32.8462 79.2981 32.8025 79.9514 32.8135C80.3908 32.8135 80.8815 32.8135 81.2917 32.8462C81.4674 32.8608 81.6411 32.8937 81.8102 32.9444L82.5982 32.1133ZM88.3283 31.9929L88.4572 32.1133L88.4425 32.1029L87.6545 32.934C87.4855 32.8831 87.3117 32.8503 87.136 32.8358C86.7258 32.8031 86.2366 32.8031 85.7972 32.8031C85.1434 32.792 84.4899 32.8358 83.8432 32.934C83.9516 32.2872 83.9839 31.9899 84.0483 31.2465C84.1347 30.194 84.1787 29.1369 84.1787 27.9475C84.1787 27.448 84.167 26.9544 84.1464 26.4608C84.1216 25.9921 84.0564 25.5265 83.9516 25.0693C84.1848 25.0907 84.4048 25.1026 84.6255 25.1145C84.7418 25.1207 84.8582 25.127 84.977 25.1347C85.3212 25.157 85.6991 25.1674 86.1854 25.1674C87.341 25.1674 87.7087 25.0916 88.0968 25.0039L88.151 25.1525L87.4817 25.6565C86.9734 25.6223 86.6072 25.6119 86.1854 25.6119C86.0389 25.6119 85.8924 25.6145 85.7459 25.6171C85.5995 25.6197 85.453 25.6223 85.3065 25.6223L85.2626 28.5184H86.7273C87.4714 28.5184 87.7629 28.4738 88.3034 28.2984L88.3898 28.3861L87.6984 29.2187C87.3263 29.1658 86.9506 29.1439 86.575 29.1533H85.2465L85.1205 32.311H86.5237L86.5562 32.3107C87.5783 32.2991 87.8572 32.2959 88.3283 31.9929Z" fill="#8C7343"/>
</svg>
