<svg width="100" height="58" viewBox="0 0 100 58" fill="none" xmlns="http://www.w3.org/2000/svg">
<path d="M52.2899 33.4698C52.2899 33.4698 49.1375 29.8923 49.0577 29.7928C49.1434 29.7042 52.0271 26.8848 52.0271 26.8848H50.0319C50.0319 26.8848 47.653 29.253 47.4487 29.4663V23.2773H45.8507V33.4698H47.4487V30.2525C47.6592 30.5022 50.2161 33.4698 50.2161 33.4698H52.2899Z" fill="#8C7343"/>
<path fill-rule="evenodd" clip-rule="evenodd" d="M20.6463 28.109C21.4603 27.7752 21.9132 27.0581 21.9132 26.0407C21.9132 25.1358 21.5482 24.3448 20.9153 23.8739C20.2865 23.3936 19.4569 23.3591 18.439 23.3591H15.894V33.4698H18.4565C19.8823 33.4698 20.8047 33.4155 21.5207 32.7009C22.0425 32.1771 22.3376 31.4028 22.3376 30.5744C22.3376 29.2873 21.6899 28.3698 20.6463 28.109ZM18.1361 27.5835H17.5985V24.855H18.1361C19.5164 24.855 20.1652 25.0632 20.1652 26.2654C20.1652 27.2263 19.6183 27.5835 18.1361 27.5835ZM17.5985 28.9407V31.9851H18.0797C18.9964 31.9851 19.5978 31.9374 19.9593 31.6904C20.3342 31.4283 20.5472 30.9925 20.5472 30.4852C20.5472 29.8632 20.3088 29.405 19.8262 29.1498C19.4899 28.9735 19.0796 28.9407 18.5683 28.9407H17.5985Z" fill="#8C7343"/>
<path d="M28.3981 26.9552L28.4585 26.9868L27.8681 28.3767L27.8013 28.3249C27.5576 28.1544 27.2908 28.0738 26.9499 28.0738C26.0176 28.0738 25.6472 28.7702 25.6472 30.5744V33.4698H24.052V26.8619H25.6472V27.6534C25.982 26.9777 26.4716 26.6542 27.1675 26.6542C27.5922 26.6542 28.0032 26.7507 28.3981 26.9552Z" fill="#8C7343"/>
<path fill-rule="evenodd" clip-rule="evenodd" d="M32.4224 26.6542C34.511 26.6542 35.7518 27.9467 35.7518 30.1193V30.4603H30.6667C30.7525 31.5833 31.3928 32.2542 32.3867 32.2542C33.3124 32.2542 33.8666 31.8968 34.3357 31.0193L34.3624 30.9561L35.7122 31.7186L35.6801 31.776C34.9499 33.1008 33.8817 33.7416 32.4224 33.7416C30.354 33.7416 29.0005 32.3471 29.0005 30.1948C29.0005 28.109 30.4075 26.6542 32.4224 26.6542ZM30.7761 29.3391C31.0141 28.4662 31.5595 28.0452 32.4423 28.0452C33.3982 28.0452 33.9577 28.4965 34.0928 29.3391H30.7761Z" fill="#8C7343"/>
<path fill-rule="evenodd" clip-rule="evenodd" d="M42.0389 27.7282V26.8848H43.6312V33.4698H42.0389V32.7655C41.5088 33.4155 40.8456 33.7416 39.9948 33.7416C38.1509 33.7416 37.0166 32.3695 37.0166 30.17C37.0166 28.0702 38.1912 26.6542 39.9442 26.6542C40.9077 26.6542 41.6361 27.0334 42.0389 27.7282ZM40.3638 32.2991C39.2927 32.2991 38.6791 31.5314 38.6791 30.2085C38.6791 28.8819 39.3157 28.1016 40.3895 28.1016C41.4553 28.1016 42.0692 28.8558 42.0692 30.1569C42.0692 31.4374 41.3872 32.2991 40.3638 32.2991Z" fill="#8C7343"/>
<path d="M59.0751 24.8846H55.1661V27.2285H59.0751V28.7848H55.1661V33.4698H53.4384V23.3591H59.0751V24.8846Z" fill="#8C7343"/>
<path d="M62.2338 27.6534C62.5656 26.9777 63.0514 26.6542 63.7551 26.6542C64.1754 26.6542 64.5853 26.7507 64.982 26.9552L65.0376 26.9868L64.4565 28.3767L64.3889 28.3249C64.1479 28.1544 63.8774 28.0738 63.5294 28.0738C62.6021 28.0738 62.2338 28.7702 62.2338 30.5744V33.4698H60.6416V26.8619H62.2338V27.6534Z" fill="#8C7343"/>
<path fill-rule="evenodd" clip-rule="evenodd" d="M72.3334 30.1193C72.3334 27.9467 71.0904 26.6542 69.0061 26.6542C66.9894 26.6542 65.5874 28.109 65.5874 30.1948C65.5874 32.3471 66.9303 33.7416 69.0061 33.7416C70.4683 33.7416 71.5364 33.1008 72.265 31.776L72.2919 31.7186L70.9517 30.9561L70.9152 31.0193C70.4602 31.8968 69.8973 32.2542 68.9771 32.2542C67.9834 32.2542 67.332 31.5833 67.2507 30.4603H72.3334V30.1193ZM69.0322 28.0452C68.1476 28.0452 67.599 28.4662 67.3628 29.3391H70.6734C70.5412 28.4965 69.9882 28.0452 69.0322 28.0452Z" fill="#8C7343"/>
<path d="M80.9101 25.2146C78.2127 25.2146 75.0917 27.1617 73.9377 29.5658C73.2983 30.8918 73.4074 32.0894 74.0624 32.8841C74.0765 32.8938 74.0846 32.9032 74.0892 32.9113L74.0926 32.9184C74.0926 32.9184 74.0906 32.9138 74.0892 32.9113C73.7968 32.2924 73.8594 31.423 74.3129 30.3748C75.2268 28.2653 77.2889 26.7858 79.3277 26.7858C81.4401 26.7858 82.1295 28.1008 81.1836 30.2956L81.0132 30.6824H75.9305C75.5745 31.7542 75.9036 32.3695 76.8776 32.3695C77.7663 32.3695 78.471 32.0242 79.291 31.1634L79.3902 31.0617L80.4676 31.8774L80.3696 31.9754C79.1947 33.1578 77.9944 33.8029 76.7075 33.9328H76.7392C76.7628 33.9328 76.7863 33.9314 76.8095 33.93C76.8324 33.9287 76.855 33.9273 76.8776 33.9273C79.5466 33.8582 82.5839 31.9392 83.7154 29.5658C84.8681 27.1617 83.618 25.2146 80.9101 25.2146Z" fill="#8C7343"/>
<path d="M76.5924 29.459C77.1876 28.6622 77.8563 28.2756 78.706 28.2756C79.6085 28.2756 79.9529 28.684 79.76 29.459H76.5924Z" fill="#8C7343"/>
<path d="M83.9919 33.1591C83.9919 33.4528 83.8969 33.7098 83.6795 33.9152C83.4855 34.1228 83.2365 34.2223 82.9468 34.2223C82.6601 34.2223 82.4123 34.1228 82.2048 33.9152C82.0051 33.7098 81.9002 33.4528 81.9002 33.1591C81.9002 32.9979 81.9322 32.8474 81.9973 32.7154C82.067 32.5661 82.1594 32.4472 82.2757 32.3489C82.476 32.1899 82.699 32.1064 82.9357 32.1064C83.096 32.1064 83.2425 32.1407 83.3764 32.2002C83.5561 32.2794 83.7052 32.4093 83.8239 32.5865C83.939 32.7655 83.9919 32.9567 83.9919 33.1591Z" fill="#8C7343"/>
</svg>
