<svg width="100" height="58" viewBox="0 0 100 58" fill="none" xmlns="http://www.w3.org/2000/svg">
<path fill-rule="evenodd" clip-rule="evenodd" d="M82.5454 35.4568C78.7415 35.4568 76.502 32.4803 76.502 28.7096C76.502 24.9385 78.7415 21.962 82.5454 21.962C86.3318 21.962 88.5714 24.9385 88.5714 28.7096C88.5714 32.4803 86.3318 35.4568 82.5454 35.4568ZM34.376 35.1505V34.4646H26.5373V28.7996H33.825V28.1139H26.5373V22.9541H34.2872V22.2685H25.7551V35.1505H34.376ZM11.4286 22.2685H15.5878C20.121 22.2685 21.4541 25.4258 21.4541 28.6913C21.4541 32.336 19.6232 35.1505 15.5523 35.1505H11.4286V22.2685ZM12.2106 34.4647H15.6235C17.9875 34.4647 20.6716 33.1476 20.6716 28.6913C20.6716 23.4231 17.3479 22.9542 15.4635 22.9542H12.2106V34.4647ZM38.1799 22.2686H38.9619V34.4648H46.1602V35.1506H38.1799V22.2686ZM59.1718 35.1506L54.1589 22.2686H53.3058L48.2045 35.1506H49.04L50.6572 31.0189H56.7369L58.3365 35.1506H59.1718ZM56.4877 30.3328L53.7679 23.0444H53.733L50.9064 30.3328H56.4877ZM63.5262 22.2686H62.549V35.1506H63.3311V23.2428H63.3664L71.4365 35.1506H72.36V22.2686H71.578V34.0855H71.5427L63.5262 22.2686ZM87.7896 28.7096C87.7896 32.0111 85.8516 34.7716 82.5454 34.7716C79.2211 34.7716 77.2841 32.0111 77.2841 28.7096C77.2841 25.4079 79.2211 22.6477 82.5454 22.6477C85.8516 22.6477 87.7896 25.4079 87.7896 28.7096Z" fill="#8C7343"/>
</svg>
