<svg width="70" height="40" viewBox="0 0 70 40" fill="none" xmlns="http://www.w3.org/2000/svg">
<path d="M58.75 21.2002C60.49 21.2002 61.75 20.3802 61.75 18.7702C61.7748 18.0992 61.579 17.4385 61.1925 16.8895C60.806 16.3404 60.2501 15.9332 59.61 15.7302L59.45 16.1602C60.0136 16.3204 60.5076 16.6641 60.8536 17.1369C61.1996 17.6098 61.3779 18.1846 61.36 18.7702C61.3731 19.048 61.319 19.3248 61.2024 19.5772C61.0857 19.8296 60.91 20.0502 60.69 20.2202C60.1399 20.5926 59.4833 20.7751 58.82 20.7402C58.0256 20.7461 57.241 20.5646 56.53 20.2102L56.77 19.5802C57.3902 19.9002 58.0727 20.0811 58.77 20.1102C60.38 20.1102 60.62 19.2702 60.62 18.7702C60.62 17.5361 59.839 17.1096 59.1131 16.7132C59.0685 16.6888 59.024 16.6646 58.98 16.6402L58.954 16.6263C58.3647 16.3123 57.85 16.0379 57.85 15.2002C57.85 14.6202 58.27 14.2802 59.09 14.2802C59.76 14.3012 60.415 14.483 61 14.8102L61.52 13.3602C60.7741 12.9303 59.9198 12.7253 59.06 12.7702C57.54 12.7702 56.21 13.6102 56.21 15.2402C56.1934 15.8252 56.3598 16.4008 56.6861 16.8866C57.0124 17.3724 57.4822 17.7443 58.03 17.9502L58.19 17.5202C57.7326 17.3431 57.341 17.0291 57.069 16.6209C56.7969 16.2128 56.6575 15.7306 56.67 15.2402C56.67 13.9202 57.75 13.2402 59.06 13.2402C59.7103 13.1992 60.3604 13.323 60.95 13.6002L60.72 14.2302C60.1994 14.0018 59.6385 13.8794 59.07 13.8702C57.85 13.8702 57.37 14.5402 57.37 15.2502C57.37 16.3302 58.03 16.7302 58.73 17.1002C58.7761 17.1246 58.8222 17.1486 58.8681 17.1725C59.5192 17.5118 60.13 17.83 60.13 18.8202C60.13 19.4402 59.64 19.7002 58.75 19.7002C57.9362 19.6487 57.1455 19.4091 56.44 19.0002L55.88 20.4402C56.7552 20.9366 57.7438 21.1984 58.75 21.2002Z" fill="#8C7343"/>
<path d="M31.2458 19.6193C31.3858 19.3048 31.4587 18.9645 31.46 18.6202C31.4879 18.0221 31.2958 17.4344 30.9199 16.9683C30.544 16.5021 30.0105 16.1898 29.42 16.0902C29.4951 16.0439 29.5598 15.9827 29.61 15.9102C29.7707 15.6747 29.8546 15.3953 29.85 15.1102C29.85 14.5702 29.45 13.9402 28.34 13.9402H26.64V17.5302H28.64C29.46 17.5302 29.84 17.9902 29.84 18.5302C29.8507 18.6713 29.8294 18.813 29.7777 18.9447C29.7259 19.0764 29.6452 19.1947 29.5413 19.2908C29.4375 19.387 29.3133 19.4584 29.1781 19.4999C29.0428 19.5413 28.8999 19.5517 28.76 19.5302H27.14V18.1602H26.68V20.0002H28.76C28.957 20.0201 29.1559 19.9979 29.3437 19.9352C29.5314 19.8725 29.7038 19.7707 29.8493 19.6365C29.9949 19.5023 30.1103 19.3388 30.188 19.1567C30.2656 18.9746 30.3038 18.7781 30.3 18.5802C30.2983 18.3703 30.2528 18.1631 30.1665 17.9718C30.0802 17.7805 29.9549 17.6092 29.7987 17.469C29.6425 17.3288 29.4588 17.2227 29.2593 17.1575C29.0598 17.0923 28.8489 17.0694 28.64 17.0902H27.14V14.4202H28.43C29.04 14.4202 29.48 14.5402 29.48 15.1302C29.48 15.7202 29.04 16.0002 28.48 16.0002H27.85V16.4102H28.5C29.88 16.4102 31.01 17.0402 31.01 18.5802C31.0121 18.8643 30.9536 19.1456 30.8384 19.4054C30.7232 19.6651 30.554 19.8973 30.3421 20.0866C30.1302 20.2758 29.8803 20.4177 29.6093 20.5028C29.3382 20.5879 29.0521 20.6143 28.77 20.5802H26V13.2702H28.41C28.6623 13.2368 28.9188 13.2547 29.164 13.3229C29.4092 13.391 29.6381 13.5079 29.837 13.6667C30.0359 13.8254 30.2007 14.0227 30.3215 14.2467C30.4423 14.4707 30.5166 14.7168 30.54 14.9702C30.549 15.2354 30.5083 15.5 30.42 15.7502L30.81 16.0002C30.9479 15.6855 31.0129 15.3436 31 15.0002C30.9749 14.6894 30.8882 14.3866 30.745 14.1096C30.6017 13.8326 30.4047 13.5868 30.1655 13.3867C29.9263 13.1866 29.6497 13.0361 29.3517 12.944C29.0537 12.8519 28.7404 12.82 28.43 12.8502H25.52V21.0802H28.75C29.0928 21.1122 29.4385 21.0724 29.7651 20.9634C30.0917 20.8544 30.392 20.6786 30.6469 20.4472C30.9018 20.2158 31.1058 19.9338 31.2458 19.6193Z" fill="#8C7343"/>
<path d="M13.34 19.5302V21.0802H8.25V12.8502H13.25V14.4002H9.87V15.4002H9.4V13.9402H12.81V13.3102H8.71V20.6202H12.88V20.0002H9.4V16.0002H13.14V17.5502H10.56V17.0902H12.68V16.4602H9.87V19.5402L13.34 19.5302Z" fill="#8C7343"/>
<path d="M23.32 12.8502V21.0802H21.71V16.0802L19.94 19.1502H19.41L22.17 14.3502V20.6502H22.86V13.3102H22L18.69 19.1102L16.93 16.0502V21.0502H15.27V12.8502H16.9L18.9 16.3802L18.63 16.8402L16.63 13.3102H15.72V20.6202H16.41V14.3202L18.63 18.1802L21.63 12.8502H23.32Z" fill="#8C7343"/>
<path d="M37.85 19.5302V21.0802H33.3V20.6202H37.3801V20.0002H33.3V12.8502H34.91V18.9102H34.4501V13.3102H33.76V19.5302H37.85Z" fill="#8C7343"/>
<path d="M44.45 21.0802V19.5302L41 19.5402V16.4602H43.79V17.0902H41.67V17.5502H44.25V16.0002H40.51V20.0002H44V20.6202H39.82V13.3102H43.94V13.9402H40.54V15.4002H41V14.4002H44.36V12.8502H39.36V21.0802H44.45Z" fill="#8C7343"/>
<path d="M54.43 12.8502V21.0802H52.81V16.0802L51.05 19.1502H50.52L53.28 14.3502V20.6502H54V13.3102H53.09L49.78 19.1102L48 16.0502V21.0502H46.38V12.8502H48L50 16.3802L49.73 16.8402L47.73 13.3102H46.83V20.6202H47.52V14.3202L49.74 18.1802L52.74 12.8502H54.43Z" fill="#8C7343"/>
<path d="M20 26.8102C19.8945 26.8077 19.7905 26.784 19.6943 26.7407C19.5981 26.6973 19.5116 26.6351 19.4398 26.5577C19.368 26.4804 19.3125 26.3894 19.2764 26.2902C19.2404 26.191 19.2246 26.0856 19.23 25.9802C19.2246 25.8753 19.2404 25.7704 19.2766 25.6718C19.3127 25.5731 19.3684 25.4828 19.4403 25.4062C19.5122 25.3297 19.5989 25.2684 19.695 25.2261C19.7912 25.1838 19.8949 25.1614 20 25.1602C20.2422 25.1685 20.4732 25.2644 20.65 25.4302L20.97 25.0602C20.8377 24.9337 20.6804 24.8363 20.5081 24.7742C20.3359 24.7122 20.1526 24.687 19.97 24.7002C19.7994 24.6974 19.6301 24.7293 19.4722 24.7939C19.3143 24.8585 19.1712 24.9545 19.0515 25.076C18.9318 25.1976 18.8381 25.3422 18.7759 25.501C18.7138 25.6599 18.6845 25.8297 18.69 26.0002C18.687 26.1712 18.7192 26.341 18.7845 26.4991C18.8499 26.6571 18.9469 26.8001 19.0697 26.9191C19.1925 27.0382 19.3384 27.1308 19.4984 27.1912C19.6584 27.2515 19.8291 27.2785 20 27.2702C20.1881 27.2771 20.3754 27.2422 20.5484 27.1678C20.7213 27.0934 20.8756 26.9815 21 26.8402L20.69 26.5202C20.5062 26.7026 20.2588 26.8065 20 26.8102Z" fill="#8C7343"/>
<path d="M24.3502 25.9852L24.35 25.9802V25.9902L24.3502 25.9852Z" fill="#8C7343"/>
<path fill-rule="evenodd" clip-rule="evenodd" d="M23.041 24.7813C23.2028 24.7172 23.3759 24.6862 23.55 24.6902C23.7248 24.6833 23.8992 24.7123 24.0623 24.7755C24.2255 24.8386 24.374 24.9345 24.4986 25.0573C24.6232 25.18 24.7214 25.3271 24.787 25.4892C24.8526 25.6514 24.8843 25.8253 24.88 26.0002C24.8787 26.1726 24.8432 26.3431 24.7754 26.5016C24.7076 26.6602 24.6089 26.8037 24.4852 26.9237C24.3614 27.0438 24.215 27.138 24.0544 27.2009C23.8939 27.2638 23.7224 27.2942 23.55 27.2902C23.3769 27.297 23.2043 27.2685 23.0425 27.2066C22.8807 27.1447 22.7331 27.0506 22.6088 26.93C22.4844 26.8094 22.3859 26.6648 22.3191 26.505C22.2522 26.3451 22.2185 26.1734 22.22 26.0002C22.2186 25.8261 22.2522 25.6535 22.3188 25.4926C22.3854 25.3317 22.4837 25.1859 22.6077 25.0637C22.7318 24.9415 22.8791 24.8455 23.041 24.7813ZM24.298 26.2956C24.3358 26.1966 24.3535 26.0911 24.3502 25.9852C24.3535 25.8793 24.3358 25.7738 24.298 25.6748C24.2596 25.5743 24.2013 25.4825 24.1266 25.405C24.0519 25.3275 23.9623 25.2659 23.8633 25.2238C23.7642 25.1818 23.6576 25.1601 23.55 25.1602C23.4429 25.1588 23.3365 25.1791 23.2375 25.2201C23.1385 25.2611 23.0488 25.3217 22.974 25.3985C22.8991 25.4752 22.8407 25.5663 22.8022 25.6663C22.7637 25.7663 22.7459 25.8731 22.75 25.9802C22.7474 26.0874 22.766 26.1941 22.8049 26.294C22.8438 26.3939 22.9022 26.4852 22.9766 26.5624C23.051 26.6396 23.14 26.7013 23.2384 26.7438C23.3369 26.7863 23.4428 26.8089 23.55 26.8102C23.6576 26.8103 23.7642 26.7886 23.8633 26.7466C23.9623 26.7045 24.0519 26.6429 24.1266 26.5654C24.2013 26.4879 24.2596 26.3961 24.298 26.2956Z" fill="#8C7343"/>
<path d="M26.86 24.7302H26.35V27.2202H28.13V26.7702H26.86V24.7302Z" fill="#8C7343"/>
<path d="M29.52 24.7302H30.03V26.7702H31.3V27.2202H29.52V24.7302Z" fill="#8C7343"/>
<path d="M33.2 26.1902H34.4V25.7502H33.2V25.1702H34.56V24.7302H32.7V27.2202H34.58V26.7802H33.2V26.1902Z" fill="#8C7343"/>
<path d="M36.9344 26.7407C37.0306 26.784 37.1346 26.8077 37.2401 26.8102C37.3625 26.8114 37.484 26.7881 37.5973 26.7418C37.7106 26.6954 37.8136 26.6269 37.9001 26.5402L38.2201 26.8602C38.0952 27.001 37.9409 27.1125 37.768 27.1868C37.5952 27.2611 37.4081 27.2964 37.2201 27.2902C37.0504 27.293 36.8819 27.2614 36.7247 27.1974C36.5675 27.1334 36.4248 27.0383 36.3053 26.9179C36.1857 26.7974 36.0918 26.654 36.029 26.4963C35.9663 26.3386 35.936 26.1699 35.9401 26.0002C35.9361 25.8309 35.966 25.6625 36.028 25.505C36.09 25.3474 36.1829 25.2039 36.3013 25.0827C36.4196 24.9616 36.5609 24.8654 36.717 24.7997C36.8731 24.734 37.0407 24.7002 37.2101 24.7002C37.3927 24.6864 37.5762 24.7113 37.7485 24.7733C37.9209 24.8354 38.0781 24.9331 38.2101 25.0602L37.8901 25.4302C37.7171 25.2585 37.4837 25.1616 37.2401 25.1602C37.135 25.1614 37.0313 25.1838 36.9351 25.2261C36.839 25.2684 36.7523 25.3296 36.6804 25.4062C36.6085 25.4828 36.5528 25.5731 36.5167 25.6718C36.4805 25.7704 36.4647 25.8753 36.4701 25.9802C36.4647 26.0856 36.4805 26.191 36.5165 26.2902C36.5526 26.3894 36.6081 26.4804 36.6799 26.5577C36.7517 26.6351 36.8382 26.6973 36.9344 26.7407Z" fill="#8C7343"/>
<path d="M40.26 27.2202H40.76V25.1902H41.54V24.7302H39.48V25.1902H40.26V27.2202Z" fill="#8C7343"/>
<path d="M42.97 24.7302H43.47V27.2202H42.97V24.7302Z" fill="#8C7343"/>
<path d="M47.1 26.0002L47.1002 26.0052L47.1 26.0102V26.0002Z" fill="#8C7343"/>
<path fill-rule="evenodd" clip-rule="evenodd" d="M46.3 24.6902C46.1285 24.6902 45.9586 24.7241 45.8002 24.7901C45.6419 24.8561 45.4981 24.9527 45.3773 25.0745C45.2564 25.1963 45.1609 25.3408 45.0961 25.4996C45.0314 25.6585 44.9987 25.8286 45 26.0002C44.9986 26.1734 45.0323 26.3451 45.0991 26.505C45.1659 26.6648 45.2645 26.8094 45.3888 26.93C45.5132 27.0506 45.6607 27.1447 45.8225 27.2066C45.9843 27.2685 46.157 27.297 46.33 27.2902C46.6731 27.2902 47.0023 27.1546 47.2458 26.913C47.4893 26.6713 47.6274 26.3432 47.63 26.0002C47.6343 25.8253 47.6026 25.6514 47.537 25.4892C47.4714 25.3271 47.3733 25.18 47.2486 25.0573C47.124 24.9345 46.9755 24.8386 46.8124 24.7755C46.6492 24.7123 46.4749 24.6833 46.3 24.6902ZM47.1002 26.0052C47.1035 26.1111 47.0858 26.2166 47.048 26.3156C47.0096 26.4161 46.9513 26.5079 46.8766 26.5854C46.8019 26.6629 46.7124 26.7245 46.6133 26.7666C46.5142 26.8086 46.4077 26.8303 46.3 26.8302C46.0843 26.825 45.8793 26.7349 45.7296 26.5795C45.5798 26.4241 45.4974 26.216 45.5 26.0002C45.496 25.8931 45.5137 25.7863 45.5522 25.6863C45.5907 25.5863 45.6492 25.4952 45.724 25.4185C45.7988 25.3417 45.8885 25.2811 45.9875 25.2401C46.0866 25.1992 46.1929 25.1788 46.3 25.1802C46.4077 25.1801 46.5142 25.2018 46.6133 25.2438C46.7124 25.2859 46.8019 25.3475 46.8766 25.425C46.9513 25.5025 47.0096 25.5943 47.048 25.6948C47.0858 25.7938 47.1035 25.8993 47.1002 26.0052Z" fill="#8C7343"/>
<path d="M49.58 24.7302L50.81 26.3602V24.7302H51.31V27.2202H50.88L49.6 25.5502V27.2202H49.1V24.7302H49.58Z" fill="#8C7343"/>
</svg>
