<svg width="37" height="36" viewBox="0 0 37 36" fill="none" xmlns="http://www.w3.org/2000/svg">
<path d="M30.8434 4.5H6.156C5.74996 4.5 5.36054 4.65695 5.07342 4.93631C4.7863 5.21567 4.625 5.59457 4.625 5.98966V30.0103C4.625 30.4054 4.7863 30.7843 5.07342 31.0637C5.36054 31.3431 5.74996 31.5 6.156 31.5H19.4566V21.0584H15.8444V16.9712H19.4566V13.964C19.4566 10.4772 21.6478 8.57793 24.8438 8.57793C25.9208 8.57565 26.9972 8.62848 28.0685 8.73621V12.3812H25.8677C24.1262 12.3812 23.7865 13.1819 23.7865 14.3643V16.9666H27.9489L27.4082 21.0538H23.7625V31.5H30.8434C31.2495 31.5 31.6389 31.3431 31.926 31.0637C32.2131 30.7843 32.3744 30.4054 32.3744 30.0103V5.98966C32.3744 5.59457 32.2131 5.21567 31.926 4.93631C31.6389 4.65695 31.2495 4.5 30.8434 4.5V4.5Z" fill="#8C7343"/>
</svg>
