<svg width="70" height="40" viewBox="0 0 70 40" fill="none" xmlns="http://www.w3.org/2000/svg">
<path fill-rule="evenodd" clip-rule="evenodd" d="M16.7612 15H8V15.3857H9.10204C9.32245 15.3857 9.48775 15.4959 9.48775 15.7714V24.4776C9.48775 24.7531 9.37755 24.8633 9.10204 24.8633H8V25.249H12.9041V24.8633H11.3061V20.2347H12.4633C12.7388 20.2347 13.0143 20.2898 13.2347 20.4C13.4551 20.5102 13.6755 20.6204 13.8408 20.7857C14.0061 20.951 14.1714 21.1714 14.2265 21.3918C14.3367 21.6122 14.3918 21.8878 14.3918 22.1633H14.7224V18.0306H14.3918C14.3918 18.3061 14.3367 18.5816 14.2265 18.802C14.1163 19.0224 14.0061 19.2429 13.8408 19.4082C13.6755 19.5735 13.4551 19.6837 13.2347 19.7939C13.0143 19.9041 12.7388 19.9592 12.4633 19.9592H11.3061V15.4408H14.2816C14.6673 15.4408 14.998 15.4959 15.2735 15.6061C15.549 15.7163 15.7694 15.8816 15.9347 16.102C16.1 16.3224 16.2653 16.5429 16.3204 16.8184C16.4306 17.0939 16.4306 17.3694 16.4306 17.6449H16.7612V15ZM22.051 15H21.3898L17.7531 24.4224C17.698 24.5327 17.6429 24.6429 17.5878 24.698C17.5327 24.7531 17.4776 24.8082 17.3674 24.8082H16.4306V25.249H19.351V24.8633H18.1388L19.5164 21.1714H22.6572L24.0898 24.4776V24.6429C24.0898 24.8082 23.9796 24.8633 23.7041 24.8633H22.7123V25.249H27.451V24.8633H26.2939L22.051 15ZM19.6817 20.7857L21.0041 17.3143L22.4919 20.7857H19.6817ZM34.2837 24.8633C35.1653 24.8633 35.7714 24.5878 36.2123 24.0918C36.598 23.5959 36.8184 22.9347 36.8184 22.1082H37.2041V25.249H28.3327V24.9735H29.4347C29.7102 24.9735 29.8204 24.8633 29.8204 24.5878V15.8816C29.8204 15.6061 29.6551 15.4959 29.4347 15.4959H28.3327V15.1102H36.9286V17.5898H36.598C36.598 16.9286 36.4327 16.4327 36.047 16.0469C35.6612 15.6612 35.1653 15.4959 34.449 15.4959H31.5837V20.0143H32.7408C33.0163 20.0143 33.2918 19.9592 33.5123 19.849C33.7327 19.7388 33.9531 19.6286 34.1184 19.4633C34.2837 19.298 34.3939 19.0776 34.5041 18.8572C34.6143 18.6368 34.6694 18.3612 34.6694 18.0857H35V22.2184H34.7245C34.7245 21.9429 34.6694 21.6673 34.5592 21.4469C34.5041 21.2265 34.3388 21.0061 34.1735 20.8408C34.0082 20.6755 33.7878 20.5653 33.5674 20.4551C33.347 20.3449 33.0714 20.2898 32.7959 20.2898H31.6388V24.8633H34.2837ZM46.9571 15.3857H48.1143C48.3347 15.3857 48.5 15.4959 48.5 15.7714V22.3837L42.4388 15H39.4633V15.3857H40.4551C40.6755 15.3857 40.8408 15.4959 40.8408 15.7714V24.4776C40.8408 24.7531 40.7306 24.8633 40.4551 24.8633H39.4633V25.249H42.6592V24.8633H41.2816V16.4327L48.3347 25.249H48.9408V15.3857H50.2632V15.0551H46.9571V15.3857ZM56.6 15.0551L60.8429 24.8633H62V25.249H57.2612V24.8633H58.2531C58.5286 24.8633 58.6388 24.8082 58.6388 24.6429V24.4775L57.2061 21.1714H54.0653L52.6878 24.8633H53.9V25.249H50.9796V24.8633H51.9714C52.0816 24.8633 52.1367 24.8082 52.1918 24.7531C52.2469 24.698 52.302 24.5878 52.3571 24.4775L55.9388 15.0551H56.6ZM55.5531 17.3143L54.2306 20.7857H57.0408L55.5531 17.3143Z" fill="#8C7343"/>
</svg>
