<svg width="100" height="58" viewBox="0 0 100 58" fill="none" xmlns="http://www.w3.org/2000/svg">
<path fill-rule="evenodd" clip-rule="evenodd" d="M37.4643 19.9762C38.8566 18.7812 40.6171 18.1186 42.4405 18.1033L42.4524 18.1153C47.4405 18.1153 46.85 22.6224 42.4524 22.6224C40.8201 22.6224 38.6701 21.6455 37.6416 21.1782C37.4968 21.1124 37.3743 21.0568 37.2786 21.0153C35.5143 22.6248 33.5643 26.622 32.7857 28.5553C33.1136 28.6344 33.4488 28.6782 33.7857 28.6858C34.3983 28.6858 34.8202 28.244 35.2281 27.8169C35.6097 27.4172 35.9791 27.0304 36.4809 27.0304C37.0119 27.0304 37.3286 27.7772 36.3214 28.2194C35.8278 28.4227 35.3769 28.7196 34.9928 29.0943C34.5652 29.5586 34.2901 29.9952 34.0909 30.3114C33.9086 30.6007 33.79 30.7891 33.6762 30.8053C33.3428 30.8536 33.9857 29.5679 34.2238 29.1982C33.8905 29.2924 33.0095 29.1643 32.5571 29.0846C31.2952 32.0063 29.7976 35.0127 27.3809 37.3013C25.1833 39.3917 22.65 41.0833 18.7024 41.0833C13.7905 41.0833 11.4286 37.7822 11.4286 34.4568C11.4286 31.0687 13.8452 27.6491 18.5 27.6394C22.2167 27.6394 23.8 30.0658 23.7714 32.5573C23.7381 35.1818 21.919 37.874 18.9143 37.874C14.2143 37.874 14.7167 32.1127 16.8595 32.1127C17.0877 32.1127 17.0445 32.1874 16.9073 32.4245C16.6937 32.7937 16.2524 33.5565 16.2524 35.0441C16.2524 36.2331 16.669 37.4608 18.6333 37.4608C20.3547 37.4463 22.4428 35.8368 22.4428 32.77C22.4428 25.2904 12.9047 27.2914 12.9047 34.5873C12.9047 38.9083 15.6476 40.6725 18.35 40.6725C23.2357 40.6725 27.6333 36.5086 30.9881 29.725C33.4405 24.7805 35.1357 22.4363 36.7167 20.6963C36.159 20.4466 35.5537 20.1424 34.9134 19.8206C32.6914 18.7041 30.0483 17.3758 27.5143 17.3758C21.5547 17.3758 19.3476 27.0522 24.75 27.0256C27.0928 27.0135 28.9976 24.9569 28.9976 23.9371C28.9928 23.838 29.119 23.8283 29.2047 23.8888C29.353 24.0752 29.4314 24.309 29.4262 24.5485C29.4381 24.8772 28.8952 27.5355 25.2286 27.5355C22.7547 27.5355 20.5309 25.7713 20.5309 23.1299C20.5309 19.9303 23.4881 16.9167 28.15 16.9167C31.2806 16.9167 34.2268 18.3853 36.2004 19.3691C36.6839 19.6101 37.1091 19.8221 37.4643 19.9762ZM42.6952 21.7983C41.2278 21.7983 39.7407 21.0852 38.6631 20.5684C38.4401 20.4615 38.2341 20.3627 38.05 20.2807C39.2238 19.2608 40.8143 18.4996 42.3643 18.4948C46.0619 18.4948 46.2167 21.7983 42.6952 21.7983ZM20.6452 39.3023C23.5881 37.9924 28.0595 30.8439 28.9595 28.8719C28.4309 28.8719 26.019 28.9541 26.019 31.2354C25.6238 31.2354 25.2381 30.7521 25.2595 30.2059C25.2595 29.2973 26.1762 28.3668 29.2619 28.3668C30.5619 26.2112 32.5952 23.3571 33.9571 22.3928C34.5309 21.9917 34.5428 22.0811 34.1952 22.4943C33.7595 23.1033 33.1238 24.0386 32.4405 25.2058C31.8672 26.1549 31.2786 27.2807 30.6455 28.4916C30.0535 29.6242 29.4224 30.8313 28.7286 32.0378C27.5005 34.0908 25.9747 35.9442 24.2024 37.5357C22.7357 38.744 21.2524 39.5125 20.35 39.7107C19.9524 39.7928 20.0095 39.5101 20.6452 39.2974L20.6452 39.3023ZM45.419 29.5051C45.4203 29.0219 45.0355 28.6292 44.5595 28.6278C44.0835 28.6265 43.6965 29.0171 43.6952 29.5003C43.6939 29.9834 44.0787 30.3762 44.5547 30.3775L44.5571 30.3775C45.0318 30.3788 45.4177 29.9893 45.419 29.5075L45.419 29.5051ZM64.3762 37.4632C64.8976 37.8233 66.1928 36.8348 67.1857 35.3365C68.1809 33.8382 68.6071 32.2408 68.0857 31.8783C67.5643 31.5158 66.2928 32.5235 65.2976 34.0267C64.3024 35.5298 63.8547 37.1031 64.3762 37.4632ZM33.2571 37.4148C31.3381 37.4148 34.8476 31.9677 36.4547 31.9677C38.469 31.9677 35.0262 37.4148 33.2571 37.4148ZM84.6905 29.0967H88.5714V29.3988L84.4143 29.5365C84.4143 29.5365 82.9881 31.6052 81.7238 33.5578C81.5547 33.7995 80.1476 36.1074 79.6857 36.9412C78.919 38.3235 78.9833 39.1645 80.2976 39.1645C80.3313 39.1645 80.3749 39.1615 80.4229 39.1582C80.6864 39.1402 81.0816 39.1132 80.6928 39.5222C80.4333 39.7953 79.8809 39.8871 79.5238 39.8871C76.4166 39.8871 78.0262 37.2602 79.3428 35.38C79.2956 35.4318 79.2333 35.5049 79.1574 35.5939C78.5676 36.2857 77.162 37.9344 75.719 37.9344C74.8833 37.9344 74.4071 37.4076 74.4071 36.7454C74.4071 35.7982 75.287 34.588 75.9995 33.6081C76.7248 32.6106 77.2766 31.8517 76.55 31.8517C76.3214 31.8517 75.9619 32.0595 75.5262 32.335C74.5181 32.9897 73.6454 33.8377 72.9571 34.8314C71.8786 36.2959 70.8476 37.8619 70.8476 37.8619H69.2452L72.1833 33.3742C71.4714 34.0049 69.9714 34.4762 69.2571 33.5796C69.1095 35.2833 66.7857 38.0649 64.9143 38.0649C63.3143 38.0649 62.9095 36.4288 63.3309 35.1649C62.1167 36.7382 60.9 37.8788 59.7238 37.8788C59.6901 37.8791 59.6564 37.878 59.6228 37.8755C58.95 37.8247 58.4452 37.2301 58.4952 36.5473C58.4952 35.7953 59.2174 34.819 59.8663 33.9418C60.3956 33.2262 60.8762 32.5765 60.8762 32.1683C60.8762 32.0378 60.8214 31.8348 60.6071 31.8348C60.1595 31.8348 59.6333 32.1151 59.0405 32.5984C57.9429 33.5511 57.4595 34.2993 56.6762 35.5119C56.5912 35.6434 56.5027 35.7804 56.4095 35.9238C56.2756 36.1317 56.1886 36.2726 56.1008 36.4149C55.9233 36.7025 55.7426 36.9952 55.1643 37.8571H53.5571C53.5571 37.8571 56.4762 33.4008 56.7309 33.0068C56.7399 32.993 56.7495 32.9785 56.7595 32.9632C57.0027 32.5922 57.5054 31.8251 56.8833 31.8251C55.8833 31.8251 54.1452 33.379 52.7167 35.3341C52.1619 36.1654 51.05 37.8571 51.05 37.8571H49.4476L52.3809 33.3742C51.9268 33.584 51.4402 33.7124 50.9428 33.7536C50.4738 33.7512 50.0381 33.5216 50.0381 32.8546C50.0566 32.3308 50.4057 31.8789 50.9024 31.7357C49.4928 31.7961 47.5309 33.6787 45.6095 36.5907C45.1047 37.3568 44.7619 37.8861 44.7619 37.8861H43.1619C43.1619 37.8861 43.8857 36.8179 44.7167 35.5516C44.7038 35.563 44.6684 35.6005 44.6139 35.6583C44.1718 36.1268 42.4728 37.9272 41.3833 37.9272C40.3357 37.9272 40.0309 36.7768 40.2119 35.8102C40.2119 35.8102 38.7571 37.9175 37.3928 37.9175C36.3452 37.9175 35.9381 36.8518 36.0238 35.9842C36.0178 35.972 36.0119 35.9751 36.0041 35.9791C35.9995 35.9815 35.9943 35.9842 35.9881 35.9842C35.8 36.3201 34.6095 37.9344 33.1809 37.9175C29.9167 37.9175 32.3286 31.494 36.1071 31.494C37.1 31.494 37.5928 31.8928 37.5928 32.741C37.8524 32.3326 38.3809 31.5327 38.3809 31.5327H39.9857C39.9857 31.5327 38.3667 33.9928 37.5381 35.2833C36.9524 36.1872 36.5667 37.4583 37.3809 37.4583C38.6888 37.4583 39.9807 35.4519 41.0263 33.8278C41.0486 33.7932 41.0708 33.7588 41.0928 33.7246C41.8786 32.5114 42.5595 31.5013 42.5595 31.5013H44.1666C44.1666 31.5013 42.6524 33.8188 41.5952 35.4573C40.7547 36.6415 40.8381 37.4463 41.3928 37.4463C42.5143 37.4463 45.0857 34.8338 46.3928 32.8038C46.8952 32.0233 47.2381 31.5037 47.2381 31.5037H48.8357L47.7024 33.1953L47.7167 33.2123C48.9071 32.045 50.1333 31.3683 50.8119 31.3683C52.2286 31.3683 52.1024 32.8836 51.3881 33.3669L51.4065 33.3631C51.7732 33.2868 52.5217 33.1312 52.9547 32.4897L53.5952 31.5037H55.2381L54.1976 33.0721C55.469 31.7961 56.4809 31.465 57.1357 31.465C58.7547 31.465 58.0547 33.0769 58.0405 33.0769C58.2571 32.7869 59.4166 31.465 60.7952 31.465C61.6285 31.465 61.9714 31.8613 61.9714 32.5283C61.9793 33.2627 61.4591 34.0993 60.6829 35.3477C60.5268 35.5987 60.3603 35.8664 60.1857 36.1533C60.168 36.1825 60.1495 36.2128 60.1304 36.2439C59.8415 36.7161 59.4303 37.3883 59.9976 37.3883C61.3753 37.3883 63.7871 33.9418 64.1541 33.4173C64.1797 33.3808 64.1953 33.3584 64.2 33.3524C65.1547 32.103 66.2905 31.2789 67.7571 31.2789C68.5857 31.2789 69.0809 31.9459 69.269 32.6468C70.0166 34.9039 72.3381 33.089 73.0786 32.0039C73.1439 31.9064 73.207 31.8082 73.2679 31.7134C73.3157 31.6391 73.3621 31.5669 73.4071 31.4988H75.0143L73.919 33.1567C73.9417 33.1371 73.9787 33.1015 74.0285 33.0537C74.4331 32.6647 75.6813 31.465 76.9238 31.465C77.8071 31.465 77.9762 32.1151 77.9762 32.6371C77.9762 33.4466 77.3385 34.4254 76.77 35.2982C76.512 35.6942 76.2682 36.0684 76.1047 36.395C75.5809 37.4414 76.0309 37.7363 77.1428 36.975C78.5571 36.0083 79.8762 34.3167 81.4119 32.0909C81.9595 31.2983 82.6262 30.3316 83.1333 29.5558C81.5643 29.5776 68.7333 29.8652 68.7333 29.8652L68.019 29.1402L83.4381 29.1015C83.4381 29.1015 84.8333 26.7138 85.9928 26.7138C86.219 26.7138 86.1786 26.8298 86.0952 26.9555L84.6905 29.0967Z" fill="#8C7343"/>
</svg>
