<svg width="100" height="58" viewBox="0 0 100 58" fill="none" xmlns="http://www.w3.org/2000/svg">
<path fill-rule="evenodd" clip-rule="evenodd" d="M67.5524 22.9356C67.5524 22.8643 67.5758 22.8405 67.646 22.8405H68.7222V20.3948C68.7222 20.3236 68.7456 20.2998 68.8157 20.2998H72.5119C72.5821 20.2998 72.6055 20.3236 72.6055 20.3948V22.8405H75.0853C75.1555 22.8405 75.1789 22.8643 75.1789 22.9356V25.8324C75.1789 25.9037 75.1555 25.9275 75.0853 25.9275H72.6055V29.216C72.6055 29.976 72.9564 30.427 73.6584 30.427C73.939 30.427 74.3249 30.3202 74.629 30.1777C74.6876 30.1539 74.7108 30.1539 74.7342 30.2134L75.7052 32.8965C75.7286 32.9677 75.7052 33.0034 75.6468 33.027C74.594 33.4189 73.705 33.597 72.8278 33.597C69.9503 33.597 68.7222 31.5549 68.7222 29.216V25.9275H67.646C67.5758 25.9275 67.5524 25.9037 67.5524 25.8324V22.9356ZM32.0525 22.8405H35.7487C35.8189 22.8405 35.8423 22.8643 35.8423 22.9356V32.2199C35.8423 36.0071 33.4794 38.1085 29.7129 38.1085C28.7071 38.1085 27.6192 37.9424 26.625 37.5623C26.5314 37.5267 26.5314 37.4674 26.5548 37.3962L27.5958 34.5348C27.6192 34.4755 27.631 34.4638 27.6894 34.4875C28.403 34.7249 28.9877 34.8079 29.5493 34.8079C31.14 34.8079 31.9588 34.1314 31.9588 32.7421V32.1249C31.2103 32.7659 30.2276 33.0745 29.2218 33.0745C26.4145 33.0745 24.2856 30.8899 24.2856 27.8745C24.2856 24.8588 26.4145 22.6744 29.2218 22.6744C30.2276 22.6744 31.2337 22.9829 31.9588 23.6003V22.9356C31.9588 22.8643 31.9822 22.8405 32.0525 22.8405ZM37.6162 22.9356V33.3358C37.6162 33.4069 37.6396 33.4307 37.71 33.4307H41.406C41.4763 33.4307 41.4997 33.4069 41.4997 33.3358V28.9429C41.4997 27.257 42.5407 26.3074 44.6578 26.3074C44.728 26.3074 44.7514 26.2836 44.7514 26.2243V22.7693C44.7514 22.6982 44.728 22.6744 44.6696 22.6744C43.2191 22.6744 42.026 23.363 41.4997 24.4077V22.9356C41.4997 22.8643 41.4763 22.8405 41.406 22.8405H37.71C37.6396 22.8405 37.6162 22.8643 37.6162 22.9356ZM54.2922 32.5523C54.3274 32.6116 54.3274 32.6471 54.269 32.6828C53.2746 33.2883 51.8125 33.597 50.5493 33.597C47.3676 33.597 44.8644 31.5074 44.8644 28.0883C44.8644 25.0964 47.1336 22.6744 50.4321 22.6744C53.4266 22.6744 55.7194 24.8588 55.7194 28.5155V29.2042C55.7194 29.2753 55.696 29.2991 55.6257 29.2991H48.5021C48.8882 30.2252 49.7772 30.6052 51.0405 30.6052C51.5784 30.6052 52.1517 30.4865 52.5494 30.2964C52.6196 30.2607 52.6781 30.2607 52.7249 30.3322L54.2922 32.5523ZM65.6579 32.6828C65.7163 32.6471 65.7163 32.5998 65.6813 32.5523L64.1137 30.3322C64.0669 30.2607 64.0085 30.2607 63.9383 30.2964C63.5406 30.4865 62.9675 30.6052 62.4293 30.6052C61.166 30.6052 60.2772 30.2252 59.8911 29.2991H67.0148C67.0848 29.2991 67.1082 29.2753 67.1082 29.2042V28.5155C67.1082 24.8588 64.8155 22.6744 61.8212 22.6744C58.5226 22.6744 56.2535 25.0964 56.2535 28.0883C56.2535 31.5074 58.7567 33.597 61.9382 33.597C63.2015 33.597 64.6636 33.2883 65.6579 32.6828ZM52.2686 26.9246C52.1633 26.2123 51.5668 25.4288 50.4087 25.4288C49.2977 25.4288 48.6777 25.9867 48.4203 26.9246H52.2686ZM61.7978 25.4288C62.9557 25.4288 63.5524 26.2123 63.6576 26.9246H59.8093C60.0668 25.9867 60.6867 25.4288 61.7978 25.4288ZM27.8649 27.8745C27.8649 29.1805 28.7305 30.1066 29.947 30.1066C31.14 30.1066 32.029 29.2042 32.029 27.8745C32.029 26.5447 31.14 25.6424 29.947 25.6424C28.7305 25.6424 27.8649 26.5685 27.8649 27.8745Z" fill="#8C7343"/>
</svg>
