<svg width="70" height="40" viewBox="0 0 70 40" fill="none" xmlns="http://www.w3.org/2000/svg">
<path fill-rule="evenodd" clip-rule="evenodd" d="M42.2698 16.0645H39.9654V23.716H42.2698V16.0645ZM10.3705 18.9034V16.0663H8.0625V23.7168H10.3705V21.1254C10.3705 19.644 11.2656 18.9034 12.1625 18.9034C13.0611 18.9034 13.5719 19.3974 13.5719 20.6304V23.7168H15.8799V20.2627C15.8799 18.6577 14.983 17.4229 12.9312 17.4229C11.2656 17.4229 10.3705 18.9034 10.3705 18.9034ZM34.8405 22.8524C35.7373 22.8524 36.2498 22.4821 36.3779 21.9898H38.8123C38.0435 23.716 36.5061 23.9625 34.9685 23.9625C32.2797 23.9625 30.7405 22.6058 30.7405 20.755C30.7405 18.5348 32.6623 17.4229 34.8405 17.4229C37.6574 17.4229 38.9404 18.9034 38.9404 21.2482H33.1748C33.1748 22.2355 34.0717 22.8524 34.8405 22.8524ZM34.8405 18.6568C33.8154 18.6568 33.3029 19.3983 33.1748 20.1381H36.5061C36.5061 19.028 35.7373 18.6568 34.8405 18.6568ZM22.7968 20.755C22.7968 19.3983 22.0298 18.6568 20.8749 18.6568C19.8499 18.6568 18.9548 19.3983 18.9548 20.755C18.9548 21.9898 19.8499 22.7295 20.8749 22.7295C22.0298 22.7295 22.7968 21.9898 22.7968 20.755ZM20.8749 23.9642C24.2079 23.9642 25.103 22.1117 25.103 20.755C25.103 19.2746 24.2079 17.4229 20.8749 17.4229C17.6735 17.4229 16.7767 19.2746 16.7767 20.755C16.7767 22.1117 17.6735 23.9642 20.8749 23.9642ZM26.128 17.6704V16.1891H28.5623V17.6704H29.7155V19.028H28.5623V21.1254C28.5623 21.9898 28.5623 22.4812 29.5874 22.4812C29.8436 22.4812 30.228 22.4812 30.6124 22.3592V23.8397C30.4533 23.8397 30.2722 23.861 30.06 23.886C29.7595 23.9215 29.3965 23.9642 28.945 23.9642C27.153 23.9642 26.128 23.2219 26.128 21.7423V19.028H25.4874V17.6704H26.128ZM54.9524 17.1763V16.0663H62.001V23.7168H57.3885V17.1763H54.9524ZM49.7028 17.1763H53.8027V16.0663H47.1386C45.0903 16.0663 43.5511 17.5466 43.5511 19.3974V23.7168H48.1653V20.5084H53.8027V19.3974H48.1653V18.7805C48.1653 17.9179 48.9323 17.1763 49.7028 17.1763Z" fill="#8C7343"/>
</svg>
