<svg width="100" height="58" viewBox="0 0 100 58" fill="none" xmlns="http://www.w3.org/2000/svg">
<path fill-rule="evenodd" clip-rule="evenodd" d="M28.3213 21.75H29.557V36.25H28.3213V31.4737H21.2691V36.25H20.0332V21.75H21.2691V30.2366H28.3213V21.75ZM45.7074 21.75H47.0173L42.126 31.7079V36.25H40.8552V31.7079L35.9062 21.75H37.2927L41.5096 30.3011L45.7074 21.75ZM62.9083 29.077C62.9083 32.5579 60.9486 35.0053 56.8451 35.0053H54.824V23.1488H56.8451C60.9486 23.1488 62.9083 25.5958 62.9083 29.077ZM53.4967 21.9037H56.9675C61.561 21.9037 64.2969 24.8367 64.2969 29.077C64.2969 33.3175 61.5816 36.2499 56.9675 36.2499H53.4967V21.9037ZM78.4648 21.9037H70.0945V36.2499H78.7506V35.0262H71.4212V31.503H77.7093V30.3003H71.4212V23.1274H78.4648V21.9037Z" fill="#8C7343"/>
</svg>
