<svg width="70" height="40" viewBox="0 0 70 40" fill="none" xmlns="http://www.w3.org/2000/svg">
<path fill-rule="evenodd" clip-rule="evenodd" d="M26.901 12.5947C26.5989 12.5947 26.4778 12.4378 26.4778 12.1478V11H27.7825C28.0849 11 28.2053 11.1571 28.2053 11.4475V12.5947H26.901ZM26.901 20.4483C26.5989 20.4483 26.4778 20.291 26.4778 20.0011V13.5977H27.7825C28.0849 13.5977 28.2053 13.7548 28.2053 14.0444V20.4483H26.901ZM32.1201 19.2641C31.8543 19.2641 31.5641 19.2157 31.2744 19.1189V15.4823C31.6731 15.0836 32.0596 14.83 32.5548 14.83C33.3041 14.83 33.6907 15.5548 33.6907 17.0892C33.6907 18.5756 33.2194 19.2641 32.1201 19.2641ZM29.5467 11H30.8512C31.1534 11 31.2744 11.1571 31.2744 11.4475V14.1653C31.7454 13.7063 32.3859 13.4164 33.0262 13.4164C34.9351 13.4164 35.5148 14.9264 35.5148 16.8111C35.5148 19.0828 34.5608 20.5448 32.0355 20.5448C31.3468 20.5448 30.5375 20.4364 29.9817 20.267C29.6677 20.1703 29.5467 20.0977 29.5467 19.7959V11ZM36.5056 20.0011C36.5056 20.291 36.6269 20.4483 36.9284 20.4483H38.2333V14.0444C38.2333 13.7548 38.1129 13.5977 37.8103 13.5977H36.5056V20.0011ZM36.9284 12.5947C36.6269 12.5947 36.5056 12.4378 36.5056 12.1478V11H37.8103C38.1129 11 38.2333 11.1571 38.2333 11.4475V12.5947H36.9284ZM41.3868 20.5448C42.8483 20.5448 43.8878 19.7593 43.8878 18.4789C43.8878 17.0197 42.773 16.5331 41.9173 16.1595C41.3843 15.9268 40.9519 15.738 40.9519 15.3854C40.9519 15.0595 41.1211 14.8181 41.9182 14.8181C42.4017 14.8181 43.0058 14.9264 43.525 15.0836V14.2138C43.525 14.0083 43.4166 13.8148 43.2231 13.7548C42.7763 13.6218 42.2808 13.5129 41.6045 13.5129C39.9849 13.5129 39.2602 14.4072 39.2602 15.4823C39.2602 16.8134 40.2748 17.268 41.1087 17.6417C41.6904 17.9024 42.1842 18.1236 42.1842 18.5756C42.1842 19.0103 41.8701 19.2403 41.0851 19.2403C40.6136 19.2403 39.8887 19.1189 39.3327 18.9742V19.844C39.3327 20.0497 39.4415 20.2309 39.6223 20.3032C40.1065 20.4605 40.7104 20.5448 41.3868 20.5448ZM23.0118 26.8797C22.973 27.0883 23.0267 27.1133 23.2194 27.1549C23.5059 27.2302 23.8572 27.2717 24.2162 27.2717C25.8855 27.2717 26.6443 26.2866 26.9405 24.6928C27.2208 23.182 26.8499 22.3474 25.6729 22.3474C25.239 22.3474 24.7612 22.539 24.3499 22.8646L24.7174 20.8866C24.7453 20.7363 24.6974 20.6777 24.5389 20.6777H24.1637L23.0118 26.8797ZM25.4632 22.8481C25.004 22.8481 24.6498 23.0486 24.2585 23.3572L23.6386 26.6963C23.8515 26.7627 24.114 26.788 24.3395 26.788C25.4161 26.788 26.0155 26.2119 26.2853 24.7596C26.5486 23.3407 26.1809 22.8481 25.4632 22.8481ZM30.6058 27.2052L31.4459 22.6811C31.4735 22.5311 31.426 22.4726 31.2676 22.4726H30.892L30.1773 26.3203C29.7745 26.6046 29.3802 26.8378 28.9463 26.8378C28.3036 26.8378 28.0161 26.454 28.1694 25.6276L28.7166 22.6811C28.7443 22.5311 28.705 22.4726 28.5466 22.4726H28.1625L27.5766 25.6276C27.4854 26.1201 27.4808 26.5037 27.6519 26.7959C27.8592 27.1634 28.2207 27.3303 28.7212 27.3303C29.1719 27.3303 29.6432 27.13 30.086 26.8132H30.1026L30.0686 26.9966C30.0409 27.1469 30.0882 27.2052 30.2468 27.2052H30.6058ZM36.1033 20.8866L34.93 27.2052H34.5544C34.3959 27.2052 34.3483 27.147 34.3761 26.9966L34.4103 26.8132C33.991 27.1384 33.5211 27.3303 33.0873 27.3303C31.9103 27.3303 31.5395 26.4956 31.82 24.9849C32.1161 23.3906 32.8747 22.4059 34.5441 22.4059C34.7779 22.4059 35 22.4224 35.2177 22.4643L35.5492 20.6777H35.9251C36.0837 20.6777 36.1314 20.7363 36.1033 20.8866ZM34.5017 26.3203C34.1103 26.6292 33.7546 26.8378 33.2954 26.8378C32.5778 26.8378 32.2115 26.3371 32.4752 24.9181C32.7448 23.4656 33.3442 22.8898 34.4211 22.8898C34.6462 22.8898 34.9087 22.9149 35.1216 22.9818L34.5017 26.3203ZM37.1343 29C36.7588 29 36.4177 28.9495 36.176 28.8578C36.0502 28.8162 35.9861 28.7576 36.012 28.6158L36.0665 28.3234C36.412 28.4403 36.7919 28.5073 37.1425 28.5073C38.0856 28.5073 38.4939 28.1065 38.6953 27.0216L38.7575 26.6875H38.749C38.3298 27.0132 37.8516 27.2052 37.4176 27.2052C36.2406 27.2052 35.8684 26.3789 36.1411 24.9097C36.4233 23.3906 37.1819 22.4059 38.8514 22.4059C39.2021 22.4059 39.5617 22.4473 39.8482 22.5227C40.032 22.5642 40.0941 22.5895 40.0555 22.798L39.2698 27.0297C39.016 28.3989 38.3534 29 37.1343 29ZM38.8322 26.195C38.4411 26.5037 38.0849 26.7126 37.6262 26.7126C36.9083 26.7126 36.5408 26.2205 36.7963 24.8429C37.0535 23.4576 37.6513 22.8898 38.7281 22.8898C38.9539 22.8898 39.216 22.9149 39.429 22.9818L38.8322 26.195ZM42.2049 26.7794C42.6476 26.7794 43.0449 26.7044 43.4325 26.5959L43.3784 26.8878C43.3517 27.0297 43.2643 27.0965 43.1329 27.13C42.7822 27.2217 42.4804 27.2717 42.0133 27.2717C40.711 27.2717 40.1448 26.546 40.4607 24.8429C40.7615 23.2234 41.5836 22.3474 42.7523 22.3474C43.8958 22.3474 44.3005 23.2234 44.045 24.6006C43.997 24.8597 43.888 24.9514 43.6211 24.9514H41.0835C40.857 26.2617 41.1947 26.7794 42.2049 26.7794ZM41.1705 24.4841C41.4585 23.2904 41.9743 22.8065 42.6671 22.8065C43.41 22.8065 43.6695 23.432 43.4741 24.4841H41.1705ZM45.6372 26.7713C45.8375 26.7713 46.0512 26.746 46.2622 26.6875L46.2127 26.9547C46.183 27.1133 46.1039 27.18 45.9557 27.2133C45.7914 27.2468 45.5862 27.2717 45.4024 27.2717C44.5841 27.2717 44.3477 26.8378 44.5227 25.8946L45.3642 21.3623H45.7398C45.8987 21.3623 45.9463 21.4209 45.9183 21.5712L45.7511 22.4726H46.8275C46.9778 22.4726 47.0255 22.5311 46.9961 22.6894L46.9417 22.9818H45.6565L45.1171 25.8865C45.0024 26.5037 45.1534 26.7713 45.6372 26.7713Z" fill="#8C7343"/>
</svg>
