<svg width="100" height="58" viewBox="0 0 100 58" fill="none" xmlns="http://www.w3.org/2000/svg">
<path fill-rule="evenodd" clip-rule="evenodd" d="M35.0454 23.207C34.503 23.207 34.2856 22.9211 34.2856 22.3922V20.2998H36.6293C37.1718 20.2998 37.3884 20.5864 37.3884 21.1154V23.207H35.0454ZM35.0454 37.5235C34.503 37.5235 34.2856 37.2371 34.2856 36.7087V25.035H36.6293C37.1718 25.035 37.3884 25.3214 37.3884 25.8496V37.5235H35.0454ZM44.4192 35.3651C43.9416 35.3651 43.421 35.2768 42.9004 35.1003V28.4708C43.6162 27.7442 44.3106 27.2817 45.2 27.2817C46.5456 27.2817 47.24 28.6029 47.24 31.4006C47.24 34.1096 46.3937 35.3651 44.4192 35.3651ZM39.7963 20.2998H42.1403C42.6833 20.2998 42.9004 20.5864 42.9004 21.1154V26.0704C43.7465 25.2329 44.8964 24.7049 46.0465 24.7049C49.4746 24.7049 50.5162 27.4576 50.5162 30.8938C50.5162 35.0346 48.8025 37.6998 44.2672 37.6998C43.0305 37.6998 41.5763 37.5016 40.5781 37.1932C40.0143 37.0171 39.7963 36.8841 39.7963 36.3342V20.2998ZM52.2953 36.7087C52.2953 37.2371 52.5131 37.5235 53.0551 37.5235H55.3984V25.8496C55.3984 25.3214 55.1818 25.035 54.6389 25.035H52.2953V36.7087ZM53.0551 23.207C52.5131 23.207 52.2953 22.9211 52.2953 22.3922V20.2998H54.6389C55.1818 20.2998 55.3984 20.5864 55.3984 21.1154V23.207H53.0551ZM61.0621 37.6998C63.6872 37.6998 65.5534 36.268 65.5534 33.9333C65.5534 31.2729 63.5509 30.3859 62.014 29.705C61.0569 29.281 60.2803 28.937 60.2803 28.2945C60.2803 27.6995 60.5846 27.2597 62.0169 27.2597C62.8851 27.2597 63.9701 27.4576 64.9028 27.7442V26.1582C64.9028 25.7842 64.7075 25.4311 64.3605 25.3214C63.5577 25.0787 62.6677 24.8809 61.4525 24.8809C58.5447 24.8809 57.2426 26.5103 57.2426 28.4708C57.2426 30.8976 59.065 31.7264 60.5627 32.4075C61.6073 32.8827 62.494 33.2859 62.494 34.1096C62.494 34.9021 61.9298 35.3212 60.5197 35.3212C59.6734 35.3212 58.3717 35.1003 57.3726 34.8362V36.4221C57.3726 36.7964 57.5686 37.1269 57.8939 37.2591C58.7621 37.5453 59.8468 37.6998 61.0621 37.6998Z" fill="#8C7343"/>
</svg>
