<svg width="70" height="40" viewBox="0 0 70 40" fill="none" xmlns="http://www.w3.org/2000/svg">
<path fill-rule="evenodd" clip-rule="evenodd" d="M27.7295 11.4879V12.7388H26.3075C25.9787 12.7388 25.8466 12.5674 25.8466 12.2515V11H27.2689C27.5979 11 27.7295 11.1716 27.7295 11.4879ZM27.7295 21.2993H26.3075C25.9787 21.2993 25.8466 21.1277 25.8466 20.812V13.8316H27.2689C27.5979 13.8316 27.7295 14.0027 27.7295 14.319V21.2993ZM31.0748 15.8859C31.5095 15.4519 31.9309 15.1751 32.4707 15.1751C33.2875 15.1751 33.7089 15.9653 33.7089 17.6377C33.7089 19.258 33.195 20.0083 31.9966 20.0083C31.707 20.0083 31.3909 19.9557 31.0748 19.8499V15.8859ZM29.6656 21.1014C29.3236 20.9961 29.1917 20.9165 29.1917 20.5879V11H30.6136C30.9432 11 31.0748 11.1716 31.0748 11.4879V14.4507C31.5884 13.9505 32.2866 13.6346 32.9845 13.6346C35.0652 13.6346 35.6975 15.2802 35.6975 17.3351C35.6975 19.8109 34.6572 21.4043 31.9049 21.4043C31.1542 21.4043 30.2718 21.286 29.6656 21.1014ZM38.6604 21.2993V14.319C38.6604 14.0027 38.5289 13.8316 38.1991 13.8316H36.7773V20.812C36.7773 21.1277 36.9091 21.2993 37.2378 21.2993H38.6604ZM38.6604 11.4879V12.7388H37.2378C36.9091 12.7388 36.7773 12.5674 36.7773 12.2515V11H38.1991C38.5289 11 38.6604 11.1716 38.6604 11.4879ZM44.8234 19.1527C44.8234 17.5618 43.6083 17.0312 42.6757 16.624C42.0949 16.3705 41.6237 16.1647 41.6237 15.7805C41.6237 15.4253 41.8079 15.1623 42.6769 15.1623C43.2039 15.1623 43.8621 15.2802 44.428 15.4519V14.5036C44.428 14.2796 44.3103 14.0687 44.0993 14.0027C43.6118 13.8581 43.0723 13.7396 42.3349 13.7396C40.5702 13.7396 39.7797 14.7142 39.7797 15.8859C39.7797 17.337 40.8855 17.8326 41.7943 18.24C42.4283 18.5241 42.9664 18.7653 42.9664 19.258C42.9664 19.7317 42.6243 19.982 41.7686 19.982C41.255 19.982 40.4648 19.8499 39.8587 19.6923V20.6404C39.8587 20.8642 39.9773 21.0616 40.1743 21.1408C40.7021 21.3122 41.3602 21.4043 42.0974 21.4043C43.691 21.4043 44.8234 20.5483 44.8234 19.1527ZM22.3134 28.8279C22.7178 28.9394 23.0817 28.9999 23.6479 28.9999C24.942 28.9999 25.569 28.2723 25.569 27.342C25.569 26.2861 24.7255 25.9511 23.9561 25.6454C23.3109 25.3892 22.7178 25.1536 22.7178 24.531C22.7178 24.0361 23.0009 23.702 23.8905 23.702C24.4164 23.702 24.831 23.793 25.2657 23.9245V23.5807C25.2657 23.409 25.1749 23.3279 25.0128 23.2877C24.6185 23.1764 24.3354 23.1157 23.7692 23.1157C22.5762 23.1157 22 23.7527 22 24.5715C22 25.5984 22.8206 25.9275 23.5797 26.2319C24.2332 26.494 24.8411 26.7378 24.8411 27.3926C24.8411 28.0699 24.4164 28.4137 23.5367 28.4137C23.0212 28.4137 22.5055 28.3226 22.0605 28.191V28.5348C22.0605 28.7069 22.1516 28.788 22.3134 28.8279ZM27.935 28.9193C27.7427 28.9193 27.6721 28.8485 27.6721 28.6663V23.773H26.0038V23.4492C26.0038 23.2672 26.0645 23.1862 26.2464 23.1862H30.0582V23.5102C30.0582 23.702 29.9875 23.773 29.8053 23.773H28.3899V28.9193H27.935ZM31.231 28.5348C31.231 28.7071 31.3221 28.7778 31.4838 28.8279C31.7972 28.9394 32.3131 29 32.8184 29C34.3047 29 34.8506 28.343 34.8506 27.1295V23.4392C34.8506 23.2571 34.7799 23.1862 34.5879 23.1862H34.1326V26.1186C33.7283 26.2094 33.3136 26.26 32.8892 26.26C31.9085 26.26 31.5242 26.068 31.5242 25.1074V23.4392C31.5242 23.2571 31.4535 23.1862 31.2614 23.1862H30.8062V25.1074C30.8062 26.2804 31.1704 26.8565 32.7073 26.8565C33.2332 26.8565 33.7385 26.7859 34.1429 26.7046V27.2407C34.1429 28.1406 33.7283 28.4035 32.6969 28.4035C32.2317 28.4035 31.6759 28.3226 31.231 28.1808V28.5348ZM39.1781 28.555C39.1781 28.7372 39.0973 28.808 38.9255 28.8485C38.4805 28.9598 38.0457 28.9999 37.621 28.9999C36.1754 28.9999 35.9327 28.4237 35.9327 27.2509V23.1862H36.3977C36.59 23.1862 36.6506 23.257 36.6506 23.4392V27.2509C36.6506 28.2112 36.9234 28.4035 37.793 28.4035C38.2784 28.4035 38.7434 28.3226 39.1781 28.2013V28.555ZM43.2728 28.8279C43.4246 28.788 43.5158 28.7071 43.5158 28.5348V28.1808C43.0709 28.3126 42.6056 28.4035 42.0699 28.4035C40.8463 28.4035 40.3208 27.7763 40.3005 26.1894H43.3743C43.6976 26.1894 43.8089 26.0779 43.8089 25.7645C43.8089 24.0963 43.1214 23.035 41.7362 23.035C40.3208 23.035 39.522 24.0963 39.522 26.0578C39.522 28.1204 40.3712 28.9999 41.9485 28.9999C42.5149 28.9999 42.8685 28.9394 43.2728 28.8279ZM40.3005 25.623H43.0909C43.0909 24.3492 42.6359 23.5909 41.7362 23.5909C40.8971 23.5909 40.3813 24.1772 40.3005 25.623ZM44.8504 28.8279C45.2549 28.9394 45.6188 28.9999 46.185 28.9999C47.4792 28.9999 48.1061 28.2723 48.1061 27.342C48.1061 26.2861 47.2626 25.9511 46.4932 25.6454C45.848 25.3892 45.2549 25.1536 45.2549 24.531C45.2549 24.0361 45.5378 23.702 46.4278 23.702C46.9534 23.702 47.3679 23.793 47.8027 23.9245V23.5807C47.8027 23.409 47.7116 23.3279 47.5501 23.2877C47.1556 23.1764 46.8724 23.1157 46.3064 23.1157C45.1133 23.1157 44.5369 23.7527 44.5369 24.5715C44.5369 25.5984 45.3575 25.9275 46.1166 26.2319C46.7701 26.494 47.378 26.7378 47.378 27.3926C47.378 28.0699 46.9534 28.4137 46.0737 28.4137C45.5581 28.4137 45.0426 28.3226 44.5977 28.191V28.5348C44.5977 28.7069 44.6885 28.788 44.8504 28.8279Z" fill="#8C7343"/>
</svg>
