<svg width="37" height="36" viewBox="0 0 37 36" fill="none" xmlns="http://www.w3.org/2000/svg">
<path fill-rule="evenodd" clip-rule="evenodd" d="M18.4994 6.93233C22.2043 6.93233 22.6427 6.94626 24.1061 7.0111C25.4587 7.07112 26.1934 7.29083 26.6825 7.47571C27.3301 7.7206 27.7922 8.01319 28.278 8.48529C28.7637 8.95793 29.0645 9.40753 29.3156 10.0377C29.5056 10.5136 29.7314 11.2284 29.7931 12.5445C29.8597 13.9678 29.8741 14.3949 29.8741 17.9997C29.8741 21.6046 29.8597 22.0311 29.7931 23.4549C29.7314 24.771 29.5056 25.4859 29.3156 25.9617C29.0639 26.5919 28.7632 27.0415 28.278 27.5142C27.7922 27.9868 27.3301 28.2794 26.6825 28.5238C26.1934 28.7086 25.4587 28.9283 24.1061 28.9884C22.6433 29.0532 22.2043 29.0671 18.4994 29.0671C14.7946 29.0671 14.3556 29.0532 12.8928 28.9884C11.5402 28.9283 10.8055 28.7086 10.3164 28.5238C9.66875 28.2789 9.20667 27.9863 8.72091 27.5142C8.23515 27.0415 7.93445 26.5919 7.6833 25.9617C7.4933 25.4859 7.26749 24.771 7.20581 23.4549C7.13917 22.0316 7.12485 21.6046 7.12485 17.9997C7.12485 14.3949 7.13917 13.9684 7.20581 12.5445C7.26749 11.2284 7.4933 10.5136 7.6833 10.0377C7.935 9.40753 8.23571 8.95793 8.72091 8.48529C9.20667 8.01265 9.66875 7.72007 10.3164 7.47571C10.8055 7.29083 11.5402 7.07112 12.8928 7.0111C14.3562 6.94626 14.7946 6.93233 18.4994 6.93233ZM18.4994 4.5C14.7312 4.5 14.2587 4.51554 12.7788 4.58145C11.3023 4.64683 10.2939 4.87511 9.411 5.20896C8.49841 5.55406 7.72461 6.01545 6.95356 6.76621C6.18252 7.51643 5.70777 8.26934 5.35364 9.15674C5.01052 10.0157 4.77591 10.9969 4.70871 12.4336C4.64097 13.8735 4.625 14.3333 4.625 17.9997C4.625 21.6662 4.64097 22.126 4.70871 23.5659C4.77591 25.0025 5.01052 25.9837 5.35364 26.8427C5.70832 27.7307 6.18252 28.4836 6.95411 29.2338C7.72571 29.9845 8.49896 30.4459 9.41155 30.791C10.2939 31.1249 11.3028 31.3532 12.7794 31.4185C14.2592 31.4845 14.7318 31.5 18.5 31.5C22.2682 31.5 22.7408 31.4845 24.2206 31.4185C25.6972 31.3532 26.7061 31.1249 27.5884 30.791C28.501 30.4459 29.2748 29.9845 30.0459 29.2338C30.8175 28.483 31.2917 27.7307 31.6464 26.8427C31.9895 25.9843 32.2241 25.0025 32.2913 23.5659C32.359 22.126 32.375 21.6662 32.375 17.9997C32.375 14.3333 32.359 13.8735 32.2913 12.4336C32.2241 10.9969 31.9895 10.0152 31.6464 9.15674C31.2917 8.2688 30.8175 7.5159 30.0459 6.76567C29.2743 6.01492 28.501 5.55353 27.5884 5.20843C26.705 4.87511 25.6966 4.64683 24.2201 4.58145C22.7402 4.51554 22.2677 4.5 18.4994 4.5ZM18.5009 11.0676C14.5659 11.0676 11.3766 14.1714 11.3766 17.9996C11.3766 21.8279 14.5664 24.9316 18.5009 24.9316C22.4354 24.9316 25.6253 21.8279 25.6253 17.9996C25.6253 14.1714 22.4359 11.0676 18.5009 11.0676ZM18.5009 22.4993C15.9466 22.4993 13.8764 20.4845 13.8764 17.9996C13.8764 15.5143 15.9471 13.4999 18.5009 13.4999C21.0547 13.4999 23.1255 15.5148 23.1255 17.9996C23.1255 20.485 21.0552 22.4993 18.5009 22.4993ZM27.5713 10.7937C27.5713 11.6885 26.8259 12.4138 25.9063 12.4138C24.9868 12.4138 24.2414 11.6885 24.2414 10.7937C24.2414 9.89894 24.9868 9.17358 25.9063 9.17358C26.8259 9.17358 27.5713 9.89894 27.5713 10.7937Z" fill="#8C7343"/>
</svg>
