<svg width="70" height="40" viewBox="0 0 70 40" fill="none" xmlns="http://www.w3.org/2000/svg">
<path d="M49.0229 16.9277L49.4497 16.6172C49.122 16.2248 48.6457 16 48.1352 16C47.1922 16 46.4245 16.7639 46.4245 17.705C46.4245 18.6461 47.1922 19.41 48.1352 19.41C48.6305 19.41 49.0953 19.1985 49.4211 18.829L48.9905 18.5165C48.7677 18.7509 48.4571 18.8842 48.1333 18.8842C47.4818 18.8842 46.9941 18.3546 46.9941 17.705C46.9941 17.0554 47.4799 16.5258 48.1333 16.5258C48.4762 16.5258 48.7981 16.6725 49.0229 16.9277Z" fill="#8C7343"/>
<path d="M33.5729 16.8744C33.855 17.3903 34.1952 18.0124 34.358 18.3089H34.3599L34.5161 18.5966L34.5771 18.4823C34.5866 18.4613 35.7106 16.3905 35.8763 16.0895H36.5717V19.3548H36.0249V16.7963L35.8916 17.0363C35.8782 17.0573 34.7428 19.1204 34.5752 19.4291H34.4399C34.3731 19.3049 34.1402 18.8819 33.7455 18.165L33.1997 17.1735L32.994 16.7963V19.3548H32.4454V16.0914H33.1445C33.2021 16.1964 33.3725 16.5079 33.5721 16.8729L33.5729 16.8744Z" fill="#8C7343"/>
<path d="M38.8844 17.8555V18.9147H40.9551V19.3548H38.3357V16.0895H40.9151V16.5296H38.8844V17.4154H40.4465V17.8555H38.8844Z" fill="#8C7343"/>
<path d="M59.9292 18.9147V17.8555H61.4933V17.4154H59.9292V16.5296H61.9619V16.0895H59.3825V19.3548H62V18.9147H59.9292Z" fill="#8C7343"/>
<path d="M51.2956 16.0895V17.705H51.2975C51.2975 18.4861 51.6443 18.8995 52.2958 18.8995C52.9473 18.8995 53.2921 18.4861 53.2921 17.705V16.0895H53.8408V17.705C53.8408 19.1871 53.0616 19.4081 52.292 19.4291C51.528 19.41 50.747 19.189 50.747 17.705V16.0895H51.2956Z" fill="#8C7343"/>
<path fill-rule="evenodd" clip-rule="evenodd" d="M27.3627 16.0895C27.7114 16.0895 28.0276 16.1581 28.2981 16.2934C28.5705 16.4286 28.7839 16.621 28.9325 16.8668C29.0811 17.1125 29.1573 17.4002 29.1573 17.7221C29.1573 18.0441 29.083 18.3318 28.9325 18.5775C28.782 18.8233 28.5686 19.0157 28.2981 19.1509C28.0276 19.2862 27.7133 19.3548 27.3627 19.3548H25.9282V16.0895H27.3627ZM27.9971 18.7604C28.1895 18.6632 28.34 18.5242 28.4448 18.3451C28.5477 18.1679 28.601 17.9565 28.601 17.7221C28.601 17.4878 28.5477 17.2783 28.4448 17.0992C28.34 16.9201 28.1895 16.7811 27.9971 16.6839C27.8047 16.5887 27.5799 16.5391 27.3265 16.5391H26.4788V18.9052H27.3265C27.578 18.9052 27.8047 18.8575 27.9971 18.7604Z" fill="#8C7343"/>
<path d="M23.6841 19.3548H24.1337V16.0895H23.5851V18.4061L23.5565 18.3718L21.6934 16.0895H21.2552V19.3548H21.8039L21.8019 17.0516L21.8324 17.0897L23.6841 19.3548Z" fill="#8C7343"/>
<path fill-rule="evenodd" clip-rule="evenodd" d="M15.281 17.1411C15.2791 17.5431 15.1096 17.8688 14.8143 18.0308V18.0327L14.7686 18.0574L15.4506 19.3567H14.8905L14.2847 18.1794H13.3246V19.3567H12.7797V16.0914H14.0428C14.4923 16.0914 14.8238 16.1943 15.0258 16.3962C15.1972 16.5677 15.281 16.8173 15.281 17.1411ZM14.0561 17.7317L14.0523 17.7355C14.5343 17.7355 14.7781 17.5316 14.7781 17.1297C14.7781 16.5944 14.3571 16.5334 14.0409 16.5334H13.3246V17.7317H14.0561Z" fill="#8C7343"/>
<path fill-rule="evenodd" clip-rule="evenodd" d="M44.5499 18.0308C44.8452 17.8688 45.0147 17.5431 45.0167 17.1411C45.0167 16.8173 44.9328 16.5677 44.7614 16.3962C44.5594 16.1943 44.228 16.0914 43.7784 16.0914H42.5153V19.3567H43.0602V18.1794H44.0203L44.6261 19.3567H45.1862L44.5042 18.0574L44.5499 18.0327V18.0308ZM43.7917 17.7317H43.0602V16.5334H43.7765C44.0927 16.5334 44.5137 16.5944 44.5137 17.1297C44.5137 17.5316 44.2699 17.7355 43.7879 17.7355L43.7917 17.7317Z" fill="#8C7343"/>
<path fill-rule="evenodd" clip-rule="evenodd" d="M57.9175 17.1411C57.9156 17.5431 57.7461 17.8688 57.4508 18.0308V18.0327L57.4051 18.0574L58.0871 19.3567H57.527L56.9212 18.1794H55.9611V19.3567H55.4162V16.0914H56.6792C57.1288 16.0914 57.4603 16.1943 57.6622 16.3962C57.8337 16.5677 57.9175 16.8173 57.9175 17.1411ZM56.6926 17.7317L56.6888 17.7355C57.1707 17.7355 57.4146 17.5316 57.4146 17.1297C57.4146 16.5944 56.9936 16.5334 56.6773 16.5334H55.9611V17.7317H56.6926Z" fill="#8C7343"/>
<path fill-rule="evenodd" clip-rule="evenodd" d="M19.0054 18.587L19.0111 18.5985L19.3387 19.3548H19.9541L18.4758 16.0895H17.8833L16.4088 19.3529H17.0146L17.3423 18.587H19.0054ZM17.5461 18.1184L18.1748 16.6553L18.1843 16.6782L18.8168 18.1393H17.5385L17.548 18.1203L17.5461 18.1184Z" fill="#8C7343"/>
<path d="M10.5013 18.7299L10.507 18.7261V17.6898H11.0557V18.9871C10.888 19.1204 10.6899 19.2233 10.467 19.2938C10.2422 19.3662 10.0098 19.4024 9.77168 19.4024C9.4383 19.4024 9.13349 19.33 8.86488 19.1852C8.59627 19.0404 8.38291 18.8385 8.23051 18.5832C8.07811 18.3299 8 18.0365 8 17.7183C8 17.4002 8.07811 17.1087 8.23051 16.8535C8.38291 16.5982 8.59818 16.3962 8.86679 16.2515C9.1373 16.1067 9.44401 16.0343 9.7812 16.0343C10.0555 16.0343 10.3089 16.08 10.5337 16.1695C10.7547 16.2591 10.9452 16.3905 11.0957 16.5601L10.7356 16.9087C10.4803 16.6572 10.1698 16.5315 9.81168 16.5315C9.57355 16.5315 9.36019 16.581 9.1754 16.6801C8.99062 16.7792 8.84393 16.9201 8.73915 17.0992C8.63438 17.2783 8.58103 17.4916 8.58103 17.7164C8.58103 17.9412 8.63438 18.1451 8.73915 18.3241C8.84393 18.5032 8.99062 18.6461 9.1754 18.749C9.36019 18.8518 9.57165 18.9033 9.80597 18.9033C10.0689 18.9033 10.3032 18.8442 10.5013 18.7299Z" fill="#8C7343"/>
<path d="M17.0451 23.5668V24.2012H16.7803V22.6943H17.0451V23.321H17.7633V22.6943H18.0281V24.2012H17.7633V23.5668H17.0451Z" fill="#8C7343"/>
<path fill-rule="evenodd" clip-rule="evenodd" d="M18.9939 23.4487C18.9939 23.8754 19.3159 24.2259 19.7788 24.2259C20.2417 24.2259 20.5694 23.8716 20.5694 23.4449C20.5694 23.0181 20.2474 22.6676 19.7845 22.6676C19.3216 22.6676 18.9939 23.0219 18.9939 23.4487ZM19.2702 23.4449C19.2702 23.1496 19.4797 22.9115 19.7788 22.9115C20.0779 22.9115 20.2913 23.1534 20.2913 23.4487C20.2913 23.7439 20.0817 23.9821 19.7826 23.9821C19.4835 23.9821 19.2702 23.7401 19.2702 23.4449Z" fill="#8C7343"/>
<path d="M22.0896 24.2012H21.8229V22.94H21.3447V22.6943H22.5678V22.94H22.0896V24.2012Z" fill="#8C7343"/>
<path d="M23.7565 22.9305H24.6081V22.6924H23.4917V24.1993H24.6195V23.963H23.7565V23.5592H24.5128V23.3229H23.7565V22.9305Z" fill="#8C7343"/>
<path d="M25.5777 22.6943H25.8425V23.9592H26.635V24.2012H25.5777V22.6943Z" fill="#8C7343"/>
<path d="M28.6181 23.7706C28.6181 23.5192 28.4524 23.4049 28.1343 23.3267H28.1362C27.8466 23.2582 27.778 23.2067 27.778 23.0886C27.778 22.9877 27.8695 22.9076 28.0238 22.9076C28.1628 22.9076 28.2981 22.961 28.4334 23.0619L28.5762 22.8619C28.4238 22.74 28.2486 22.6733 28.0295 22.6733C27.7304 22.6733 27.5151 22.8486 27.5151 23.1115C27.5151 23.3915 27.6961 23.4849 28.0162 23.563C28.2943 23.6277 28.3553 23.6849 28.3553 23.7954C28.3553 23.9116 28.2524 23.9878 28.0885 23.9878C27.9 23.9878 27.7571 23.9173 27.6123 23.7916L27.4523 23.9802C27.6332 24.1421 27.8504 24.2221 28.0809 24.2221C28.3972 24.2221 28.6181 24.0545 28.6181 23.7706Z" fill="#8C7343"/>
<path fill-rule="evenodd" clip-rule="evenodd" d="M32.0282 24.2012L31.8758 23.8373H31.1633L31.009 24.2012H30.7384L31.4014 22.6848H31.6471L32.3101 24.2012H32.0282ZM31.2585 23.603L31.5167 23.0032L31.7767 23.603H31.2585Z" fill="#8C7343"/>
<path d="M34.5237 22.6943H34.2647V23.7363L33.4569 22.6943H33.2112V24.2012H33.4722V23.1286L34.3028 24.2012H34.5237V22.6943Z" fill="#8C7343"/>
<path fill-rule="evenodd" clip-rule="evenodd" d="M36.1163 24.2012H35.5544V22.6943H36.1163C36.5907 22.6943 36.9165 23.02 36.9165 23.4449C36.9165 23.8697 36.5888 24.1993 36.1163 24.1993V24.2012ZM36.1163 22.9362H35.8192V23.9611H36.1163C36.4326 23.9611 36.6402 23.7478 36.6402 23.4506C36.6402 23.1534 36.4345 22.9362 36.1163 22.9362Z" fill="#8C7343"/>
<path fill-rule="evenodd" clip-rule="evenodd" d="M39.7702 23.6754L40.1398 24.2012H40.4522L40.0445 23.6316C40.256 23.5725 40.4046 23.422 40.4046 23.1724C40.4046 22.8772 40.1912 22.6943 39.8445 22.6943H39.1739V24.2012H39.4387V23.6754H39.7702ZM39.4387 22.9362H39.8235C40.0198 22.9362 40.136 23.0219 40.136 23.1877C40.136 23.342 40.014 23.441 39.8254 23.441H39.4387V22.9362Z" fill="#8C7343"/>
<path d="M42.4906 22.9305H41.639V23.3229H42.3953V23.5592H41.639V23.963H42.502V24.1993H41.3742V22.6924H42.4906V22.9305Z" fill="#8C7343"/>
<path d="M44.5252 23.7706C44.5252 23.5192 44.3594 23.4049 44.0413 23.3267H44.0432C43.7536 23.2582 43.685 23.2067 43.685 23.0886C43.685 22.9877 43.7765 22.9076 43.9308 22.9076C44.0699 22.9076 44.2051 22.961 44.3404 23.0619L44.4832 22.8619C44.3308 22.74 44.1556 22.6733 43.9365 22.6733C43.6374 22.6733 43.4221 22.8486 43.4221 23.1115C43.4221 23.3915 43.6031 23.4849 43.9232 23.563C44.2013 23.6277 44.2623 23.6849 44.2623 23.7954C44.2623 23.9116 44.1594 23.9878 43.9956 23.9878C43.807 23.9878 43.6641 23.9173 43.5193 23.7916L43.3593 23.9802C43.5403 24.1421 43.7574 24.2221 43.9879 24.2221C44.3042 24.2221 44.5252 24.0545 44.5252 23.7706Z" fill="#8C7343"/>
<path fill-rule="evenodd" clip-rule="evenodd" d="M46.1997 24.2259C45.7368 24.2259 45.4148 23.8754 45.4148 23.4487C45.4148 23.0219 45.7425 22.6676 46.2054 22.6676C46.6683 22.6676 46.9903 23.0181 46.9903 23.4449C46.9903 23.8716 46.6626 24.2259 46.1997 24.2259ZM46.1997 22.9115C45.9006 22.9115 45.691 23.1496 45.691 23.4449C45.691 23.7401 45.9044 23.9821 46.2035 23.9821C46.5026 23.9821 46.7121 23.7439 46.7121 23.4487C46.7121 23.1534 46.4988 22.9115 46.1997 22.9115Z" fill="#8C7343"/>
<path fill-rule="evenodd" clip-rule="evenodd" d="M48.5505 23.6754L48.9201 24.2012H49.2325L48.8248 23.6316C49.0363 23.5725 49.1849 23.422 49.1849 23.1724C49.1849 22.8772 48.9715 22.6943 48.6248 22.6943H47.9542V24.2012H48.219V23.6754H48.5505ZM48.219 22.9362H48.6038C48.8 22.9362 48.9163 23.0219 48.9163 23.1877C48.9163 23.342 48.7943 23.441 48.6057 23.441H48.219V22.9362Z" fill="#8C7343"/>
<path d="M50.7851 24.2012H50.5184V22.94H50.0402V22.6943H51.2632V22.94H50.7851V24.2012Z" fill="#8C7343"/>
<path d="M53.2197 23.7706C53.2197 23.5192 53.054 23.4049 52.7358 23.3267H52.7377C52.4482 23.2582 52.3796 23.2067 52.3796 23.0886C52.3796 22.9877 52.471 22.9076 52.6253 22.9076C52.7644 22.9076 52.8997 22.961 53.0349 23.0619L53.1778 22.8619C53.0254 22.74 52.8501 22.6733 52.6311 22.6733C52.332 22.6733 52.1167 22.8486 52.1167 23.1115C52.1167 23.3915 52.2977 23.4849 52.6177 23.563C52.8959 23.6277 52.9568 23.6849 52.9568 23.7954C52.9568 23.9116 52.8539 23.9878 52.6901 23.9878C52.5015 23.9878 52.3586 23.9173 52.2139 23.7916L52.0538 23.9802C52.2348 24.1421 52.452 24.2221 52.6825 24.2221C52.9987 24.2221 53.2197 24.0545 53.2197 23.7706Z" fill="#8C7343"/>
</svg>
