<svg width="70" height="40" viewBox="0 0 70 40" fill="none" xmlns="http://www.w3.org/2000/svg">
<path d="M25.6366 24.2867C25.6435 24.2869 25.6503 24.2885 25.6566 24.2914C25.6629 24.2942 25.6685 24.2983 25.6732 24.3034C25.6779 24.3085 25.6814 24.3144 25.6837 24.3209C25.686 24.3274 25.687 24.3343 25.6866 24.3411V27.083C25.6869 27.0896 25.6858 27.0963 25.6835 27.1025C25.6811 27.1087 25.6774 27.1144 25.6727 27.1191C25.668 27.1238 25.6624 27.1276 25.6562 27.13C25.65 27.1325 25.6433 27.1336 25.6366 27.1334H25.2708C25.2638 27.1337 25.2569 27.1327 25.2503 27.1303C25.2438 27.1279 25.2378 27.1243 25.2327 27.1196C25.2276 27.1149 25.2235 27.1093 25.2206 27.103C25.2178 27.0967 25.2162 27.0899 25.216 27.083V25.9113H23.7059V27.083C23.7059 27.0962 23.7007 27.1089 23.6913 27.1184C23.682 27.1278 23.6693 27.1332 23.6559 27.1334H23.2853C23.2719 27.1332 23.2592 27.1278 23.2499 27.1184C23.2405 27.1089 23.2353 27.0962 23.2353 27.083V24.3411C23.2353 24.3275 23.2404 24.3143 23.2496 24.3043C23.2589 24.2942 23.2716 24.2879 23.2853 24.2867H23.6559C23.6696 24.2879 23.6823 24.2942 23.6916 24.3043C23.7008 24.3143 23.706 24.3275 23.7059 24.3411V25.4936H25.216V24.3411C25.2162 24.3268 25.222 24.3131 25.2322 24.3029C25.2425 24.2927 25.2563 24.2869 25.2708 24.2867H25.6366Z" fill="#8C7343"/>
<path d="M29.1362 27.1726C28.3118 27.1726 27.6221 26.5588 27.6221 25.7153C27.6221 24.8717 28.3118 24.2491 29.1362 24.2491C29.9605 24.2491 30.6503 24.8669 30.6503 25.7153C30.6503 26.5636 29.9565 27.1726 29.1362 27.1726ZM29.1362 24.6877C28.9314 24.684 28.7301 24.741 28.558 24.8513C28.3859 24.9616 28.2507 25.1202 28.1696 25.3071C28.0886 25.4939 28.0654 25.7005 28.1029 25.9005C28.1404 26.1005 28.237 26.2849 28.3803 26.4302C28.5237 26.5755 28.7073 26.6752 28.9079 26.7165C29.1084 26.7578 29.3168 26.739 29.5066 26.6623C29.6963 26.5857 29.8588 26.4547 29.9734 26.286C30.0879 26.1174 30.1494 25.9187 30.1499 25.7153C30.1525 25.5813 30.1283 25.4482 30.0786 25.3237C30.0288 25.1992 29.9546 25.0858 29.8602 24.9901C29.7658 24.8944 29.6532 24.8184 29.5289 24.7665C29.4045 24.7145 29.271 24.6878 29.1362 24.6877Z" fill="#8C7343"/>
<path d="M34.6261 24.2867C34.633 24.2869 34.6398 24.2885 34.6461 24.2914C34.6524 24.2942 34.658 24.2983 34.6627 24.3034C34.6674 24.3085 34.671 24.3144 34.6732 24.3209C34.6755 24.3274 34.6765 24.3343 34.6761 24.3411V24.6501C34.6763 24.6567 34.6751 24.6633 34.6727 24.6694C34.6703 24.6756 34.6666 24.6812 34.662 24.6859C34.6573 24.6906 34.6517 24.6944 34.6455 24.6969C34.6394 24.6994 34.6328 24.7006 34.6261 24.7005H33.7172V27.083C33.7171 27.0899 33.7156 27.0966 33.7128 27.1029C33.71 27.1092 33.706 27.1149 33.7009 27.1196C33.6959 27.1243 33.6899 27.1279 33.6835 27.1303C33.677 27.1327 33.6701 27.1337 33.6632 27.1334H33.2965C33.2898 27.1336 33.2832 27.1325 33.277 27.13C33.2707 27.1276 33.2651 27.1238 33.2604 27.1191C33.2557 27.1144 33.252 27.1087 33.2497 27.1025C33.2473 27.0963 33.2462 27.0896 33.2466 27.083V24.7005H32.3352C32.3286 24.7006 32.3219 24.6994 32.3158 24.6969C32.3096 24.6944 32.304 24.6906 32.2993 24.6859C32.2947 24.6812 32.291 24.6756 32.2886 24.6694C32.2862 24.6633 32.285 24.6567 32.2853 24.6501V24.3411C32.2848 24.3343 32.2858 24.3274 32.2881 24.3209C32.2904 24.3144 32.2939 24.3085 32.2986 24.3034C32.3033 24.2983 32.3089 24.2942 32.3152 24.2914C32.3215 24.2885 32.3283 24.2869 32.3352 24.2867H34.6261Z" fill="#8C7343"/>
<path d="M38.7462 24.2867C38.7531 24.2869 38.7599 24.2885 38.7662 24.2914C38.7725 24.2942 38.7781 24.2983 38.7828 24.3034C38.7874 24.3085 38.791 24.3144 38.7933 24.3209C38.7956 24.3274 38.7966 24.3343 38.7961 24.3411V24.6501C38.7963 24.6567 38.7952 24.6633 38.7928 24.6694C38.7904 24.6756 38.7867 24.6812 38.782 24.6859C38.7774 24.6906 38.7718 24.6943 38.7656 24.6969C38.7594 24.6994 38.7528 24.7006 38.7462 24.7005H37.1644V25.5008H38.527C38.5337 25.5006 38.5404 25.5017 38.5467 25.5042C38.5529 25.5066 38.5586 25.5103 38.5634 25.5151C38.5681 25.5198 38.5719 25.5254 38.5743 25.5316C38.5768 25.5379 38.578 25.5445 38.5777 25.5512V25.8641C38.5775 25.8774 38.5721 25.8901 38.5626 25.8995C38.5532 25.909 38.5404 25.9143 38.527 25.9145H37.1644V26.7204H38.7462C38.7595 26.7207 38.7722 26.7261 38.7815 26.7355C38.7909 26.7449 38.7961 26.7576 38.7961 26.7709V27.083C38.7965 27.0896 38.7954 27.0963 38.793 27.1025C38.7906 27.1087 38.787 27.1144 38.7823 27.1191C38.7776 27.1238 38.772 27.1276 38.7657 27.13C38.7595 27.1325 38.7528 27.1336 38.7462 27.1334H36.7437C36.7303 27.1332 36.7176 27.1278 36.7081 27.1184C36.6986 27.109 36.6932 27.0963 36.693 27.083V24.3411C36.6931 24.3274 36.6984 24.3143 36.7078 24.3042C36.7172 24.2941 36.73 24.2879 36.7437 24.2867H38.7462Z" fill="#8C7343"/>
<path d="M41.5899 24.2867C41.6035 24.2879 41.6163 24.2942 41.6255 24.3043C41.6348 24.3143 41.6399 24.3275 41.6398 24.3411V26.7172H42.9815C42.9948 26.7175 43.0075 26.7229 43.0169 26.7323C43.0262 26.7417 43.0314 26.7544 43.0314 26.7677V27.083C43.0318 27.0896 43.0307 27.0963 43.0283 27.1025C43.026 27.1087 43.0223 27.1144 43.0176 27.1191C43.0129 27.1238 43.0073 27.1276 43.0011 27.13C42.9948 27.1325 42.9882 27.1336 42.9815 27.1334H41.2192C41.2059 27.1332 41.1931 27.1278 41.1838 27.1184C41.1745 27.1089 41.1692 27.0962 41.1692 27.083V24.3411C41.1692 24.3275 41.1743 24.3143 41.1835 24.3043C41.1928 24.2942 41.2055 24.2879 41.2192 24.2867H41.5899Z" fill="#8C7343"/>
<path d="M44.6809 26.9053C44.6742 26.9026 44.6683 26.8985 44.6634 26.8932C44.6586 26.8879 44.655 26.8816 44.653 26.8747C44.651 26.8679 44.6506 26.8606 44.6518 26.8536C44.653 26.8466 44.6558 26.8399 44.66 26.8341L44.8066 26.5251C44.8089 26.5187 44.8128 26.5129 44.8179 26.5083C44.823 26.5037 44.8292 26.5004 44.8359 26.4987C44.8426 26.4971 44.8496 26.4971 44.8563 26.4987C44.863 26.5004 44.8692 26.5037 44.8743 26.5083C45.1073 26.6718 45.3837 26.7634 45.6688 26.7716C45.8113 26.7799 45.9527 26.7419 46.0717 26.6636C46.1217 26.6267 46.162 26.5783 46.1891 26.5225C46.2162 26.4668 46.2293 26.4053 46.2272 26.3435C46.2272 26.1514 46.0717 26.0434 45.8654 25.9633C45.6237 25.8681 45.3441 25.8217 45.0749 25.6712C44.8437 25.5424 44.6793 25.3623 44.6793 25.0406C44.6761 24.9305 44.6992 24.8212 44.7469 24.7217C44.7945 24.6222 44.8652 24.5354 44.9533 24.4684C45.1297 24.3307 45.3908 24.2515 45.7349 24.2515C46.0397 24.2462 46.3409 24.3181 46.61 24.4604C46.6162 24.4635 46.6217 24.4679 46.6261 24.4733C46.6306 24.4787 46.6339 24.4848 46.6358 24.4915C46.6378 24.4982 46.6384 24.5052 46.6375 24.512C46.6367 24.5189 46.6344 24.5256 46.6309 24.5316L46.4843 24.8357C46.4815 24.8423 46.4772 24.8482 46.4718 24.853C46.4665 24.8578 46.4601 24.8614 46.4531 24.8634C46.4462 24.8655 46.4389 24.866 46.4318 24.865C46.4246 24.8639 46.4178 24.8613 46.4118 24.8573C46.1996 24.7305 45.9575 24.6612 45.7099 24.6564C45.5634 24.6456 45.4176 24.6854 45.2973 24.7693C45.2585 24.7985 45.2272 24.8364 45.2061 24.8799C45.1849 24.9235 45.1745 24.9714 45.1757 25.0198C45.1757 25.2038 45.3312 25.2999 45.5673 25.3791C45.8356 25.4751 46.1386 25.5208 46.3868 25.68C46.4967 25.7437 46.5874 25.8353 46.6496 25.9455C46.7118 26.0557 46.7432 26.1804 46.7405 26.3067C46.7438 26.4313 46.7172 26.5549 46.663 26.6673C46.6088 26.7797 46.5285 26.8777 46.4287 26.9533C46.2099 27.1088 45.9449 27.1869 45.6761 27.175C45.3267 27.1805 44.9828 27.0879 44.6841 26.9077" fill="#8C7343"/>
<path d="M9.278 13.1624L8 13.1608V19.1151H9.00403L9 14.4485L11.6503 19.2512H11.8977L14.5471 14.4485L14.5423 19.1151H15.5479V13.1608L14.2764 13.1624L11.7857 17.7298L9.278 13.1624Z" fill="#8C7343"/>
<path d="M19.498 18.314L19.4972 16.3805H22.3578V15.5786L19.4972 15.5778V13.9643L23.2151 13.9635V13.1616L18.494 13.1608V19.1167L23.2869 19.1159V18.314H19.498Z" fill="#8C7343"/>
<path d="M58.2103 18.314V16.3805H61.0709V15.5786L58.2103 15.5778V13.9643L61.9283 13.9635V13.1616L57.2071 13.1608V19.1167L62 19.1159L61.9992 18.314H58.2103Z" fill="#8C7343"/>
<path d="M37.9823 14.6894L38.7639 14.1244C38.4277 13.7215 37.9945 13.4095 37.5045 13.2173C37.0145 13.025 36.4835 12.9588 35.9609 13.0248C35.4382 13.0908 34.9408 13.2868 34.5148 13.5947C34.0888 13.9025 33.748 14.3123 33.524 14.7859C33.3 15.2595 33.2001 15.7817 33.2335 16.3039C33.2669 16.8261 33.4326 17.3314 33.7152 17.7731C33.9977 18.2147 34.3881 18.5783 34.8499 18.8301C35.3117 19.082 35.8301 19.2138 36.357 19.2136C36.8023 19.2141 37.2427 19.1199 37.6483 18.9374C38.054 18.7549 38.4157 18.4884 38.7091 18.1556L37.9218 17.5857C37.7199 17.7969 37.4768 17.9651 37.2074 18.0801C36.9379 18.1951 36.6478 18.2546 36.3546 18.2548C35.1612 18.2548 34.2716 17.2944 34.2716 16.1052C34.2716 14.9159 35.1612 13.958 36.3546 13.958C36.6628 13.9572 36.9676 14.0221 37.2483 14.1483C37.5291 14.2744 37.7794 14.459 37.9823 14.6894Z" fill="#8C7343"/>
<path d="M45.9073 13.1801V16.3669C45.9017 17.3593 45.0878 18.2076 44.087 18.2076C43.0862 18.2076 42.2724 17.3593 42.2667 16.3669V13.1801H41.2595V16.4389C41.272 17.1754 41.5754 17.8775 42.1042 18.394C42.633 18.9104 43.345 19.1998 44.0866 19.1998C44.8283 19.1998 45.5402 18.9104 46.0691 18.394C46.5979 17.8775 46.9013 17.1754 46.9138 16.4389V13.1801H45.9073Z" fill="#8C7343"/>
<path d="M30.0129 16.7014C30.552 16.4045 30.8638 15.8131 30.8671 15.0776C30.8671 14.4886 30.7123 14.0316 30.3989 13.7171C30.029 13.3481 29.4247 13.1617 28.6011 13.1617H26.2208V19.1175H27.2256V17.0495H29.0032L30.0629 19.1175H31.1781L29.9299 16.747L30.0129 16.7014ZM28.6229 16.1564H27.2232V14.0196H27.9646C28.1725 14.0196 28.3852 14.0196 28.6027 14.0196C29.1668 14.0196 29.9194 14.1292 29.9194 15.0808C29.9178 15.7931 29.4835 16.1564 28.6229 16.1564Z" fill="#8C7343"/>
<path d="M53.4722 16.7014C54.0113 16.4045 54.3231 15.8131 54.3263 15.0776C54.3263 14.4886 54.1716 14.0316 53.8582 13.7171C53.4883 13.3505 52.8832 13.1641 52.0604 13.1641H49.6801V19.1175H50.6849V17.0495H52.4625L53.5238 19.1167H54.639L53.3892 16.747L53.4722 16.7014ZM52.0822 16.1564H50.6825V14.0196H51.4239C51.6317 14.0196 51.8445 14.0196 52.062 14.0196C52.6261 14.0196 53.3787 14.1292 53.3787 15.0808C53.3787 15.7931 52.9428 16.1564 52.0822 16.1564Z" fill="#8C7343"/>
</svg>
