<svg width="100" height="58" viewBox="0 0 100 58" fill="none" xmlns="http://www.w3.org/2000/svg">
<path fill-rule="evenodd" clip-rule="evenodd" d="M55.2299 13.6254L50.144 30.668L52.8602 39.766H46.6373L49.3516 30.6671L44.2657 13.6254L41.4113 39.9271L40.6577 39.8421L43.7147 11.6697L44.4546 11.5996L49.7468 29.339L55.041 11.5996L55.7809 11.6697L58.8398 39.8421L58.0863 39.9271L55.2299 13.6254ZM43.4109 45.5329L43.078 46.2671H42.599L44.0632 43.0497L45.4749 46.2671H44.9862L44.6746 45.5329H43.4109ZM41.495 44.693V44.8333C41.495 45.2286 41.4152 45.5002 41.2322 45.7542C40.9732 46.1139 40.5546 46.3263 40.1086 46.3263C39.2811 46.3263 38.5996 45.6228 38.5996 44.7621C38.5996 43.8758 39.2831 43.1801 40.1593 43.1801C40.6285 43.1801 40.9946 43.3678 41.3607 43.7987L41.0433 44.112C40.7843 43.7621 40.5137 43.6129 40.1437 43.6129C39.5264 43.6129 39.0475 44.1169 39.0475 44.7621C39.0475 45.3787 39.5362 45.8956 40.1242 45.8956C40.5662 45.8956 40.9673 45.5516 41.0063 45.1238H40.2684V44.693H41.495ZM43.596 45.1021L44.0516 44.0753L44.4935 45.1021H43.596ZM47.3169 45.8372H48.1872V46.2671H46.8671V43.2413H47.3169V45.8372ZM50.9443 45.8372H50.0759V43.2413H49.628V46.2671H50.9443V45.8372ZM52.8369 43.6712V44.3985H53.9876V44.8294H52.8369V45.8372H54.0226V46.2671H52.3891V43.2413H54.0226V43.6712H52.8369ZM56.9998 46.2671H57.5469L56.6338 44.9775C57.027 44.8926 57.2899 44.5526 57.2899 44.1257C57.2899 43.8402 57.1498 43.5615 56.9355 43.4172C56.7467 43.2907 56.5345 43.2413 56.1528 43.2413H55.6271V46.2671H56.0769V45.027H56.1567L56.9998 46.2671ZM56.219 44.6297C56.6338 44.6297 56.8538 44.4568 56.8538 44.1356C56.8538 43.8304 56.6415 43.6712 56.2385 43.6712H56.0769V44.6297H56.219ZM59.0287 43.2413H58.5127L59.4824 44.9607V46.2671H59.9302V44.9607L60.896 43.2413H60.3878L59.7024 44.4518L59.0287 43.2413ZM51.8361 38.9903H47.6615L49.7468 31.9971L51.8361 38.9903Z" fill="#8C7343"/>
</svg>
