<svg width="100" height="58" viewBox="0 0 100 58" fill="none" xmlns="http://www.w3.org/2000/svg">
<path fill-rule="evenodd" clip-rule="evenodd" d="M24.3592 35.237C27.736 35.237 29.7346 32.5829 29.7346 29.2191C29.7346 25.855 27.736 23.2002 24.3592 23.2002C20.9672 23.2002 18.9686 25.855 18.9686 29.2191C18.9686 32.5829 20.9672 35.237 24.3592 35.237ZM16.5434 23.474H15.5442L11.1683 34.1753H11.1366L6.7135 23.474H5.71436V34.9633H6.41256V24.3429H6.44425L10.8042 34.9633H11.5024L15.8135 24.3429H15.8458V34.9633H16.5434V23.474ZM24.3592 34.6264C27.3077 34.6264 29.037 32.1631 29.037 29.2191C29.037 26.2738 27.3077 23.8117 24.3592 23.8117C21.3943 23.8117 19.6665 26.2738 19.6665 29.2191C19.6665 32.1631 21.3943 34.6264 24.3592 34.6264ZM40.2127 23.4741V34.014H40.1814L33.0323 23.4741H32.1593V34.9631H32.8575V24.3427H32.8889L40.0863 34.9631H40.9113V23.4741H40.2127ZM48.5051 23.4741C52.5472 23.4741 53.7371 26.2891 53.7371 29.2025C53.7371 32.4542 52.1044 34.9631 48.4734 34.9631H44.795V23.4741H48.5051ZM53.0386 29.2025C53.0386 33.1775 50.6449 34.3525 48.5368 34.3525H45.4935V24.0853H48.3937C50.0741 24.0853 53.0386 24.5029 53.0386 29.2025ZM64.3852 31.7458C64.2427 30.6342 63.7042 29.7341 61.722 29.7341H57.694V34.9631H56.9973V23.474H61.722C63.7042 23.474 65.3043 24.214 65.3043 26.4349C65.3043 27.98 64.3852 29.1222 62.879 29.3802V29.4124C64.5591 29.6051 64.9717 30.6826 65.0825 31.8744C65.1174 32.2488 65.1226 32.6329 65.1276 33.0024C65.1384 33.8078 65.1483 34.5445 65.4634 34.9631H64.6865C64.4112 34.4576 64.4172 33.7329 64.4235 32.9853C64.427 32.5679 64.4305 32.1433 64.3852 31.7458ZM61.722 29.1222H57.694V24.0853H61.722C63.2442 24.0853 64.608 24.7452 64.608 26.483C64.608 28.3339 63.3694 29.1222 61.722 29.1222ZM69.1895 34.9631V23.4741H69.8871V34.9631H69.1895ZM78.2093 23.4741H77.4477L72.8988 34.9631H73.6437L75.0866 31.2786H80.5079L81.9357 34.9631H82.6807L78.2093 23.4741ZM75.3085 30.6674H80.286L77.8609 24.1659H77.8289L75.3085 30.6674ZM94.2858 23.4741H93.5882V34.014H93.5565L86.4062 23.4741H85.5341V34.9631H86.2311V24.3427H86.2634L93.4614 34.9631H94.2858V23.4741Z" fill="#8C7343"/>
</svg>
