<svg width="70" height="40" viewBox="0 0 70 40" fill="none" xmlns="http://www.w3.org/2000/svg">
<path d="M21.6032 16.2502C19.1587 16.2502 18.4607 18.1431 18.4607 19.4594C18.4607 20.819 19.1595 22.7118 21.6032 22.7118C24.047 22.7118 24.7457 20.8182 24.7457 19.4586C24.7457 18.1423 24.0477 16.2502 21.6032 16.2502ZM21.6032 21.732C19.8133 21.732 19.5405 20.0351 19.5405 19.4586C19.5405 18.8821 19.8133 17.2285 21.6032 17.2285C23.3932 17.2285 23.6545 18.8821 23.6545 19.4586C23.6545 20.0351 23.3924 21.732 21.6032 21.732Z" fill="#8C7343"/>
<path d="M27.6596 20.579L25.8918 16.3156H24.7457L27.6162 22.7217H27.7031L30.5728 16.3156H29.416L27.6596 20.579Z" fill="#8C7343"/>
<path d="M31.2281 22.6677H35.4724V21.6993H32.3078V20.0138H34.7851V19.0454H32.3078V17.2726H35.4724V16.3156H31.2281V22.6677Z" fill="#8C7343"/>
<path d="M40.619 20.1878L36.5598 16.2282L36.5164 16.2502V22.6677H37.6076V18.7955L41.6447 22.7657L41.7102 22.7437V16.3156H40.619V20.1878Z" fill="#8C7343"/>
<path d="M45.2848 16.3156H42.8951V22.6677H43.9756V20.3617H45.4158C46.4308 20.3617 47.522 19.5566 47.522 18.317C47.522 17.4898 46.9985 16.3156 45.2848 16.3156ZM45.3724 19.3827H43.9756V17.2612H45.3396C46.2456 17.2612 46.4529 17.9577 46.4529 18.3162C46.4529 18.6542 46.2449 19.3827 45.3724 19.3827Z" fill="#8C7343"/>
<path d="M49.5032 16.3156H48.412V22.6677H49.5032V16.3156Z" fill="#8C7343"/>
<path d="M53.6621 17.1746C54.3167 17.1746 54.9827 17.5666 55.3645 17.9798L56.0739 17.2946C55.4628 16.6308 54.7427 16.1963 53.6621 16.1963C51.2283 16.1963 50.5082 18.1545 50.5082 19.4594C50.5082 20.819 51.2283 22.7657 53.6621 22.7657C54.7099 22.7657 55.4407 22.3958 56.0518 21.7867L55.4186 21.0036C55.004 21.3955 54.3708 21.7646 53.6614 21.7646C51.8714 21.732 51.5987 20.0458 51.5987 19.4586C51.5994 18.8821 51.8722 17.1746 53.6621 17.1746Z" fill="#8C7343"/>
<path d="M58.8575 19.3827L61.7927 16.3482L61.7813 16.3156H60.4722L58.0498 18.8388V16.3156H56.9693V22.6677H58.0498V19.8938L60.6688 22.6677H61.9886L62 22.6351L58.8575 19.3827Z" fill="#8C7343"/>
<path d="M20.1334 15.5666C20.4793 15.5666 20.7612 15.2856 20.7612 14.9408C20.7612 14.5959 20.4793 14.3149 20.1334 14.3149C19.7874 14.3149 19.5055 14.5959 19.5055 14.9408C19.5055 15.2856 19.7874 15.5666 20.1334 15.5666Z" fill="#8C7343"/>
<path d="M22.7394 15.5666C23.0854 15.5666 23.3673 15.2856 23.3673 14.9408C23.3673 14.5959 23.0854 14.3149 22.7394 14.3149C22.3935 14.3149 22.1115 14.5959 22.1115 14.9408C22.1115 15.2856 22.3935 15.5666 22.7394 15.5666Z" fill="#8C7343"/>
<path d="M15.6596 14.9879L13.1839 20.3283L10.7089 14.9879H10.6327L8 22.6571H8.36424C8.36424 22.6571 9.2093 22.6731 9.45923 21.9082L10.8049 17.8377L13.1405 22.7551H13.2281L15.5636 17.8377L16.9093 21.9082C17.1593 22.6738 18.0043 22.6571 18.0043 22.6571H18.3686L15.7358 14.9879H15.6596Z" fill="#8C7343"/>
<path d="M39.7793 13.8766C39.5911 14.0027 39.4615 14.0885 39.3381 14.1713C39.3373 14.1721 39.3358 14.1729 39.335 14.1736C39.5835 14.365 40.0437 14.5655 40.4834 14.5769C40.6243 14.4227 40.6952 14.343 40.8164 14.2086C41.7193 13.2097 42.2558 13.2485 42.5027 13.2302C42.1316 13.0464 41.1334 12.9705 39.7793 13.8766Z" fill="#8C7343"/>
<path d="M38.9921 14.4015C38.4016 14.1721 37.7493 13.7414 36.956 13.035C35.6218 11.8478 34.3584 11.9382 33.7549 12.0818C33.8212 12.097 33.9103 12.1175 34.0185 12.1501C34.4849 12.2914 35.3101 12.6591 36.2382 13.7771C36.7229 14.3605 37.1702 14.7387 37.5717 14.9772C37.5725 14.9772 37.5733 14.9772 37.574 14.978C37.574 14.978 37.5733 14.978 37.5733 14.9772C37.5839 14.9841 37.5954 14.9901 37.606 14.997C38.9906 15.8158 40.0429 15.0023 40.3698 14.6931L40.3927 14.6711C40.3934 14.6711 40.3934 14.6711 40.3942 14.6711C40.4071 14.6582 40.4552 14.6088 40.4742 14.5891L40.4773 14.586C39.9934 14.6491 39.5171 14.6058 38.9921 14.4015Z" fill="#8C7343"/>
<path d="M13.0756 26.9965V24.3198H13.5344V25.412H14.8503V24.3198H15.3091V26.9965H14.8503V25.7979H13.5344V26.9965H13.0756Z" fill="#8C7343"/>
<path d="M16.2471 25.6581C16.2471 24.8188 16.846 24.2256 17.707 24.2256C18.5719 24.2256 19.1709 24.8188 19.1709 25.6581C19.1709 26.5012 18.5719 27.0906 17.707 27.0906C16.846 27.0906 16.2471 26.5012 16.2471 25.6581ZM16.702 25.6581C16.702 26.2627 17.1188 26.6941 17.707 26.6979C18.2984 26.6979 18.7159 26.2635 18.7159 25.6581C18.7159 25.0535 18.2991 24.6221 17.707 24.6221C17.1188 24.6221 16.702 25.0535 16.702 25.6581Z" fill="#8C7343"/>
<path d="M20.5669 24.7094H19.7058V24.3198H21.879V24.7094H21.0218V26.9965H20.5669V24.7094Z" fill="#8C7343"/>
<path d="M23.1196 26.6106H24.5757V26.9965H22.6799V24.3198H24.5384V24.7056H23.1203V25.4424H24.3868V25.7903H23.1203V26.6106H23.1196Z" fill="#8C7343"/>
<path d="M25.513 26.9965V24.3198H25.968V26.603H27.2344V26.9965H25.513Z" fill="#8C7343"/>
<path d="M29.0327 27.0906C28.3614 27.0906 27.876 26.682 27.876 26.123H28.3081C28.3081 26.467 28.6113 26.7162 29.0442 26.7162C29.4274 26.7162 29.6507 26.5195 29.6507 26.2513C29.6507 25.9452 29.3093 25.8997 28.9299 25.8465C28.4254 25.7781 27.9095 25.6877 27.9095 25.0717C27.9095 24.5765 28.3302 24.2248 28.9565 24.2248C29.5859 24.2248 30.0408 24.6107 30.0408 25.1431H29.6202C29.6202 24.8256 29.3436 24.5985 28.9603 24.5985C28.5961 24.5985 28.3614 24.7801 28.3614 25.0254C28.3614 25.3315 28.6723 25.3809 29.0594 25.434C29.56 25.5024 30.1026 25.5928 30.1026 26.1936C30.1026 26.7169 29.6888 27.0906 29.0327 27.0906Z" fill="#8C7343"/>
<path d="M33.607 26.2323C33.7205 26.085 33.812 25.9111 33.8798 25.7105H34.2821C34.1914 25.9976 34.0467 26.2551 33.8722 26.4701C33.9217 26.5157 34.4071 26.9539 34.4521 26.9957H33.8981L33.6024 26.7314C33.3372 26.9585 33.0187 27.0906 32.6964 27.0906C32.1653 27.0906 31.7866 26.7731 31.7866 26.3121C31.7866 25.9004 32.0327 25.6961 32.3367 25.5563C32.2003 25.3976 32.0937 25.1971 32.0975 24.9669C32.0975 24.5552 32.4388 24.2522 32.8785 24.2484C33.3068 24.2484 33.6481 24.5355 33.7015 24.9327L33.303 25.0087C33.2763 24.7778 33.1094 24.6115 32.8861 24.6115C32.6773 24.6115 32.5067 24.7588 32.5067 24.9859C32.5067 25.1485 32.5973 25.3148 32.7757 25.4773L33.607 26.2323ZM32.6019 25.8169C32.3626 25.9073 32.2224 26.044 32.2224 26.2931C32.2224 26.5422 32.4503 26.72 32.765 26.72C32.97 26.72 33.1673 26.6372 33.3342 26.4929C33.2732 26.4367 32.6629 25.8738 32.6019 25.8169Z" fill="#8C7343"/>
<path d="M36.6337 26.9965H36.1788V24.3198H37.4148C38.0023 24.3198 38.4237 24.679 38.4237 25.1895C38.4237 25.5487 38.1623 25.8662 37.798 25.9604L38.4694 26.9965H37.9459L37.3546 26.0288H36.6337V26.9965ZM36.6337 24.6942V25.6657H37.3622C37.7112 25.6657 37.9687 25.4652 37.9687 25.1895C37.9687 24.8758 37.715 24.6942 37.3622 24.6942H36.6337Z" fill="#8C7343"/>
<path d="M39.8463 26.6106H41.3024V26.9965H39.4066V24.3198H41.2651V24.7056H39.847V25.4424H41.1135V25.7903H39.847V26.6106H39.8463Z" fill="#8C7343"/>
<path d="M43.2791 27.0906C42.6078 27.0906 42.1224 26.682 42.1224 26.123H42.5545C42.5545 26.467 42.8577 26.7162 43.2906 26.7162C43.6739 26.7162 43.8971 26.5195 43.8971 26.2513C43.8971 25.9452 43.5557 25.8997 43.1763 25.8465C42.6718 25.7781 42.1559 25.6877 42.1559 25.0717C42.1559 24.5765 42.5766 24.2248 43.2029 24.2248C43.8323 24.2248 44.2873 24.6107 44.2873 25.1431H43.8666C43.8666 24.8256 43.59 24.5985 43.2067 24.5985C42.8425 24.5985 42.6078 24.7801 42.6078 25.0254C42.6078 25.3315 42.9187 25.3809 43.3058 25.434C43.8064 25.5024 44.349 25.5928 44.349 26.1936C44.349 26.7169 43.9352 27.0906 43.2791 27.0906Z" fill="#8C7343"/>
<path d="M45.1795 25.6581C45.1795 24.8188 45.7784 24.2256 46.6395 24.2256C47.5044 24.2256 48.1033 24.8188 48.1033 25.6581C48.1033 26.5012 47.5044 27.0906 46.6395 27.0906C45.7792 27.0906 45.1795 26.5012 45.1795 25.6581ZM45.6344 25.6581C45.6344 26.2627 46.0512 26.6941 46.6395 26.6979C47.2308 26.6979 47.6484 26.2635 47.6484 25.6581C47.6484 25.0535 47.2316 24.6221 46.6395 24.6221C46.052 24.6221 45.6344 25.0535 45.6344 25.6581Z" fill="#8C7343"/>
<path d="M49.5001 26.9965H49.0451V24.3198H50.2811C50.8686 24.3198 51.29 24.679 51.29 25.1895C51.29 25.5487 51.0286 25.8662 50.6644 25.9604L51.3357 26.9965H50.8122L50.2209 26.0288H49.5001V26.9965ZM49.5001 24.6942V25.6657H50.2285C50.5775 25.6657 50.8351 25.4652 50.8351 25.1895C50.8351 24.8758 50.5813 24.6942 50.2285 24.6942H49.5001Z" fill="#8C7343"/>
<path d="M52.7462 24.7094H51.8851V24.3198H54.0583V24.7094H53.2011V26.9965H52.7462V24.7094Z" fill="#8C7343"/>
<path d="M55.8986 27.0906C55.2273 27.0906 54.7419 26.682 54.7419 26.123H55.1739C55.1739 26.467 55.4772 26.7162 55.91 26.7162C56.2933 26.7162 56.5166 26.5195 56.5166 26.2513C56.5166 25.9452 56.1752 25.8997 55.7957 25.8465C55.2913 25.7781 54.7754 25.6877 54.7754 25.0717C54.7754 24.5765 55.196 24.2248 55.8224 24.2248C56.4518 24.2248 56.9067 24.6107 56.9067 25.1431H56.4861C56.4861 24.8256 56.2095 24.5985 55.8262 24.5985C55.462 24.5985 55.2273 24.7801 55.2273 25.0254C55.2273 25.3315 55.5382 25.3809 55.9253 25.434C56.4259 25.5024 56.9685 25.5928 56.9685 26.1936C56.9677 26.7169 56.5547 27.0906 55.8986 27.0906Z" fill="#8C7343"/>
</svg>
