<svg width="420" height="135" viewBox="0 0 420 135" fill="none" xmlns="http://www.w3.org/2000/svg">
<rect width="420" height="135" fill="#E5E5E5"/>
<g clip-path="url(#clip0_2_5)">
<rect width="1854" height="2061" transform="translate(-717 -318)" fill="white"/>
<rect width="1438" height="1673" transform="translate(-509 -134)" fill="#F5F2ED"/>
<path d="M115.231 45.937C97.9378 45.937 93 58.4905 93 67.2205C93 76.2376 97.9432 88.791 115.231 88.791C132.519 88.791 137.462 76.2325 137.462 67.2154C137.462 58.4854 132.524 45.937 115.231 45.937ZM115.231 82.2927C102.568 82.2927 100.639 71.0389 100.639 67.2154C100.639 63.3919 102.568 52.4253 115.231 52.4253C127.894 52.4253 129.743 63.3919 129.743 67.2154C129.743 71.0389 127.888 82.2927 115.231 82.2927Z" fill="#2E2E2E"/>
<path d="M158.075 74.6457L145.568 46.3702H137.461L157.767 88.8565H158.382L178.683 46.3702H170.5L158.075 74.6457Z" fill="#2E2E2E"/>
<path d="M183.32 88.4989H213.346V82.076H190.959V70.8978H208.484V64.475H190.959V52.7175H213.346V46.3702H183.32V88.4989Z" fill="#2E2E2E"/>
<path d="M249.754 72.0514L221.038 45.7909L220.73 45.937V88.4989H228.45V62.8177L257.009 89.1487L257.473 89.0026V46.3702H249.754V72.0514Z" fill="#2E2E2E"/>
<path d="M282.76 46.3702H265.855V88.4989H273.499V73.205H283.688C290.868 73.205 298.587 67.8653 298.587 59.6441C298.587 54.1582 294.884 46.3702 282.76 46.3702ZM283.38 66.7117H273.499V52.6419H283.149C289.558 52.6419 291.024 57.2613 291.024 59.639C291.024 61.8807 289.553 66.7117 283.38 66.7117Z" fill="#2E2E2E"/>
<path d="M312.602 46.3702H304.883V88.4989H312.602V46.3702Z" fill="#2E2E2E"/>
<path d="M342.023 52.0676C346.653 52.0676 351.365 54.667 354.065 57.4074L359.084 52.8636C354.761 48.4608 349.667 45.5793 342.023 45.5793C324.805 45.5793 319.711 58.566 319.711 67.2205C319.711 76.2376 324.805 89.1487 342.023 89.1487C349.435 89.1487 354.604 86.6954 358.928 82.6554L354.448 77.4617C351.516 80.061 347.036 82.5093 342.017 82.5093C329.355 82.2927 327.425 71.1094 327.425 67.2154C327.43 63.3919 329.36 52.0676 342.023 52.0676Z" fill="#2E2E2E"/>
<path d="M378.776 66.7117L399.541 46.5869L399.46 46.3702H390.199L373.062 63.1048V46.3702H365.418V88.4989H373.062V70.1019L391.589 88.4989H400.926L401.007 88.2822L378.776 66.7117Z" fill="#2E2E2E"/>
<path d="M104.832 41.4032C107.28 41.4032 109.274 39.5394 109.274 37.2523C109.274 34.9653 107.28 33.1014 104.832 33.1014C102.385 33.1014 100.391 34.9653 100.391 37.2523C100.391 39.5394 102.385 41.4032 104.832 41.4032Z" fill="#2E2E2E"/>
<path d="M123.266 41.4032C125.713 41.4032 127.708 39.5394 127.708 37.2523C127.708 34.9653 125.713 33.1014 123.266 33.1014C120.819 33.1014 118.824 34.9653 118.824 37.2523C118.824 39.5394 120.819 41.4032 123.266 41.4032Z" fill="#2E2E2E"/>
<path d="M73.1827 37.5647L55.6685 72.9834L38.1598 37.5647H37.6207L18.9961 88.4283H21.5728C21.5728 88.4283 27.551 88.5341 29.3191 83.4614L38.839 56.4654L55.3613 89.0782H55.9812L72.5035 56.4654L82.0233 83.4614C83.7914 88.5392 89.7696 88.4283 89.7696 88.4283H92.3464L73.7217 37.5647H73.1827Z" fill="#2E2E2E"/>
<path d="M243.815 30.1949C242.483 31.0311 241.567 31.6004 240.693 32.1494C240.688 32.1545 240.677 32.1595 240.672 32.1646C242.429 33.434 245.685 34.7639 248.795 34.8395C249.793 33.8169 250.294 33.2879 251.151 32.3963C257.539 25.772 261.334 26.0289 263.081 25.908C260.455 24.6889 253.394 24.1851 243.815 30.1949Z" fill="#2E2E2E"/>
<path d="M238.245 33.6758C234.067 32.1544 229.453 29.2982 223.841 24.6133C214.402 16.7397 205.465 17.3391 201.195 18.2912C201.664 18.392 202.295 18.528 203.06 18.7446C206.36 19.6816 212.198 22.1197 218.763 29.5349C222.192 33.4037 225.356 35.9124 228.197 37.4942C228.202 37.4942 228.208 37.4942 228.213 37.4992C228.213 37.4992 228.208 37.4992 228.208 37.4942C228.283 37.5395 228.364 37.5798 228.439 37.6252C238.234 43.0556 245.679 37.6604 247.991 35.6102L248.153 35.4641C248.158 35.4641 248.158 35.4641 248.164 35.4641C248.255 35.3784 248.595 35.051 248.73 34.92L248.751 34.8999C245.328 35.318 241.959 35.0308 238.245 33.6758Z" fill="#2E2E2E"/>
<path d="M54.9023 117.208V99.4554H58.1475V106.699H67.4571V99.4554H70.7023V117.208H67.4571V109.258H58.1475V117.208H54.9023Z" fill="#2E2E2E"/>
<path d="M77.3359 108.332C77.3359 102.765 81.573 98.8308 87.6644 98.8308C93.7827 98.8308 98.0198 102.765 98.0198 108.332C98.0198 113.923 93.7827 117.832 87.6644 117.832C81.573 117.832 77.3359 113.923 77.3359 108.332ZM80.5541 108.332C80.5541 112.341 83.5028 115.203 87.6644 115.228C91.8475 115.228 94.8016 112.346 94.8016 108.332C94.8016 104.322 91.8529 101.46 87.6644 101.46C83.5028 101.46 80.5541 104.322 80.5541 108.332Z" fill="#2E2E2E"/>
<path d="M107.896 102.04H101.805V99.4554H117.179V102.04H111.114V117.208H107.896V102.04Z" fill="#2E2E2E"/>
<path d="M125.954 114.649H136.256V117.208H122.844V99.4554H135.991V102.014H125.96V106.901H134.919V109.208H125.96V114.649H125.954Z" fill="#2E2E2E"/>
<path d="M142.887 117.208V99.4554H146.105V114.598H155.064V117.208H142.887Z" fill="#2E2E2E"/>
<path d="M167.788 117.832C163.039 117.832 159.605 115.122 159.605 111.415H162.662C162.662 113.697 164.807 115.349 167.869 115.349C170.581 115.349 172.16 114.044 172.16 112.266C172.16 110.236 169.745 109.933 167.061 109.581C163.492 109.127 159.843 108.528 159.843 104.443C159.843 101.158 162.818 98.8258 167.249 98.8258C171.702 98.8258 174.92 101.385 174.92 104.916H171.945C171.945 102.81 169.988 101.304 167.276 101.304C164.7 101.304 163.039 102.508 163.039 104.135C163.039 106.165 165.239 106.493 167.977 106.846C171.519 107.299 175.357 107.898 175.357 111.883C175.357 115.354 172.43 117.832 167.788 117.832Z" fill="#2E2E2E"/>
<path d="M200.148 112.14C200.951 111.163 201.598 110.009 202.078 108.679H204.924C204.282 110.583 203.258 112.291 202.024 113.717C202.374 114.019 205.808 116.926 206.126 117.203H202.207L200.115 115.45C198.239 116.956 195.986 117.832 193.706 117.832C189.949 117.832 187.27 115.727 187.27 112.669C187.27 109.939 189.011 108.584 191.162 107.657C190.197 106.604 189.442 105.274 189.469 103.748C189.469 101.017 191.884 99.0072 194.994 98.9821C198.024 98.9821 200.439 100.886 200.816 103.521L197.997 104.025C197.808 102.493 196.628 101.39 195.048 101.39C193.571 101.39 192.364 102.367 192.364 103.873C192.364 104.951 193.005 106.055 194.267 107.133L200.148 112.14ZM193.038 109.384C191.345 109.984 190.353 110.891 190.353 112.543C190.353 114.195 191.965 115.374 194.191 115.374C195.641 115.374 197.037 114.825 198.218 113.868C197.787 113.495 193.469 109.762 193.038 109.384Z" fill="#2E2E2E"/>
<path d="M221.558 117.208H218.34V99.4554H227.083C231.24 99.4554 234.221 101.838 234.221 105.223C234.221 107.606 232.372 109.712 229.795 110.336L234.544 117.208H230.841L226.658 110.79H221.558V117.208V117.208ZM221.558 101.939V108.382H226.711C229.18 108.382 231.002 107.052 231.002 105.223C231.002 103.143 229.207 101.939 226.711 101.939H221.558V101.939Z" fill="#2E2E2E"/>
<path d="M244.286 114.649H254.588V117.208H241.176V99.4554H254.323V102.014H244.292V106.901H253.251V109.208H244.292V114.649H244.286Z" fill="#2E2E2E"/>
<path d="M268.57 117.832C263.821 117.832 260.387 115.122 260.387 111.415H263.443C263.443 113.697 265.589 115.349 268.651 115.349C271.362 115.349 272.942 114.044 272.942 112.266C272.942 110.236 270.527 109.933 267.842 109.581C264.273 109.127 260.624 108.528 260.624 104.443C260.624 101.158 263.6 98.8258 268.031 98.8258C272.483 98.8258 275.702 101.385 275.702 104.916H272.726C272.726 102.81 270.769 101.304 268.058 101.304C265.481 101.304 263.821 102.508 263.821 104.135C263.821 106.165 266.02 106.493 268.758 106.846C272.3 107.299 276.138 107.898 276.138 111.883C276.138 115.354 273.211 117.832 268.57 117.832Z" fill="#2E2E2E"/>
<path d="M282.016 108.332C282.016 102.765 286.253 98.8308 292.344 98.8308C298.462 98.8308 302.699 102.765 302.699 108.332C302.699 113.923 298.462 117.832 292.344 117.832C286.258 117.832 282.016 113.923 282.016 108.332ZM285.234 108.332C285.234 112.341 288.183 115.203 292.344 115.228C296.527 115.228 299.481 112.346 299.481 108.332C299.481 104.322 296.533 101.46 292.344 101.46C288.188 101.46 285.234 104.322 285.234 108.332Z" fill="#2E2E2E"/>
<path d="M312.581 117.208H309.363V99.4554H318.107C322.263 99.4554 325.244 101.838 325.244 105.223C325.244 107.606 323.395 109.712 320.818 110.336L325.568 117.208H321.864L317.681 110.79H312.581V117.208V117.208ZM312.581 101.939V108.382H317.735C320.204 108.382 322.026 107.052 322.026 105.223C322.026 103.143 320.231 101.939 317.735 101.939H312.581V101.939Z" fill="#2E2E2E"/>
<path d="M335.545 102.04H329.453V99.4554H344.827V102.04H338.763V117.208H335.545V102.04Z" fill="#2E2E2E"/>
<path d="M357.843 117.832C353.094 117.832 349.66 115.122 349.66 111.415H352.717C352.717 113.697 354.862 115.349 357.924 115.349C360.635 115.349 362.215 114.044 362.215 112.266C362.215 110.236 359.8 109.933 357.115 109.581C353.547 109.127 349.897 108.528 349.897 104.443C349.897 101.158 352.873 98.8258 357.304 98.8258C361.757 98.8258 364.975 101.385 364.975 104.916H361.999C361.999 102.81 360.042 101.304 357.331 101.304C354.754 101.304 353.094 102.508 353.094 104.135C353.094 106.165 355.293 106.493 358.032 106.846C361.573 107.299 365.412 107.898 365.412 111.883C365.406 115.354 362.484 117.832 357.843 117.832Z" fill="#2E2E2E"/>
</g>
<defs>
<clipPath id="clip0_2_5">
<rect width="1854" height="2061" fill="white" transform="translate(-717 -318)"/>
</clipPath>
</defs>
</svg>
