<svg width="100" height="58" viewBox="0 0 100 58" fill="none" xmlns="http://www.w3.org/2000/svg">
<path fill-rule="evenodd" clip-rule="evenodd" d="M31.6927 26.2195L37.7213 18.8496V31.119H36.0369V23.4707L31.7024 28.782L27.3813 23.4707V31.119H25.7144V18.8496L31.6927 26.2195ZM46.4734 27.4762L44.2849 22.3336L42.1118 27.4762H46.4734ZM44.3409 18.8496L38.8126 31.119H40.6303L41.6405 28.7153H46.9293L47.9395 31.119H49.8074L44.3409 18.8496ZM56.8771 26.2195L62.9057 18.8496V31.119H61.2213V23.4707L56.8868 28.782L52.5657 23.4707V31.119H50.8988V18.8496L56.8771 26.2195ZM69.4712 22.3336L71.6598 27.4762H67.2982L69.4712 22.3336ZM63.9971 31.119L69.5253 18.8496L74.9937 31.119H73.1239L72.1137 28.7153H66.8269L65.8147 31.119H63.9971ZM36.8772 34.7539C36.778 34.6066 36.6373 34.4931 36.4735 34.4285C36.3076 34.3607 36.1307 34.3254 35.9519 34.3246C35.8439 34.3246 35.7362 34.3377 35.6313 34.3638C35.5324 34.388 35.4384 34.4291 35.3531 34.4853C35.2733 34.542 35.2072 34.6164 35.16 34.7029C35.108 34.8003 35.082 34.9098 35.0846 35.0206C35.0765 35.1848 35.1488 35.3426 35.2778 35.4421C35.421 35.5479 35.5784 35.6324 35.7452 35.693C35.9384 35.7656 36.1316 35.8342 36.3556 35.9009C36.5705 35.9636 36.7759 36.056 36.966 36.1753C37.153 36.2945 37.3119 36.4537 37.4315 36.642C37.569 36.8747 37.6362 37.1433 37.6247 37.4144C37.6308 37.6771 37.5766 37.9375 37.4663 38.1751C37.3659 38.3847 37.2207 38.5689 37.0414 38.7143C36.8483 38.865 36.6287 38.9768 36.3943 39.0437C36.152 39.1152 35.9009 39.1508 35.6487 39.1496C35.3195 39.1515 34.9925 39.0944 34.6828 38.981C34.3741 38.8675 34.1007 38.6726 33.8909 38.4163L34.6075 37.7125C34.72 37.89 34.8774 38.0336 35.0634 38.1281C35.2478 38.2271 35.4535 38.2783 35.6622 38.2771C35.7738 38.2775 35.8849 38.2624 35.9925 38.232C36.0996 38.2033 36.2014 38.1569 36.2938 38.0948C36.3914 38.0355 36.473 37.9527 36.5314 37.8536C36.5883 37.7551 36.6171 37.6424 36.6145 37.5282C36.6234 37.3531 36.5521 37.1838 36.4213 37.0694C36.2804 36.9539 36.1218 36.8625 35.9519 36.7988C35.7588 36.7243 35.5656 36.6557 35.3415 36.589C35.1272 36.5256 34.922 36.434 34.7311 36.3165C34.5435 36.201 34.3838 36.0442 34.2637 35.8577C34.1262 35.6264 34.059 35.3591 34.0705 35.0892C34.0637 34.8364 34.1223 34.5863 34.2405 34.3638C34.3501 34.1629 34.5017 33.9889 34.6848 33.854C34.8762 33.7169 35.0901 33.6154 35.3164 33.554C35.5525 33.4889 35.7961 33.456 36.0408 33.456C36.3181 33.4556 36.5938 33.4992 36.8578 33.5854C37.1228 33.6732 37.3655 33.8191 37.5687 34.0128L36.8772 34.7539ZM39.7649 33.5913H38.8165V39.0045H39.7649V36.6184H42.2586V39.0045H43.209V33.5913H42.2586V35.7479H39.7649V33.5913ZM44.6287 33.5913H48.1617V34.4618H45.5772V35.793H48.0265V36.6655H45.5772V38.132H48.2969V39.0045H44.6268L44.6287 33.5913ZM50.5607 33.5913H49.6123V39.0045H52.9501V38.132H50.5607V33.5913ZM54.3834 34.4618H52.757V33.5913H56.9679V34.4618H55.3318V39.0045H54.3834V34.4618ZM61.4492 33.5913H57.9163L57.9144 39.0045H61.5845V38.132H58.8647V36.6655H61.314V35.793H58.8647V34.4618H61.4492V33.5913ZM62.784 33.5913H64.6364C64.8861 33.5903 65.1352 33.6146 65.3801 33.6638C65.6049 33.7074 65.8202 33.7917 66.0156 33.9128C66.2013 34.0297 66.3543 34.1931 66.4599 34.3873C66.5782 34.6202 66.6354 34.8802 66.626 35.1421C66.6365 35.4971 66.5229 35.8443 66.3053 36.1224C66.0737 36.3978 65.745 36.5702 65.3897 36.6028L66.8075 38.9966H65.6621L64.4259 36.7027H63.7344V38.9966H62.784V33.5913ZM64.8779 35.8656C64.7427 35.8852 64.6074 35.8852 64.4722 35.8852L63.7344 35.8832V34.4147H64.5553C64.6799 34.4151 64.8044 34.4229 64.9281 34.4383C65.0488 34.4518 65.1667 34.4842 65.2777 34.5343C65.3825 34.5808 65.4717 34.6571 65.5346 34.7539C65.6036 34.8687 65.6373 35.0019 65.6312 35.1362C65.6396 35.2824 65.6032 35.4276 65.5269 35.5519C65.4576 35.651 65.3617 35.7279 65.2507 35.7734C65.1322 35.8245 65.0062 35.8556 64.8779 35.8656Z" fill="#8C7343"/>
</svg>
