<svg width="100" height="58" viewBox="0 0 100 58" fill="none" xmlns="http://www.w3.org/2000/svg">
<path fill-rule="evenodd" clip-rule="evenodd" d="M56.9171 21.0254H55.2716V34.4692C55.2716 35.9245 56.5561 37.4298 58.7056 37.4298C58.8263 37.4298 58.9502 37.4236 59.0959 37.4104L59.3054 37.3912V36.2729L59.0347 36.322C58.9244 36.3421 58.8135 36.3521 58.7056 36.3521C57.8168 36.3521 56.9171 35.7052 56.9171 34.4692V24.7148H59.3128V23.6229H56.9171V21.0254ZM24.8106 24.8993C25.5904 23.8981 26.8463 23.3075 28.2359 23.304C30.8859 23.3096 32.4689 25.2757 32.4689 27.1733L32.47 37.1037H30.835L30.8346 27.1733C30.8346 25.6325 29.6722 24.3791 28.2436 24.3791C26.787 24.3791 25.6459 25.6064 25.6459 27.1733L25.6452 37.1037H23.9761L23.9743 27.1733C23.9743 25.5803 22.8575 24.3791 21.3766 24.3791C19.9199 24.3791 18.7788 25.6064 18.7788 27.1733L18.7777 37.1037H17.1431L17.1444 27.1733C17.1444 25.2713 18.7275 23.304 21.3766 23.304C22.7693 23.304 24.0284 23.8947 24.8106 24.8993ZM38.1997 23.6288C41.1907 23.6288 42.9781 25.6908 42.9781 27.6844L42.9794 29.7121L42.9781 33.3747C42.9781 35.368 41.1907 37.4298 38.1997 37.4298C35.2101 37.4298 33.4217 35.3701 33.4198 33.3786C33.4198 31.388 35.0244 29.3246 37.7097 29.3167L41.3397 29.3187V27.6844C41.3397 25.9414 39.7161 24.7705 38.1997 24.7705H35.1872V23.6288H38.1997ZM41.3405 30.4617L41.3397 33.3747C41.3397 34.8382 40.1653 36.3521 38.1997 36.3521C36.6882 36.3521 35.0568 35.2138 35.0568 33.3749C35.0588 31.6669 36.4582 30.469 37.7117 30.4622L41.3405 30.4617ZM75.2953 27.6844L75.2962 29.3188H82.8574V30.3966H75.2964L75.2953 33.3747C75.2953 35.368 73.5077 37.4298 70.5165 37.4298C67.5268 37.4298 65.7381 35.3701 65.7356 33.3786C65.7356 31.388 67.3407 29.3246 70.0266 29.3167L73.6567 29.3187V27.6844C73.6567 25.8444 72.0267 24.7055 70.5165 24.7055H67.5039V23.6288H70.5165C73.5077 23.6288 75.2953 25.6908 75.2953 27.6844ZM73.658 30.3967L73.6567 33.3747C73.6567 35.2138 72.0267 36.3521 70.5165 36.3521C69.0053 36.3521 67.3742 35.2138 67.3742 33.3749C67.3762 31.6791 68.7783 30.4042 70.0291 30.3971L73.658 30.3967ZM44.1848 27.351C44.1848 25.3617 45.9729 23.304 48.965 23.304C51.956 23.304 53.7431 25.3617 53.7431 27.351L53.7447 37.1037H52.1068L52.1064 27.351C52.1064 25.6846 50.7265 24.3791 48.965 24.3791C47.2327 24.3791 45.8234 25.7123 45.8234 27.351V37.1037H44.1848V27.351ZM65.2957 23.6229H67.0934V24.7151H65.2957C63.7733 24.7151 62.1302 25.8493 62.1302 27.6817L62.1406 37.1037L60.4937 37.1042L60.4935 23.6243H62.13V24.5828C62.7954 24.0918 63.8181 23.6229 65.2957 23.6229Z" fill="#8C7343"/>
</svg>
