<svg width="100" height="58" viewBox="0 0 100 58" fill="none" xmlns="http://www.w3.org/2000/svg">
<path fill-rule="evenodd" clip-rule="evenodd" d="M70.0855 23.9049C70.3278 24.151 70.621 24.2737 70.9651 24.2737C71.3089 24.2737 71.6022 24.151 71.8447 23.9049C72.0871 23.659 72.2083 23.3613 72.2083 23.0119C72.2083 22.6629 72.0871 22.3655 71.8447 22.1191C71.6022 21.8732 71.3089 21.75 70.9651 21.75C70.621 21.75 70.3278 21.8732 70.0855 22.1191C69.8427 22.3655 69.7219 22.6629 69.7219 23.0119C69.7219 23.3613 69.8427 23.659 70.0855 23.9049ZM78.6351 29.4933C77.947 29.2711 77.4273 29.0289 77.0753 28.767C76.7236 28.505 76.5475 28.1206 76.5475 27.6122C76.5475 27.041 76.7545 26.585 77.1692 26.2433C77.5833 25.9021 78.1659 25.7314 78.9167 25.7314C79.3073 25.7314 79.6474 25.8028 79.937 25.9459C80.2263 26.0886 80.4685 26.2873 80.6642 26.541C80.8594 26.7951 81.0278 27.0848 81.1685 27.4098C81.3092 27.7354 81.4343 28.0728 81.5438 28.4218H81.8019V25.7075H81.5438C81.4653 25.835 81.3404 25.8981 81.1685 25.8981C80.9961 25.8981 80.8478 25.8704 80.7229 25.8149C80.5976 25.7593 80.4566 25.704 80.3006 25.6482C80.1441 25.5926 79.9605 25.5373 79.7495 25.4815C79.5382 25.4259 79.2605 25.3983 78.9167 25.3983C78.4317 25.3983 77.9821 25.4777 77.568 25.6361C77.1533 25.795 76.7974 26.017 76.5006 26.3029C76.2034 26.5885 75.9688 26.9218 75.7969 27.3027C75.6248 27.6836 75.5388 28.0967 75.5388 28.541C75.5388 29.0646 75.6129 29.4933 75.7618 29.8264C75.9101 30.1598 76.1019 30.4336 76.3364 30.6478C76.571 30.862 76.8249 31.0289 77.0989 31.1479C77.3723 31.2668 77.6264 31.3663 77.861 31.4455L79.6908 32.0882C80.0972 32.2312 80.4532 32.4258 80.7581 32.6717C81.063 32.9178 81.2153 33.3425 81.2153 33.9454C81.2153 34.644 81.0197 35.1476 80.629 35.4571C80.2379 35.7666 79.7923 35.9215 79.292 35.9215C78.6975 35.9215 78.1895 35.8184 77.7674 35.612C77.3451 35.4058 76.9891 35.1398 76.7 34.8145C76.4105 34.4892 76.1799 34.1322 76.008 33.743C75.8358 33.3543 75.6951 32.9691 75.5859 32.5882H75.3278V35.9215H75.5859C75.6327 35.8423 75.6951 35.7666 75.7734 35.6954C75.8517 35.6238 75.9765 35.5881 76.1487 35.5881C76.3206 35.5881 76.5083 35.6238 76.7117 35.6954C76.9148 35.7666 77.1377 35.8423 77.3802 35.9215C77.6225 36.0007 77.8883 36.0764 78.1778 36.1475C78.4669 36.2191 78.7837 36.2548 79.1277 36.2548C79.722 36.2548 80.2496 36.1596 80.711 35.969C81.1722 35.7787 81.5631 35.5285 81.8839 35.2193C82.2042 34.9098 82.4469 34.5488 82.6111 34.1357C82.7754 33.7234 82.8574 33.3025 82.8574 32.8741C82.8574 32.1442 82.6228 31.5567 82.1536 31.1122C81.6845 30.6679 81.0823 30.3187 80.3474 30.0645L78.6351 29.4933ZM72.0208 35.5881L71.9903 35.9215H69.9926L70.0035 35.5881V26.0409H68.1973V25.7075H72.0208V35.5881ZM64.3391 35.4971C64.1987 35.3392 64.1286 35.0307 64.1281 34.5726V26.0276H66.153V25.7108H64.1281V22.5422C63.9896 22.6455 63.8477 22.733 63.6976 22.7816C63.5252 22.8374 63.3223 22.8648 63.0878 22.8648C62.8215 22.8648 62.634 22.8492 62.5247 22.8173C62.4153 22.7856 62.2978 22.7459 62.173 22.6983V33.6738C62.173 34.5153 62.4034 35.166 62.8648 35.6263C63.147 35.9079 63.5792 36.0927 64.1281 36.202V36.1736L64.1781 36.182C64.2647 36.1967 64.3514 36.2114 64.4563 36.2114C64.8628 36.2114 65.2063 36.1505 65.4884 36.0328C66.0312 35.8063 66.0279 35.3543 66.0279 35.3543C65.8555 35.4815 65.676 35.5768 65.4884 35.6399C65.3007 35.7037 65.1206 35.7352 64.949 35.7352C64.6827 35.7352 64.4798 35.656 64.3391 35.4971ZM56.5696 27.8981C56.5696 27.2789 56.4247 26.7712 56.1356 26.3743C55.846 25.9778 55.3967 25.7792 54.7869 25.7792C54.286 25.7792 53.8092 25.8903 53.3559 26.1123C52.9021 26.3348 52.5033 26.6443 52.1598 27.041C51.8155 27.4378 51.5457 27.9061 51.3505 28.4457C51.1546 28.9855 51.0573 29.5728 51.0573 30.2073V35.5881L51.0441 35.9215H49.0464L49.0152 25.7075H51.0102V28.2551H51.0573C51.1511 28.0489 51.2876 27.7872 51.4677 27.4694C51.6473 27.1521 51.8935 26.8427 52.2066 26.541C52.5192 26.2398 52.9103 25.9816 53.3794 25.7671C53.8486 25.5529 54.4193 25.4458 55.0918 25.4458C56.124 25.4458 56.9641 25.6997 57.6134 26.2076C58.2621 26.7157 58.5868 27.5252 58.5868 28.636V35.5881L58.5987 35.9215H56.5696V27.8981ZM44.818 36.2548C45.2244 36.2548 45.568 36.1938 45.8501 36.0764C46.3928 35.8498 46.3896 35.3975 46.3896 35.3975C46.2175 35.525 46.0379 35.6203 45.8501 35.6834C45.6624 35.747 45.4826 35.7787 45.3107 35.7787C45.0446 35.7787 44.8415 35.6995 44.7008 35.5406C44.5601 35.3819 44.4898 35.0727 44.4898 34.6119V28.6838C44.4898 28.2551 44.4269 27.8468 44.302 27.4576C44.1767 27.0689 43.9656 26.7195 43.6687 26.41C43.3714 26.1005 42.9803 25.8546 42.4958 25.6718C42.011 25.4898 41.4089 25.3983 40.6898 25.3983C40.0951 25.3983 39.5675 25.4697 39.1063 25.6125C38.6448 25.7553 38.2619 25.9499 37.957 26.1958C37.652 26.4419 37.4212 26.7237 37.2651 27.041C37.1086 27.3586 37.0306 27.6919 37.0306 28.0409C37.0306 28.3426 37.0927 28.5885 37.2181 28.779C37.3432 28.9694 37.6639 29.0646 38.1799 29.0646C38.4766 29.0646 38.7035 28.9895 38.8601 28.8386C39.0161 28.6878 39.0946 28.5015 39.0946 28.279C39.0946 28.1523 39.0711 27.9577 39.0243 27.6957C38.9772 27.4337 38.9539 27.1682 38.9539 26.898C38.9539 26.4856 39.1216 26.188 39.4583 26.0052C39.7944 25.8229 40.2207 25.7314 40.7366 25.7314C41.1273 25.7314 41.4404 25.7872 41.6749 25.8981C41.9095 26.0095 42.0891 26.1719 42.2144 26.3861C42.3392 26.6005 42.4255 26.8587 42.4723 27.1599C42.5193 27.4616 42.5426 27.8028 42.5426 28.1837C42.5426 28.6599 42.5074 29.0373 42.4371 29.3146C42.3668 29.5926 42.2379 29.8229 42.0502 30.0049C41.8624 30.1877 41.6004 30.3426 41.2642 30.4693C40.9279 30.5965 40.5021 30.7474 39.9861 30.9216C39.5479 31.0647 39.114 31.1997 38.6842 31.3264C38.254 31.4536 37.8631 31.6163 37.5113 31.8146C37.1594 32.0132 36.874 32.2787 36.6551 32.6121C36.4361 32.9455 36.3269 33.39 36.3269 33.9454C36.3269 34.1834 36.362 34.4416 36.4324 34.7192C36.5027 34.997 36.6471 35.2469 36.8663 35.4692C37.0851 35.6917 37.39 35.878 37.7811 36.0286C38.1717 36.1792 38.6958 36.2548 39.3527 36.2548C39.9311 36.2548 40.4082 36.1872 40.7835 36.0525C41.159 35.9177 41.4597 35.7513 41.6866 35.5524C41.913 35.3543 42.0814 35.1476 42.1909 34.9334C42.3001 34.7192 42.3863 34.5405 42.449 34.3976H42.4958C42.6206 34.9852 42.8512 35.4415 43.1879 35.7666C43.524 36.0919 44.0674 36.2548 44.818 36.2548ZM42.4723 30.0884H42.4255C42.394 30.2951 42.1359 30.5012 41.6514 30.7074L39.8922 31.4217C39.3914 31.6281 39.0084 31.9179 38.7429 32.2908C38.4766 32.6639 38.3441 33.1283 38.3441 33.6834C38.3441 33.9215 38.3674 34.1679 38.4145 34.4215C38.4613 34.6757 38.547 34.9017 38.6723 35.1001C38.7974 35.2987 38.9733 35.4614 39.2002 35.5881C39.4268 35.7153 39.7198 35.7787 40.0797 35.7787C40.5959 35.7787 41.0141 35.6678 41.3348 35.4453C41.6551 35.2233 41.8976 34.9452 42.0618 34.6119C42.2261 34.2787 42.3353 33.918 42.3903 33.5288C42.4448 33.1401 42.4723 32.7871 42.4723 32.4693V30.0884ZM31.0727 27.4933V35.5881L31.0657 35.9215H33.0949L33.0899 35.5881V28.9932C33.0899 26.6284 31.9483 25.4458 29.6652 25.4458C29.1802 25.4458 28.7465 25.5094 28.3633 25.6361C27.9801 25.7636 27.648 25.9338 27.3666 26.148C27.085 26.3625 26.8504 26.6046 26.6629 26.8743C26.4751 27.1443 26.3263 27.4219 26.2173 27.7075H26.1702C25.9825 26.898 25.5874 26.319 24.9857 25.9695C24.3836 25.6205 23.6915 25.4458 22.9097 25.4458C22.0339 25.4458 21.2873 25.6683 20.6696 26.1123C20.0518 26.5568 19.5789 27.2552 19.2505 28.2076H19.2037V25.7075H17.1431V35.9215H19.2502L19.2505 30.3026C19.2505 29.4777 19.3637 28.779 19.5906 28.2076C19.8172 27.6361 20.0986 27.1718 20.435 26.8147C20.7711 26.4575 21.1347 26.1958 21.5259 26.0291C21.9165 25.8624 22.2764 25.7792 22.6048 25.7792C23.074 25.7792 23.4492 25.9459 23.7309 26.279C24.0123 26.6123 24.1529 27.1283 24.1529 27.8267V35.5881L24.1512 35.9215H26.1648L26.1702 35.5881V29.5169C26.1702 28.8824 26.2678 28.3265 26.4635 27.8503C26.6587 27.3741 26.9128 26.9855 27.2257 26.6838C27.5385 26.3826 27.8902 26.1563 28.2813 26.0052C28.672 25.8546 29.0631 25.7792 29.4542 25.7792C29.9543 25.7792 30.3491 25.93 30.6387 26.2315C30.9278 26.5331 31.0727 26.954 31.0727 27.4933Z" fill="#8C7343"/>
</svg>
