<svg width="100" height="58" viewBox="0 0 100 58" fill="none" xmlns="http://www.w3.org/2000/svg">
<path fill-rule="evenodd" clip-rule="evenodd" d="M29.5516 33.6401C26.5579 33.6401 24.7072 31.6015 24.7072 28.7839C24.7072 25.9248 26.5633 23.9248 29.5516 23.9248C32.5399 23.9248 34.3933 25.9248 34.3933 28.7839C34.3933 31.6015 32.5535 33.6401 29.5516 33.6401ZM20.3065 33.4551C18.3028 33.4551 16.7136 31.2166 15.289 29.2102C14.5599 28.1833 13.874 27.2172 13.1977 26.643V33.4551H11.4287V24.1126H12.1499C13.7211 24.1126 15.249 26.2075 16.7018 28.1995C17.5792 29.4026 18.4293 30.5681 19.2451 31.212V24.1126H21.0141V33.4551H20.3065ZM26.5933 28.7921C26.5933 26.922 27.6112 25.6292 29.5516 25.6292V25.6209C31.5057 25.6209 32.5236 26.9248 32.5236 28.7921C32.5236 30.6595 31.4921 31.9247 29.5516 31.9247C27.6112 31.9247 26.5933 30.6623 26.5933 28.7921ZM40.9904 33.5269L36.5297 24.1126H38.5709L41.4149 30.5656L44.2617 24.1126H46.3301L41.8395 33.5269H40.9904ZM48.4665 28.7839C48.4665 31.6015 50.3145 33.6401 53.3082 33.6401C56.3101 33.6401 58.1499 31.6015 58.1499 28.7839C58.1499 25.9248 56.2965 23.9248 53.3082 23.9248C50.3199 23.9248 48.4665 25.9248 48.4665 28.7839ZM53.3082 25.6292C51.3677 25.6292 50.3499 26.922 50.3499 28.7921C50.3499 30.6623 51.3677 31.9247 53.3082 31.9247C55.2487 31.9247 56.2829 30.6595 56.2829 28.7921C56.2829 26.9248 55.2623 25.6292 53.3082 25.6292ZM65.245 33.4551V25.7369H68.5571V24.1126H60.1448V25.7369H63.4596V33.4551H65.245ZM75.3856 33.6401C72.8382 33.6401 71.5345 32.7506 71.5345 30.2783V24.1126H78.2323V25.8088H73.3281V27.8502H77.8731V29.5463H73.3281V30.3225C73.3281 31.5849 74.0057 31.9164 75.4645 31.9164C76.3944 31.9318 77.3237 31.8597 78.2405 31.7009V33.3584C77.3042 33.555 76.3497 33.6476 75.3937 33.6346L75.3856 33.6401ZM82.0616 30.1927C82.0616 32.6484 83.0958 33.6401 85.6295 33.6401L85.6241 33.6429C86.6134 33.6546 87.6012 33.562 88.5716 33.3667V31.7092C87.6378 31.8459 86.6954 31.9133 85.752 31.9109C84.2987 31.9109 83.8469 31.4938 83.8469 30.2148V24.1154H82.0616V30.1927Z" fill="#8C7343"/>
</svg>
