<svg width="100" height="58" viewBox="0 0 100 58" fill="none" xmlns="http://www.w3.org/2000/svg">
<path fill-rule="evenodd" clip-rule="evenodd" d="M40.3988 34.1504C40.0715 34.0962 39.7054 33.9197 39.4041 33.754C37.9767 32.9239 37.6465 30.8922 37.7792 28.3091C37.9196 25.5743 38.4573 24.2383 39.4841 23.6584C39.7564 23.4834 40.1509 23.3487 40.3988 23.3037V23.2C37.9188 23.32 35.499 25.054 35.3274 28.3741C35.1732 31.3939 36.7333 33.9444 40.3988 34.2511V34.1504ZM50.029 33.9925C51.0749 33.8376 51.4456 33.4272 51.4456 32.0056V25.4629C51.4456 24.0424 51.0749 23.6304 50.029 23.4764V23.3393H53.8752V34.1288H50.029V33.9925ZM57.1517 26.3641H57.0235C56.6879 27.9499 56.1921 28.495 54.7526 28.6545V28.7954C56.1921 28.972 56.6879 29.5186 57.0235 31.1043H57.1517V26.3641ZM59.0039 23.3393V26.759H58.8636C58.679 25.819 57.7757 24.4373 56.4796 23.8813C55.8945 23.6304 55.298 23.4973 54.7526 23.4756V23.3393H59.0039ZM58.8636 30.7095C58.679 31.6494 57.7757 33.0308 56.4796 33.5867C55.8945 33.8376 55.298 33.9707 54.7526 33.9925V34.1288H59.0039V30.7095H58.8636ZM48.7039 27.747C49.2417 27.747 49.6773 28.1884 49.6773 28.735C49.6773 29.2786 49.2417 29.723 48.7039 29.723C48.1669 29.723 47.7313 29.2786 47.7313 28.735C47.7313 28.1884 48.1669 27.747 48.7039 27.747ZM41.276 23.3409V23.2278C44.8538 23.5825 46.3803 26.1071 46.2262 29.0927C46.0584 32.3602 43.7134 34.0916 41.276 34.2619V34.1395C41.5187 34.0885 41.8345 33.9584 42.0534 33.8097C43.0802 33.229 43.6348 31.8941 43.7759 29.1577C43.9087 26.5763 43.5776 24.5442 42.1503 23.7133C41.8848 23.5685 41.5697 23.4067 41.276 23.3409ZM40.8412 26.3641H40.713C40.3767 27.9499 39.8808 28.495 38.4413 28.6545V28.7954C39.8808 28.972 40.3767 29.5186 40.713 31.1043H40.8412C41.1769 29.5186 41.6728 28.972 43.1122 28.814V28.6731C41.6728 28.495 41.1769 27.9499 40.8412 26.3641ZM79.6169 27.9096C79.6169 27.4589 79.3308 27.2344 78.7617 27.2344H78.0508V28.6638H78.7617C79.3308 28.6638 79.6169 28.3804 79.6169 27.9096ZM79.7542 29.3529C80.2889 29.1407 80.6215 28.5213 80.6215 27.9018C80.6215 26.9154 79.9304 26.4121 78.8739 26.4121H77.0788V31.0486H78.0508V29.5H78.7823L79.7282 31.0486H80.8046L79.7542 29.3529ZM66.8696 30.2278V31.0486H63.7252V26.4121H66.8376V27.2329H64.6902V28.2534H66.6873V29.0757H64.6902V30.2278H66.8696ZM74.3806 27.2344C74.9879 27.2344 75.2877 27.3862 75.2877 27.8895C75.2877 28.3928 74.9879 28.6638 74.3806 28.6638H73.7155V27.2344H74.3806ZM76.287 27.8895C76.287 28.9425 75.5364 29.4861 74.4783 29.4861H73.7155V31.0486H72.7429V26.4121H74.4783C75.5692 26.4121 76.287 26.8566 76.287 27.8895ZM84.9347 31.0486V30.2278H82.7552V29.0757H84.7524V28.2534H82.7552V27.2329H84.9019V26.4121H81.7902V31.0486H84.9347ZM86.9646 27.6308C86.9646 28.0288 87.2843 28.1543 88.028 28.2797C89.1113 28.4656 89.6079 28.8496 89.6079 29.6843C89.6079 30.5794 88.8314 31.1415 87.7672 31.1415C86.6129 31.1415 85.9134 30.4787 85.8745 29.7308L86.854 29.5712C86.899 30.0157 87.1927 30.3409 87.7672 30.3409C88.2302 30.3409 88.6094 30.1613 88.6094 29.7369C88.6094 29.3931 88.3606 29.2274 87.6504 29.1144C86.6968 28.9626 85.9729 28.6436 85.9729 27.7114C85.9729 26.7838 86.7106 26.3192 87.7214 26.3192C88.6681 26.3192 89.379 26.7776 89.5354 27.5906L88.5437 27.8105C88.472 27.3862 88.1783 27.1214 87.6955 27.1214C87.2065 27.1214 86.9646 27.3196 86.9646 27.6308ZM92.7074 28.2797C91.9629 28.1543 91.6432 28.0288 91.6432 27.6308C91.6432 27.3196 91.885 27.1214 92.374 27.1214C92.8569 27.1214 93.1506 27.3862 93.2223 27.8105L94.2148 27.5906C94.0576 26.7776 93.3459 26.3192 92.3999 26.3192C91.3892 26.3192 90.6515 26.7838 90.6515 27.7114C90.6515 28.6436 91.3762 28.9626 92.3282 29.1144C93.04 29.2274 93.2872 29.3931 93.2872 29.7369C93.2872 30.1613 92.9095 30.3409 92.4465 30.3409C91.872 30.3409 91.5784 30.0157 91.5318 29.5712L90.5531 29.7308C90.5928 30.4787 91.2915 31.1415 92.4465 31.1415C93.5091 31.1415 94.2857 30.5794 94.2857 29.6843C94.2857 28.8496 93.7906 28.4656 92.7074 28.2797ZM68.7089 31.0486H67.602L67.6119 31.0331L69.1132 28.6653L67.6913 26.4276L67.6813 26.4121H68.9248L69.7388 27.7965L70.584 26.4121H71.7511L71.7389 26.4276L70.3048 28.6188L71.8701 31.0331L71.8808 31.0486H70.6435L69.6853 29.4845L68.7089 31.0486ZM12.9114 27.2096C13.4855 27.2096 13.7761 27.4373 13.7761 27.8925C13.7761 28.368 13.4855 28.656 12.9114 28.656H12.1928V27.2096H12.9114ZM14.7918 27.8849C14.7918 28.5104 14.4551 29.1376 13.9146 29.3514L14.9761 31.0656H13.8879L12.9316 29.4984H12.1928V31.0656H11.2099V26.3796H13.0239C14.0927 26.3796 14.7918 26.8875 14.7918 27.8849ZM16.0249 31.0656H17.0144V26.3781H16.0249V31.0656ZM21.4794 30.2356V31.0656H18.3005V26.3781H21.4466V27.2081H19.277V28.241H21.2947V29.0695H19.277V30.2356H21.4794ZM22.6343 31.0656H23.5703V27.9855H23.5901C24.0784 28.7814 25.4645 31.0656 25.4645 31.0656H26.4921V26.3796H25.5552V29.4582H25.5362C25.0808 28.7087 23.6626 26.3796 23.6626 26.3796H22.6343V31.0656ZM28.8409 27.2158H27.5081V26.3796H31.1691V27.2158H29.8364V31.0656H28.8409V27.2158ZM7.96394 30.3378C7.13279 30.3378 6.73651 29.6812 6.73651 28.7319C6.73651 27.7795 7.13279 27.1229 7.96394 27.1229C8.7951 27.1229 9.19099 27.7795 9.19099 28.7319C9.19099 29.6812 8.7951 30.3378 7.96394 30.3378ZM5.71429 28.7319C5.71429 27.2112 6.61184 26.2928 7.96394 26.2928C9.31683 26.2928 10.2136 27.2112 10.2136 28.7319C10.2136 30.251 9.31683 31.1678 7.96394 31.1678C6.61184 31.1678 5.71429 30.251 5.71429 28.7319Z" fill="#8C7343"/>
</svg>
