<svg width="70" height="40" viewBox="0 0 70 40" fill="none" xmlns="http://www.w3.org/2000/svg">
<path fill-rule="evenodd" clip-rule="evenodd" d="M51.8863 22.5492C52.2198 22.5421 52.5478 22.4629 52.8478 22.3171L52.9523 22.5484C52.5934 22.9394 52.0435 23.2143 51.3463 23.2143C50.617 23.2143 50.0885 22.8653 50.0885 21.9672V18.128H49.4514V17.7485C49.4558 17.7455 49.4764 17.7415 49.5087 17.7351C49.6386 17.7094 49.9568 17.6463 50.1626 17.4703C50.3099 17.3435 50.4095 17.1682 50.4342 16.8265C50.437 16.7113 50.4315 16.5961 50.4178 16.4816C50.3494 15.9713 49.9148 15.5761 49.3361 15.4988C49.2505 15.4856 49.1642 15.4782 49.0776 15.4765C48.9917 15.4779 48.9059 15.4847 48.8208 15.4971C48.238 15.5712 47.8034 15.9696 47.7392 16.4767C47.725 16.5914 47.7195 16.7069 47.7227 16.8224C47.7474 17.164 47.8462 17.3386 47.9943 17.4653C48.2018 17.6435 48.5236 17.7062 48.6514 17.7312C48.6819 17.7371 48.7013 17.7409 48.7056 17.7436V17.7576L48.7097 19.1915H48.3088C48.1606 18.3461 47.6856 17.9238 46.9349 17.9238C46.3645 17.9238 46.0154 18.2827 46.0154 18.7585C46.0154 19.3397 46.4484 19.6459 47.2625 19.8994C48.3195 20.2271 49.0274 20.5415 49.0274 21.6116C49.0274 22.5418 48.2767 23.2497 47.0617 23.2497C46.3752 23.2497 45.6672 23.123 45.1495 22.732L45.0861 21.326H45.4771C45.6886 22.2249 46.2064 22.774 47.0732 22.774C47.749 22.774 48.1507 22.457 48.1507 21.9072C48.1507 21.2206 47.6544 20.9877 46.7135 20.6922C45.7726 20.3966 45.1495 19.9949 45.1495 19.0335C45.1495 18.1469 45.7891 17.5024 46.8081 17.4373L46.8403 17.4332C46.9617 17.427 47.0834 17.427 47.2049 17.4332C47.2041 17.4305 47.2021 17.4261 47.1997 17.421C47.197 17.4153 47.1939 17.4088 47.1917 17.4028C47.1386 17.2506 47.1108 17.0907 47.1094 16.9294C47.1078 16.8263 47.113 16.7232 47.1251 16.6208C47.157 16.3385 47.2579 16.0685 47.4189 15.8346C47.7663 15.3391 48.3862 15.0658 49.0538 15.0822H49.0924C49.7592 15.0658 50.3815 15.3415 50.7297 15.8379C50.9364 16.1326 51.0335 16.4751 51.0475 16.9031L51.0516 17.583H52.6708V18.128H51.0516V21.7672C51.0516 22.3484 51.3051 22.5492 51.8863 22.5492ZM32.0923 17.4694V22.1697C32.0923 22.6554 32.4282 22.7048 32.9007 22.7682V23.1353H30.3184V22.7682C30.7802 22.7048 31.1268 22.6529 31.1268 22.1697V18.128H28.6498V22.1697C28.6498 22.6529 28.9857 22.7048 29.4582 22.7682V23.1353H26.8759V22.7682C27.3377 22.7048 27.6843 22.6529 27.6843 22.1697V18.128H26.908V17.7831L27.6843 17.5098V17.3633C27.6843 16.0297 28.5766 15.0962 29.9513 15.0962C30.8123 15.0962 31.442 15.358 31.442 15.9145C31.4371 16.1603 31.3007 16.3846 31.0848 16.5022H30.4765V16.2396C30.4765 15.7046 30.2559 15.5054 29.7521 15.5054C29.1536 15.5054 28.6498 16.0198 28.6498 17.1114V17.5937H31.5672L31.8619 17.4694H32.0923ZM58.4774 22.485C58.3154 22.5228 58.1499 22.5437 57.9835 22.5476C57.6798 22.5476 57.5012 22.2957 57.5012 21.8339C57.5012 21.6005 57.5099 20.9809 57.5182 20.3983C57.5255 19.8815 57.5324 19.3939 57.5324 19.231C57.5324 18.0868 56.9241 17.4678 55.7215 17.4678C54.5773 17.4678 53.7269 17.9716 53.7269 18.8326C53.715 19.0444 53.7955 19.251 53.9475 19.399L54.7345 19.2944C54.6863 19.1165 54.6617 18.933 54.6612 18.7486C54.6612 18.2128 54.9551 17.9716 55.5214 17.9716C56.3405 17.9716 56.5603 18.528 56.5603 19.1578V19.6722L54.8983 20.2682C54.2159 20.5102 53.4396 20.8444 53.4396 21.8215C53.4396 22.5879 53.88 23.239 54.8349 23.239C55.612 23.239 56.2104 22.7139 56.5883 22.2833C56.6821 22.8505 56.9447 23.239 57.4806 23.239C57.8477 23.239 58.1729 23.0917 58.5293 22.7344L58.4774 22.485ZM20.684 22.1697V19.189C20.684 17.9633 20.1251 17.4694 19.2146 17.4694C18.3437 17.4694 17.714 17.9946 17.1995 18.4984V17.4694H16.9369L15.4783 17.993V18.2103L16.2339 18.5783V22.1697C16.2339 22.6529 15.8874 22.7048 15.4264 22.7682V23.1353H18.0079V22.7682C17.5354 22.7048 17.1995 22.6529 17.1995 22.1697V18.8005C17.6423 18.4574 18.1822 18.2629 18.7421 18.2449C19.4139 18.2449 19.7184 18.5066 19.7184 19.2623V22.1697C19.7184 22.6529 19.3727 22.7048 18.9101 22.7682V23.1353H21.5031V22.7682C21.0306 22.7048 20.684 22.6554 20.684 22.1697ZM55.2652 22.5056C55.7591 22.5056 56.1156 22.3624 56.556 22.0331V20.1546L55.066 20.721C54.6775 20.8683 54.4256 21.1729 54.4256 21.5713C54.4256 22.1697 54.7302 22.5056 55.2652 22.5056ZM12.6136 17.4694C11.1862 17.4694 10 18.654 10 20.4592C10 22.0792 10.9969 23.2407 12.5518 23.2407C13.9792 23.2407 15.1654 22.0545 15.1654 20.2493C15.1637 18.6326 14.1669 17.4694 12.6136 17.4694ZM11.0076 20.2682C11.0076 21.5853 11.6159 22.6949 12.6761 22.6966V22.6949C13.6631 22.6949 14.1562 21.7919 14.1578 20.4361C14.1578 19.1248 13.5487 18.0119 12.4893 18.0119C11.5015 18.0119 11.0076 18.9149 11.0076 20.2682ZM61.9297 17.5732V17.9403C62.4656 18.0136 62.6854 18.0662 62.6854 18.3181C62.68 18.4165 62.6551 18.5127 62.6121 18.6013L61.3214 22.0224L59.936 18.6013C59.8879 18.5146 59.8627 18.4172 59.8627 18.3181C59.8627 18.0662 60.0726 18.0136 60.6184 17.9403V17.5732H58.162V17.9403C58.6345 18.1189 58.6765 18.1395 58.7811 18.3601L60.8596 23.1666L60.6497 23.7255C60.4398 24.3018 60.1772 24.4499 59.5162 24.4499H58.9704V24.9323C59.1668 25.1766 59.4653 25.3161 59.7787 25.3101C60.4184 25.3101 60.7443 24.8796 61.0061 24.2087L63.3258 18.3642C63.4071 18.1358 63.4715 18.1129 63.9272 17.9507L63.9448 17.9444V17.5732H61.9297ZM24.3997 22.4455C25.1867 22.4455 25.6798 22.0545 26.0683 21.54L26.2461 21.6347C25.9942 22.5682 25.2172 23.2407 24.0417 23.2407C22.5122 23.2407 21.6067 22.0331 21.6067 20.5325C21.6067 18.696 22.6768 17.4694 24.1265 17.4711C25.5118 17.4711 26.2362 18.4367 26.2362 19.8114V20.1406H22.4785C22.4785 21.512 23.2136 22.4455 24.3997 22.4455ZM23.9691 17.9823C24.8293 17.9823 25.2706 18.6227 25.2706 19.6286H22.5203C22.6043 18.7585 23.1402 17.9823 23.9691 17.9823ZM42.451 22.4455C43.238 22.4455 43.7311 22.0545 44.1196 21.54L44.2982 21.638C44.0463 22.5715 43.2693 23.244 42.0946 23.244C40.5652 23.244 39.6597 22.0364 39.6597 20.5358C39.6597 18.6993 40.7298 17.4711 42.1777 17.4711C43.5631 17.4711 44.2875 18.4367 44.2875 19.8114V20.1406H40.5306C40.5306 21.512 41.2648 22.4455 42.451 22.4455ZM42.0214 17.9823C42.8824 17.9823 43.3228 18.6227 43.3228 19.6286H40.5726C40.6566 18.7585 41.1916 17.9823 42.0214 17.9823ZM38.7362 22.1697V19.189C38.7362 17.9633 38.1797 17.4694 37.2668 17.4694C36.3951 17.4694 35.7653 17.9946 35.2517 18.4984V17.4694H34.9891L33.5304 17.9946V18.2103L34.2836 18.5807V22.1697C34.2836 22.6529 33.9371 22.7048 33.4753 22.7682V23.1353H36.0567V22.7682C35.5851 22.7048 35.2492 22.6529 35.2492 22.1697V18.8005C35.6919 18.4573 36.2319 18.2628 36.7918 18.2449C37.4635 18.2449 37.7681 18.5066 37.7681 19.2623V22.1697C37.7681 22.6529 37.4215 22.7048 36.9597 22.7682V23.1353H39.5519V22.7682C39.0819 22.7048 38.7362 22.6554 38.7362 22.1697Z" fill="#8C7343"/>
</svg>
