<svg width="100" height="58" viewBox="0 0 100 58" fill="none" xmlns="http://www.w3.org/2000/svg">
<path fill-rule="evenodd" clip-rule="evenodd" d="M80.5306 31.6278L80.4865 29.6149C81.032 30.8008 82.1326 32.0591 84.0574 32.0591C86.3255 32.0591 86.9274 30.4687 86.9274 29.5445C86.9274 28.6402 86.5328 28.0885 85.8951 27.6592C85.5785 27.4471 85.2037 27.2651 84.7882 27.0831C84.593 26.9971 84.3875 26.9106 84.1735 26.8206C83.9355 26.7204 83.687 26.6159 83.4302 26.5025C81.4664 25.6259 80.5334 24.7561 80.5334 23.3577C80.5334 21.3064 82.7085 20.2998 84.6254 20.2998C85.3566 20.2998 86.5017 20.4198 87.4209 20.9316L87.4943 22.646C87.0138 21.791 85.9404 20.7907 84.342 20.7907C82.5488 20.7907 81.9784 21.977 81.9784 22.802C81.9784 24.0183 82.8823 24.4568 84.8055 25.3062C84.9762 25.3816 85.1464 25.4547 85.3148 25.5271C85.6267 25.6611 85.9327 25.7926 86.225 25.9308C86.6716 26.1412 87.0819 26.3645 87.4304 26.6337C88.1194 27.1659 88.5716 27.8789 88.5716 29.0423C88.5716 31.1949 86.3452 32.5852 84.1997 32.5852C82.5047 32.5852 81.2855 32.0031 80.5306 31.6278ZM15.0674 20.4992H11.4535C11.6991 20.6544 11.8304 20.9697 11.8304 21.2738V31.6099C11.8304 31.9132 11.6755 32.2508 11.4287 32.4225H13.8671C13.6342 32.2696 13.4741 31.9104 13.4741 31.6099V26.8067L13.618 26.8551C15.218 27.4001 17.12 26.9948 17.7644 26.7487C18.4212 26.4978 20.15 25.5548 20.15 23.6804C20.15 22.3624 19.2687 20.4992 15.0674 20.4992ZM14.622 26.6223C14.1734 26.6223 13.7544 26.5691 13.5455 26.4898L13.4741 26.4634V20.9749C13.4741 20.9749 14.026 20.9525 15.004 20.9525C17.1858 20.9525 18.3561 22.0059 18.3561 23.716C18.3561 26.2874 15.7529 26.6223 14.622 26.6223ZM70.8273 27.8522C70.4268 27.8522 69.934 27.8266 69.934 27.8266V24.2605C69.934 24.2605 70.3956 24.2217 71.0886 24.2217C72.7205 24.2217 73.1518 25.2979 73.1518 25.9065C73.1518 27.2684 71.9976 27.8522 70.8273 27.8522ZM73.7659 29.0196C73.7659 29.0196 75.4081 31.3922 76.0687 32.0012C76.4065 32.3125 77.053 32.5213 77.053 32.5213L75.4849 32.5481C74.8858 32.5609 74.4557 32.208 74.2255 31.936C73.6509 31.2223 73.2002 30.6061 72.7876 30.042C72.6384 29.838 72.4941 29.6407 72.3508 29.4482C72.3087 29.3935 72.2675 29.3384 72.2264 29.2835C71.8779 28.8177 71.5443 28.3719 70.8273 28.3719H69.934V31.936C69.934 32.2208 70.1347 32.4041 70.3661 32.5213H68.0739C68.3053 32.4041 68.4901 32.2208 68.4901 31.936V24.2865C68.4901 23.9872 68.3053 23.8052 68.0739 23.7016H70.9652C74.041 23.7016 74.7009 25.0511 74.7009 25.8677C74.7009 27.2684 73.2286 27.9818 72.2747 28.0466C73.0916 28.1869 73.5198 28.7158 73.7533 29.0041L73.7659 29.0196ZM63.506 32.5321L63.8292 31.1513C63.2714 31.955 62.6976 31.9593 61.1116 31.9712L61.01 31.9719C60.2875 31.9719 59.5634 31.9199 59.2248 31.8939V28.1658H62.0136C62.2296 28.1658 62.4756 28.3743 62.5525 28.5303V27.268C62.4756 27.424 62.2296 27.6313 62.0136 27.6313H59.2248V24.2192C59.2248 24.2192 61.5808 24.2452 61.8729 24.2452C62.5359 24.2452 62.8591 24.4013 63.1674 24.6998L63.1358 23.6851H57.3449C57.5924 23.7891 57.7773 23.9712 57.7773 24.2717V31.9459C57.7773 32.2584 57.5924 32.4148 57.3153 32.5321H63.506ZM48.0429 28.0679C48.1821 28.1199 48.4745 28.1587 48.7986 28.1587C49.6299 28.1587 51.4325 27.9119 51.4325 26.1302C51.4325 24.9467 50.6315 24.2058 49.0757 24.2058C48.3669 24.2058 48.0429 24.2186 48.0429 24.2186V28.0679ZM49.1214 23.6844H46.18C46.4106 23.7885 46.6112 23.9705 46.6112 24.271V31.9444C46.6112 32.2305 46.4106 32.4138 46.18 32.5314H48.4745C48.2128 32.4138 48.0429 32.2305 48.0429 31.9444V28.4844C49.2294 28.8873 50.6315 28.5884 51.1097 28.4068C51.5862 28.2243 52.9572 27.5218 52.9572 26.1042C52.9572 25.0896 52.2027 23.6844 49.1214 23.6844ZM36.8806 28.0679C37.0182 28.1199 37.3115 28.1587 37.6347 28.1587C38.4672 28.1587 40.2686 27.9119 40.2686 26.1302C40.2686 24.9467 39.4677 24.2058 37.9122 24.2058C37.2035 24.2058 36.8806 24.2186 36.8806 24.2186V28.0679ZM37.9583 23.6844H35.0165C35.2479 23.7885 35.4474 23.9705 35.4474 24.271V31.9444C35.4474 32.2305 35.2479 32.4138 35.0165 32.5314H37.3115C37.0497 32.4138 36.8806 32.2305 36.8806 31.9444V28.4844C38.0659 28.8873 39.4677 28.5884 39.9458 28.4068C40.4232 28.2243 41.7941 27.5218 41.7941 26.1042C41.7941 25.0896 41.0385 23.6844 37.9583 23.6844ZM27.9814 31.9712C29.5674 31.9593 30.1397 31.955 30.6987 31.1513L30.3751 32.5321H24.1844C24.4615 32.4148 24.6456 32.2584 24.6456 31.9459V24.2717C24.6456 23.9712 24.4615 23.7891 24.2144 23.6851H30.0057L30.0357 24.6998C29.7278 24.4013 29.4042 24.2452 28.742 24.2452C28.4503 24.2452 26.0938 24.2192 26.0938 24.2192V27.6313H28.8827C29.0987 27.6313 29.3455 27.424 29.4223 27.268V28.5303C29.3455 28.3743 29.0987 28.1658 28.8827 28.1658H26.0938V31.8939C26.4324 31.9199 27.1558 31.9719 27.8799 31.9719C27.9142 31.9717 27.948 31.9714 27.9814 31.9712Z" fill="#8C7343"/>
</svg>
