<svg width="100" height="58" viewBox="0 0 100 58" fill="none" xmlns="http://www.w3.org/2000/svg">
<path fill-rule="evenodd" clip-rule="evenodd" d="M37.1631 22.4746V31.3839H38.1951V22.4746H37.1631ZM31.2132 28.5477V25.2956H30.1701V28.6612C30.1842 29.2411 29.9585 29.8006 29.5479 30.204C29.0298 30.5986 28.3914 30.7954 27.7447 30.7599C27.0945 30.795 26.4524 30.6014 25.9266 30.2116C25.5196 29.8313 25.2953 29.2904 25.3119 28.7292V25.2956H24.2575V28.5704C24.2336 29.4049 24.5552 30.2113 25.1442 30.7939C25.7552 31.3271 26.6345 31.5313 27.7521 31.5313C28.8698 31.5313 29.7155 31.3234 30.3303 30.775C30.9158 30.1831 31.2329 29.3709 31.2058 28.5326L31.2132 28.5477ZM44.1412 31.3839V22.4746H45.1732V31.3839H44.1412ZM56.8418 26.2372C56.1861 25.5062 55.2443 25.1086 54.2712 25.1519C53.4172 25.1049 52.5754 25.3735 51.9017 25.9082C51.8898 25.9193 51.8743 25.9323 51.8557 25.9479C51.6589 26.113 51.1267 26.5594 51.1267 27.8935V31.3763H52.1662V27.9427C52.1662 26.9141 52.4232 26.6191 52.7138 26.396C53.6614 25.7882 54.8711 25.7971 55.8098 26.4187C56.1582 26.6865 56.3557 27.11 56.3389 27.5532V31.4103H57.3224V27.5381C57.32 27.0894 57.5308 26.667 57.8887 26.4036C58.8381 25.7729 60.0652 25.7729 61.0145 26.4036C61.3629 26.6713 61.5604 27.0949 61.5436 27.5381V31.3763H62.5495V27.9729C62.5495 26.7628 62.3111 26.328 61.7708 25.8742C61.0951 25.3614 60.2622 25.1082 59.42 25.1595C58.446 25.1238 57.505 25.5199 56.8418 26.2448V26.2372ZM89.7019 27.954V35.517H88.6699V27.8065C88.6812 27.2935 88.4482 26.8064 88.044 26.4981C87.5218 26.1062 86.882 25.9098 86.2333 25.9423C85.6001 25.9072 84.9723 26.0781 84.4413 26.4301C84.0329 26.7052 83.7913 27.173 83.8005 27.6704V31.3612H82.7648V27.9011C82.7648 27.175 82.8355 26.6872 83.644 25.9649C84.3867 25.3795 85.3131 25.0867 86.2519 25.1406C87.1777 25.0848 88.0922 25.3709 88.8264 25.946C89.4054 26.4442 89.728 27.184 89.7019 27.954ZM16.6162 30.049C15.9211 30.5398 15.0849 30.7819 14.2393 30.7372C13.1551 30.6956 11.0427 29.9393 11.0501 28.5402C11.0684 27.8757 11.3347 27.243 11.7953 26.7704C12.3541 26.2221 13.1738 25.946 14.2281 25.946C15.072 25.9007 15.9065 26.1444 16.5976 26.6381C17.1287 27.0371 17.4357 27.673 17.421 28.3435C17.4412 29.0135 17.1363 29.6509 16.6051 30.049L16.6162 30.049ZM14.2728 25.1519C15.3654 25.0958 16.4461 25.4039 17.3502 26.0292L17.3539 26.0141C18.0903 26.5499 18.5184 27.4203 18.4977 28.3397C18.5079 29.2645 18.0637 30.1337 17.3129 30.6578C16.4074 31.2798 15.3278 31.5876 14.2356 31.5351C12.9614 31.5351 11.3929 30.8431 11.0539 30.4007V35.5246H10.0219V29.0204C9.83559 27.1486 10.8043 25.1519 14.2728 25.1519ZM74.9 29.9923C74.2144 30.4314 73.4323 30.6912 72.6236 30.7486C71.5432 30.7486 70.8129 30.5217 70.2392 30.0679C69.7115 29.6645 69.411 29.025 69.4345 28.3549C69.4153 27.6834 69.7233 27.0454 70.2578 26.6494C70.9473 26.1552 71.7808 25.9114 72.6236 25.9574C73.5057 25.902 74.3744 26.1977 75.0453 26.7818C75.5444 27.2777 75.8149 27.964 75.7904 28.6725C75.768 29.2473 75.4178 29.6481 74.8962 30.0112L74.9 29.9923ZM72.5789 25.1708C74.0505 25.1708 75.4625 25.7721 76.0884 26.5284V26.5095C76.5885 27.0898 76.8346 27.8514 76.7702 28.6196V31.4028H75.7904V30.3591C74.8944 31.1139 73.7693 31.5319 72.605 31.5427C71.0365 31.5427 70.3174 31.2742 69.5462 30.6918C68.7911 30.1708 68.3435 29.3005 68.354 28.3738C68.3314 27.4539 68.7599 26.5826 69.4978 26.0481C70.4029 25.422 71.485 25.1139 72.5789 25.1708Z" fill="#8C7343"/>
</svg>
