<svg width="100" height="58" viewBox="0 0 100 58" fill="none" xmlns="http://www.w3.org/2000/svg">
<path fill-rule="evenodd" clip-rule="evenodd" d="M76.8119 25.2705C76.8119 24.2 77.8689 23.6236 78.8981 23.6236C80.8312 23.6236 81.522 24.7741 81.9114 26.5574H82.3032V23.3154H81.9392C81.8952 23.7577 81.7237 23.8871 81.5035 23.8871C81.3259 23.8871 81.1393 23.799 80.8999 23.6859C80.4705 23.4832 79.8709 23.2001 78.8471 23.2001C77.192 23.1883 75.5556 24.327 75.5556 26.1387C75.5556 27.9685 77.1899 28.5964 78.7502 29.1958C80.1751 29.7432 81.5382 30.2668 81.5382 31.6605C81.5382 32.9639 80.3792 33.6462 79.2481 33.6462C77.0831 33.6462 76.0678 31.9264 75.8059 30.3312H75.4327V33.9168H75.7874C75.8638 33.5262 76.091 33.4745 76.2509 33.4745C76.5287 33.4745 76.8176 33.5736 77.1646 33.6926C77.6862 33.8716 78.3391 34.0956 79.2828 34.0956C81.3134 34.0956 82.8571 32.6628 82.8571 30.8535C82.8571 28.8548 81.2224 28.3091 79.6537 27.7855C78.207 27.3026 76.8165 26.8384 76.8165 25.2705H76.8119ZM31.7831 23.3013H31.3404L28.1856 32.4416C27.9538 33.1216 27.6085 33.4721 27.1518 33.4721H26.7786V33.9168H29.6599V33.4721H29.2125C28.4893 33.4721 28.4661 32.9804 28.6446 32.4722L29.2844 30.59H32.8424L33.9319 33.4604H32.8007V33.905H36.7413V33.4721H35.5823L31.7831 23.3013ZM29.4513 30.1242L30.9718 25.6681L32.6732 30.1218L29.4513 30.1242ZM60.0437 33.4745C62.4799 33.4745 63.3121 32.7404 63.4743 30.3736H63.8383V33.9168H56.3025V33.4721H57.3619V23.7459H56.3025V23.3013H60.0368V23.7459H58.9381V33.4745H60.0437ZM69.0722 33.4745C71.5107 33.4745 72.3405 32.7404 72.5028 30.3736H72.8667V33.9168H65.331V33.4721H66.3903V23.7459H65.331V23.3013H72.5422V26.261H72.1806C71.9905 24.5059 71.3577 23.7459 70.1176 23.7459H67.9665V28.2396H69.0977C69.7421 28.2396 70.2057 27.955 70.2057 26.7245H70.6229V30.1901H70.2057C70.2057 28.9619 69.7375 28.6749 69.0977 28.6749H67.9665V33.4745H69.0722ZM46.9866 23.7459H48.0483V33.4721H46.9866V33.9168H50.6954V33.4721H49.6222V28.6749H50.7533C51.3908 28.6749 51.859 28.9619 51.859 30.1901H52.2739V26.7245H51.859C51.859 27.955 51.3954 28.2396 50.7533 28.2396H49.6199V23.7459H51.6064C52.8465 23.7459 53.4793 24.5059 53.6693 26.261H54.0309V23.3013H46.9866V23.7459ZM38.7254 23.7459H37.6661V23.3013H44.7266V26.261H44.3558C44.1634 24.5059 43.5329 23.7459 42.2905 23.7459H40.304V28.2396H41.4351C42.0795 28.2396 42.5431 27.955 42.5431 26.7245H42.9603V30.1901H42.5431C42.5431 28.9619 42.0749 28.6749 41.4351 28.6749H40.304V33.4721H41.3749V33.9168H37.6661V33.4721H38.7254V23.7459ZM24.6531 30.7524C24.3842 28.9666 23.4941 28.4702 22.3467 28.3596C23.7491 28.0702 24.908 27.315 24.908 25.8563C24.908 23.6165 22.5901 23.2918 20.8794 23.2918H17.1429V23.7342H18.2022V33.458H17.1429V33.9027H20.8841V33.4557H19.7784V28.7078H20.9976C22.5623 28.7078 22.7083 29.3078 22.8937 30.5077C22.9401 30.8063 22.9674 31.022 22.9954 31.2437C23.0277 31.4989 23.061 31.7621 23.1255 32.1687C23.3017 33.3451 23.851 34.4085 26.0323 33.905V33.458C24.9095 33.7372 24.8155 32.5491 24.7307 31.478C24.7105 31.2223 24.6908 30.9732 24.6577 30.7524L24.6531 30.7524ZM19.7807 28.1902H20.8678L20.8678 28.1926C22.0662 28.1926 23.0583 27.7714 23.0583 25.8399C23.0583 23.9083 22.0546 23.7342 20.8794 23.7342H19.7807V28.1902Z" fill="#8C7343"/>
</svg>
