<svg width="100" height="58" viewBox="0 0 100 58" fill="none" xmlns="http://www.w3.org/2000/svg">
<path fill-rule="evenodd" clip-rule="evenodd" d="M49.9995 21.025L50.9154 22.2429L50.3971 25.2076L51.4692 22.2429H52.8212L49.9995 26.5869L47.1788 22.2429H48.5298L49.6019 25.2076L49.0846 22.2429L49.9995 21.025ZM72.5798 32.7924C72.2855 32.4195 72.0563 31.9979 71.9022 31.5458H71.6409L71.9792 34.0177H72.23C72.244 33.9243 72.274 33.8341 72.3185 33.7512C72.3797 33.6612 72.4846 33.6131 72.5912 33.6259C72.8149 33.676 73.0342 33.7446 73.2469 33.8309C73.6017 33.9613 73.9753 34.0302 74.3523 34.0347C75.0532 34.0347 75.6277 33.8309 76.076 33.4231C76.5146 33.0438 76.7633 32.4838 76.7536 31.8972C76.7625 31.4717 76.6292 31.0557 76.3757 30.7175C76.1183 30.3898 75.6773 30.0287 75.0528 29.6344L74.0526 29.0058C73.7423 28.8262 73.4614 28.5984 73.2199 28.3305C73.0414 28.1176 72.9465 27.8449 72.9534 27.5649C72.9384 27.2648 73.0663 26.9757 73.2969 26.7887C73.5288 26.6003 73.8176 26.5001 74.114 26.5052C74.5147 26.5052 74.9206 26.6528 75.3224 26.9427C75.7339 27.2386 76.0323 27.7585 76.2175 28.5025H76.4902L76.2404 26.0305H76.0062C75.9859 26.1356 75.9421 26.2344 75.8782 26.3194C75.8034 26.3984 75.6969 26.4376 75.5899 26.4255C75.3772 26.3781 75.1684 26.3138 74.9654 26.2334C74.6663 26.1137 74.3496 26.0466 74.0286 26.0348C73.3986 26.0348 72.8927 26.2291 72.5111 26.6177C72.1302 27.0043 71.923 27.5342 71.9386 28.082C71.9426 28.5344 72.1157 28.9681 72.4226 29.2947C72.6315 29.5165 72.8685 29.7089 73.1272 29.867L74.0994 30.485C74.6587 30.8411 75.0258 31.1076 75.2006 31.2846C75.4589 31.5448 75.6031 31.9006 75.6003 32.271C75.6003 32.6915 75.4671 33.0185 75.2006 33.2522C74.9422 33.4843 74.6081 33.6097 74.2638 33.6036C73.61 33.6122 72.9887 33.3129 72.5798 32.7924ZM37.1179 33.4592C36.9812 33.5668 36.6811 33.6376 36.2175 33.6716V33.8871H39.5857V33.6748C39.1226 33.6376 38.8218 33.5686 38.6854 33.4624C38.5466 33.3527 38.4772 33.0727 38.4772 32.6225V27.4577C38.4772 27.0308 38.5491 26.759 38.6854 26.6347C38.8218 26.5105 39.1226 26.4372 39.5857 26.4149V26.2026H36.2175V26.4149C36.6807 26.4372 36.9774 26.5126 37.1179 26.6347C37.2584 26.7568 37.326 27.0329 37.326 27.4577V32.6193C37.326 33.0695 37.2553 33.353 37.1179 33.4592ZM59.3359 27.0605C60.0368 26.3767 60.8983 26.0348 61.9204 26.0348C62.9425 26.0348 63.8064 26.3788 64.5121 27.0669C65.2705 27.8109 65.6501 28.802 65.6508 30.0401C65.6508 31.298 65.258 32.2997 64.4725 33.0451C63.7825 33.7046 62.8668 34.0625 61.9214 34.0422C60.8549 34.0422 59.9695 33.6737 59.2652 32.9368C58.5497 32.185 58.192 31.2194 58.192 30.0401C58.192 28.7998 58.5737 27.8056 59.337 27.0573L59.3359 27.0605ZM61.9214 33.6227C61.2358 33.6234 60.6578 33.3329 60.1874 32.751L60.1863 32.7542C59.7158 32.168 59.4806 31.2644 59.4806 30.0433C59.4771 28.8214 59.7124 27.9178 60.1863 27.3324C60.6602 26.7469 61.2383 26.4542 61.9204 26.4542C62.5796 26.4521 63.1503 26.7324 63.6326 27.2952C64.1148 27.858 64.356 28.7729 64.356 30.0401C64.3525 31.2959 64.1135 32.2069 63.6388 32.7733C63.1642 33.3396 62.5917 33.6227 61.9214 33.6227ZM27.1455 29.6461C27.7502 29.3923 28.051 28.9166 28.052 28.2179C28.052 27.5447 27.7814 27.0846 27.2402 26.8375C26.9515 26.7052 26.5681 26.639 26.09 26.639C25.7674 26.639 25.5696 26.6634 25.4947 26.7133C25.4197 26.7632 25.3906 26.8673 25.3906 27.0414V29.9084C26.2101 29.8773 26.7954 29.7902 27.1465 29.6472L27.1455 29.6461ZM24.0687 33.4114C23.9611 33.5431 23.6888 33.6298 23.2516 33.6716V33.884H26.4137V33.6716C25.9839 33.6344 25.7018 33.5633 25.5748 33.4454C25.4478 33.3275 25.3854 33.0536 25.3854 32.6225V30.3384L26.0193 30.3098L28.7317 33.8882H30.5699V33.6758C30.3758 33.663 30.1866 33.6091 30.0141 33.5176C29.8464 33.414 29.6992 33.2793 29.58 33.1205L27.235 30.1781C27.8689 30.0794 28.3664 29.8755 28.7359 29.5654C29.1054 29.2554 29.2917 28.8115 29.2917 28.2328C29.2917 27.3713 28.8754 26.7798 28.0427 26.4585C27.5157 26.2734 26.9604 26.1867 26.4033 26.2026H23.2527V26.4149C23.6638 26.4457 23.9251 26.5339 24.0468 26.6581C24.1686 26.7823 24.2311 27.0488 24.2311 27.4577V32.4929C24.2304 32.9736 24.1763 33.2798 24.0687 33.4114ZM49.9995 28.6597L53.3854 23.5872L55.0414 23.5872L51.0372 29.9296L54.725 35.739L88.5714 35.79L81.8996 36.8741L53.7996 36.975L49.9995 31.0563L46.1993 36.975L18.1004 36.8741L11.4286 35.79L45.275 35.739L48.9628 29.9296L44.9576 23.5872H46.6146L49.9995 28.6597Z" fill="#8C7343"/>
</svg>
