<svg width="100" height="58" viewBox="0 0 100 58" fill="none" xmlns="http://www.w3.org/2000/svg">
<path fill-rule="evenodd" clip-rule="evenodd" d="M43.9499 20.9793H45.1214V24.3765H45.9582V20.9793H47.0101L47.2252 20.2998H43.9499V20.9793ZM49.5443 20.2998H48.7075V24.3765H49.5443V22.6536H51.409V24.3765H52.2458V20.2998H51.409V21.9499H49.5443V20.2998ZM53.9671 20.2998H56.31L56.0949 20.9793H54.8278V21.9499H56.0949V22.6293H54.8278V23.697H56.31V24.3765H53.991L53.9671 20.2998ZM30.0598 36.0484C29.2947 36.0484 28.5297 35.8058 27.9081 35.3447L27.1431 36.8249C28.0276 37.4073 29.0557 37.7228 30.1076 37.6985C32.0919 37.6985 33.5981 36.6308 33.5981 34.8836C33.5981 33.1155 32.2468 32.4429 31.1072 31.8756C30.2762 31.462 29.5577 31.1043 29.5577 30.4187C29.5577 29.7393 30.0837 29.5209 30.6814 29.5209C31.4942 29.5451 32.3071 29.7635 33.0243 30.1518V28.3561C32.2831 28.0164 31.4464 27.8465 30.6335 27.8465C28.5775 27.8465 27.4539 29.1326 27.4539 30.5886C27.4539 32.2628 28.7538 32.9126 29.8833 33.4772C30.751 33.911 31.5181 34.2944 31.5181 35.0535C31.5181 35.7815 30.8009 36.0484 30.0598 36.0484ZM37.734 27.9921H43.2088L42.7068 29.6179H39.6944V31.8989H42.7068V33.5005H39.6944V35.9756H43.1849V37.6014H37.734V27.9921ZM50.5245 27.9921H47.5599V37.6014H50.7635C53.0108 37.6014 54.1345 36.1697 54.1345 34.7138C54.1584 33.5976 53.4172 32.6269 52.3653 32.3843V32.36C53.0825 31.9717 53.5129 31.2195 53.489 30.4187C53.489 29.2054 52.5805 27.9921 50.5245 27.9921ZM50.2854 31.8989C51.146 31.8989 51.6003 31.4136 51.6003 30.7827C51.6003 30.1518 51.17 29.6179 50.2615 29.6179H49.5682V31.8989H50.2854ZM52.1741 34.6895C52.1741 35.5631 51.6242 35.9513 50.5245 35.9513H49.5204V33.5248H50.7157C51.6242 33.5248 52.1741 33.9373 52.1741 34.6895ZM58.0314 27.9921H63.4822L62.9802 29.6179H59.9918V31.8989H62.9802V33.5005H59.9918V35.9756H63.4822V37.6014H58.0314V27.9921ZM69.7938 27.9921H67.8095L67.8334 37.6014H73.093V35.9756H69.7938V27.9921Z" fill="#8C7343"/>
</svg>
