<svg width="100" height="58" viewBox="0 0 100 58" fill="none" xmlns="http://www.w3.org/2000/svg">
<path fill-rule="evenodd" clip-rule="evenodd" d="M32.0725 24.7733C32.0725 26.0607 32.7163 26.6328 35.0676 27.4362C37.7622 28.3411 39.3224 29.3336 39.3224 31.7282C39.3224 32.9671 38.8261 33.9951 37.887 34.7016C37.026 35.3496 35.8046 35.7063 34.4472 35.7063C32.4752 35.7063 30.9395 35.039 30.1507 34.4088L30 31.2767H30.9454C31.5923 33.5647 32.816 34.7252 34.5826 34.7252C36.3003 34.7252 37.2855 33.8812 37.2855 32.4103C37.2855 31.1941 36.5634 30.5764 34.1937 29.767C31.6216 28.8969 30.1325 27.9378 30.1325 25.6109C30.1325 24.4845 30.54 23.5233 31.3103 22.8322C32.0992 22.1242 33.2174 21.75 34.5439 21.75C36.0387 21.75 37.5177 22.1806 38.6074 22.9318V25.8287H37.7753C37.2065 23.7604 36.074 22.7118 34.4083 22.7118C32.9896 22.7118 32.0725 23.521 32.0725 24.7733ZM65.7454 27.4362C63.3941 26.6328 62.7503 26.0607 62.7503 24.7733C62.7503 23.521 63.6671 22.7118 65.086 22.7118C66.7514 22.7118 67.884 23.7604 68.4529 25.8287H69.2845V22.9318C68.1954 22.1806 66.7164 21.75 65.2215 21.75C63.8952 21.75 62.777 22.1242 61.988 22.8322C61.2174 23.5233 60.8103 24.4845 60.8103 25.6109C60.8103 27.9378 62.2992 28.8969 64.8714 29.767C67.2406 30.5764 67.9632 31.1941 67.9632 32.4103C67.9632 33.8812 66.9777 34.7252 65.26 34.7252C63.4936 34.7252 62.27 33.5647 61.6228 31.2767H60.6773L60.828 34.4088C61.6167 35.039 63.1526 35.7063 65.1247 35.7063C66.4819 35.7063 67.7036 35.3496 68.5646 34.7016C69.5037 33.9951 70 32.9671 70 31.7282C70 29.3336 68.44 28.3411 65.7454 27.4362ZM55.1581 31.6434C53.9604 33.8321 53.557 34.5692 51.9875 34.5692H51.0596C49.8581 34.5692 49.207 34.3494 49.207 33.1894V24.2084C49.207 23.0678 49.7681 22.8365 51.0242 22.7728V21.9448H45.0049V22.7725C46.2994 22.8361 46.8417 23.0587 46.8417 24.2084V33.2284C46.8417 34.4108 46.2744 34.6405 45.0049 34.6842V35.5114H55.3821L56.0217 31.5497H55.2096L55.1581 31.6434Z" fill="#8C7343"/>
</svg>
