<svg width="100" height="58" viewBox="0 0 100 58" fill="none" xmlns="http://www.w3.org/2000/svg">
<path fill-rule="evenodd" clip-rule="evenodd" d="M23.7324 29.191C23.7324 28.3098 26.3776 26.1 27.4445 26.1C28.514 26.1 31.1565 28.296 31.1565 29.191C31.1565 30.086 28.5113 32.282 27.4445 32.282C26.3776 32.282 23.7324 30.0722 23.7324 29.191ZM50.9472 31.5719C50.9247 31.7803 50.909 31.9266 50.909 31.9865H50.2776C50.2776 31.9266 50.2619 31.7808 50.2394 31.5723C50.1831 31.0495 50.0844 30.1327 50.0844 29.191C50.0844 28.2493 50.1831 27.333 50.2394 26.8102C50.2618 26.6017 50.2776 26.4554 50.2776 26.3956H50.909C50.909 26.4554 50.9247 26.6012 50.9471 26.8097C51.0035 27.3325 51.1022 28.2493 51.1022 29.191C51.1022 30.1327 51.0035 31.049 50.9472 31.5719ZM83.9177 29.191C83.9127 29.8796 83.8718 30.5675 83.7952 31.2517H88.5714V31.9865H83.0904C83.0904 31.9266 83.0747 31.7806 83.0522 31.572C82.9959 31.0491 82.8972 30.1326 82.8972 29.191C82.8972 28.2494 82.9959 27.3332 83.0522 26.8103C83.0746 26.6017 83.0904 26.4555 83.0904 26.3956H83.7245C83.7245 26.4555 83.7402 26.6014 83.7627 26.81C83.819 27.3329 83.9177 28.2494 83.9177 29.191ZM71.1595 29.4893C71.1459 30.1468 71.0914 30.7876 71.0424 31.2517H76.1778V31.9865H70.3376C70.3376 31.9266 70.3219 31.7806 70.2994 31.572C70.2431 31.0492 70.1443 30.1327 70.1443 29.191C70.1443 28.2494 70.243 27.3331 70.2994 26.8102C70.3218 26.6016 70.3376 26.4555 70.3376 26.3956H76.0391V27.1303H71.0424C71.086 27.5613 71.1377 28.1413 71.1567 28.7546H74.7164V29.4893H71.1595ZM63.9748 26.3956H57.5276V27.1303H60.3634C60.2892 27.8147 60.2493 28.5025 60.2436 29.191C60.2436 30.1327 60.3409 31.049 60.3965 31.5719C60.4186 31.7806 60.4341 31.9266 60.4341 31.9865H61.0682C61.0682 31.9266 61.084 31.7806 61.1064 31.572C61.1627 31.0492 61.2615 30.1327 61.2615 29.191C61.2564 28.5024 61.2156 27.8146 61.139 27.1303H63.9748V26.3956ZM43.6182 27.1303V26.3956H38.1371C38.1371 26.4554 38.1214 26.6012 38.099 26.8097C38.0426 27.3325 37.9439 28.2493 37.9439 29.191C37.9439 30.1327 38.0426 31.049 38.0989 31.5718C38.1214 31.7803 38.1371 31.9266 38.1371 31.9865H38.7712C38.7712 31.9263 38.7869 31.7796 38.8094 31.5699C38.8581 31.115 38.9385 30.3639 38.959 29.5584H42.1295V28.8236H38.959C38.9427 28.1828 38.8882 27.5806 38.842 27.1303L43.6182 27.1303ZM27.4445 31.3815C26.4974 31.3815 24.723 29.8926 24.723 29.191C24.723 28.4894 26.4865 27.0005 27.4445 27.0005C28.4024 27.0005 30.1659 28.4894 30.1659 29.191C30.1659 29.8926 28.4024 31.3815 27.4445 31.3815ZM14.5718 28.6201C15.4077 28.8181 16.3182 29.0338 16.8933 29.3899C17.272 29.5884 17.5355 29.9573 17.6036 30.3843C17.6036 30.5556 17.5192 30.9755 16.9913 31.4091C16.4633 31.8428 15.6877 32.1411 14.4685 32.1411C13.3825 32.1127 12.3275 31.7686 11.4286 31.1495L11.8912 30.4644C12.6353 31.0358 13.5359 31.3582 14.4685 31.387C15.6441 31.4091 16.4932 30.8953 16.4932 30.4479C16.4932 29.9687 15.744 29.7863 14.7453 29.5432C14.1088 29.3883 13.3711 29.2088 12.6614 28.912C12.1607 28.7021 11.5511 28.2546 11.5511 27.7574C11.5511 27.1552 12.6043 26.2077 14.4957 26.2381C15.4847 26.2423 16.4525 26.5295 17.2879 27.0668L16.8525 27.7132C16.1956 27.2477 15.4213 26.9822 14.6209 26.948C13.5296 26.9094 12.5879 27.3016 12.5879 27.7132C12.5879 28.1501 13.5209 28.3711 14.5718 28.6201Z" fill="#8C7343"/>
</svg>
