<svg width="100" height="58" viewBox="0 0 100 58" fill="none" xmlns="http://www.w3.org/2000/svg">
<path fill-rule="evenodd" clip-rule="evenodd" d="M35.4472 20.4637C35.4472 19.9958 36.8277 18.85 37.3851 18.85C37.9424 18.85 39.323 19.9982 39.323 20.4637C39.323 20.9292 37.9424 22.075 37.3851 22.075C36.8277 22.075 35.4472 20.9316 35.4472 20.4637ZM49.6488 21.7047C49.637 21.814 49.6287 21.8909 49.6287 21.9222H49.2995C49.2995 21.8909 49.2912 21.8146 49.2794 21.7055C49.25 21.4327 49.1983 20.9549 49.1983 20.4637C49.1983 19.9725 49.25 19.4935 49.2794 19.22C49.2912 19.1106 49.2995 19.0341 49.2995 19.0028H49.6287C49.6287 19.0341 49.637 19.1109 49.6488 19.2205C49.6782 19.4946 49.7298 19.9745 49.7298 20.4637C49.7298 20.9529 49.6783 21.4312 49.6488 21.7047ZM56.4467 19.0052H53.0836V19.3871H54.5629C54.5227 19.7446 54.5015 20.1039 54.4994 20.4637C54.4994 20.9528 54.5497 21.431 54.5785 21.7045C54.59 21.814 54.5981 21.8908 54.5981 21.9222H54.9297C54.9297 21.8909 54.938 21.8143 54.9498 21.705C54.9793 21.4315 55.0309 20.9529 55.0309 20.4637C55.0276 20.104 55.0064 19.7447 54.9674 19.3871H56.4467L56.4467 19.0052ZM60.1955 20.6189C60.1884 20.965 60.1602 21.2992 60.1344 21.5379H62.8249V21.9222H59.7675C59.7675 21.8909 59.7592 21.8146 59.7474 21.7055C59.718 21.4327 59.6663 20.9549 59.6663 20.4637C59.6663 19.9711 59.7183 19.4907 59.7477 19.2184C59.7593 19.1109 59.7675 19.0356 59.7675 19.0052H62.7496V19.3871H60.1414L60.1485 19.4544C60.1714 19.6718 60.2002 19.9453 60.2002 20.2345H62.0582V20.6189H60.1955ZM66.8535 20.4637C66.8502 20.8226 66.829 21.1811 66.7901 21.5379H69.2806V21.9222H66.4208C66.4208 21.8909 66.4126 21.8146 66.4008 21.7055C66.3713 21.4327 66.3197 20.9549 66.3197 20.4637C66.3197 19.971 66.3716 19.4905 66.4011 19.2183C66.4127 19.1107 66.4208 19.0356 66.4208 19.0052H66.7524C66.7524 19.0356 66.7605 19.1107 66.7722 19.2183C66.8016 19.4905 66.8535 19.971 66.8535 20.4637ZM45.8305 19.3871V19.0028H42.9636C42.9636 19.0341 42.9554 19.1106 42.9436 19.22C42.9141 19.4935 42.8625 19.9725 42.8625 20.4637C42.8625 20.9549 42.9141 21.4327 42.9436 21.7055C42.9554 21.8146 42.9636 21.8909 42.9636 21.9222H43.2952C43.2952 21.8908 43.3033 21.8149 43.3148 21.7067C43.3401 21.4692 43.382 21.0758 43.3917 20.6547H45.0379V20.2823H43.3917C43.3917 19.9752 43.3619 19.6822 43.3388 19.4552L43.3329 19.3967L45.8305 19.3871ZM37.3851 21.6047C36.8912 21.6047 35.974 20.8289 35.974 20.4637C35.974 20.0985 36.8935 19.3274 37.3851 19.3274C37.8766 19.3274 38.7962 20.1056 38.7962 20.4709C38.7962 20.8361 37.8766 21.6119 37.3851 21.6119V21.6047ZM30.6585 20.1602C31.0972 20.2636 31.5771 20.3767 31.8794 20.5663L31.8865 20.5759C32.0835 20.6806 32.2203 20.8734 32.2557 21.0963C32.2319 21.3136 32.1149 21.5093 31.9359 21.631C31.555 21.9101 31.0899 22.0452 30.6212 22.0129C30.0542 21.9973 29.5035 21.8175 29.0337 21.4949L29.2689 21.1369C29.6579 21.4334 30.1279 21.6002 30.6141 21.6143C31.228 21.6262 31.6701 21.3636 31.6701 21.1249C31.6701 20.8742 31.2798 20.7793 30.7591 20.6525C30.427 20.5718 30.0419 20.4781 29.671 20.3229C29.41 20.213 29.0925 19.9791 29.0925 19.7213C29.0925 19.4014 29.6405 18.9049 30.6282 18.924C31.1501 18.9215 31.6618 19.0706 32.1028 19.3537L31.8677 19.6903C31.5211 19.4465 31.1131 19.3082 30.6917 19.2916C30.125 19.2725 29.6334 19.4778 29.6334 19.6927C29.6334 19.9187 30.1143 20.032 30.6585 20.1602ZM25.7717 34.3782C25.2378 37.6867 24.3606 38.7537 22.3874 38.7537H21.228C20.5224 38.7537 20.3037 38.5723 20.3037 37.5769V29.4058C20.3037 27.0187 20.6941 26.8564 22.1852 26.7466C22.2241 26.742 22.252 26.7062 22.2475 26.6666C22.2429 26.6271 22.2077 26.5987 22.1687 26.6033H16.5078C16.4689 26.5987 16.4336 26.6271 16.429 26.6666C16.4245 26.7062 16.4524 26.742 16.4914 26.7466C17.9871 26.8564 18.3728 27.0187 18.3728 29.4058V36.1136C18.3728 38.5007 17.9801 38.663 16.4914 38.7705C16.4524 38.7807 16.429 38.8211 16.4391 38.8606C16.4472 38.8926 16.4753 38.9152 16.5078 38.9161H25.8399C25.8655 38.9204 25.8898 38.9028 25.894 38.8768C25.8948 38.8716 25.8948 38.8663 25.894 38.8612V34.3782C25.894 34.3042 25.7882 34.3042 25.7694 34.3782H25.7717ZM33.735 38.7537C35.7176 38.7537 36.9241 38.2286 37.458 34.92C37.4768 34.8484 37.6014 34.8484 37.6014 34.92V38.8612C37.6018 38.8645 37.6018 38.8679 37.6014 38.8712C37.5987 38.8988 37.5745 38.9188 37.5473 38.9161H27.3122C27.2416 38.9161 27.2416 38.7705 27.3122 38.7705C28.8032 38.663 29.1936 38.5007 29.1936 36.1136V29.4058C29.1936 27.0187 28.8103 26.8564 27.3122 26.7466C27.2416 26.7466 27.2416 26.6033 27.3122 26.6033H37.1899C37.2275 26.6033 37.244 26.6201 37.244 26.6559V30.0193C37.244 30.0909 37.1381 30.0909 37.1193 30.0193C36.5941 26.7643 35.5681 26.7648 33.6516 26.7656L32.0417 26.7657C31.3291 26.7657 31.1151 26.9471 31.1151 27.9401V32.552H32.2393C33.6715 32.552 34.3042 31.738 34.3771 30.4729C34.3772 30.4334 34.4086 30.4015 34.4475 30.4014C34.4864 30.4013 34.5181 30.4333 34.5182 30.4729V34.7935C34.5181 34.833 34.4866 34.8649 34.4478 34.865C34.4088 34.8651 34.3772 34.8331 34.3771 34.7935C34.3042 33.5284 33.6809 32.7144 32.2393 32.7144H31.1151V37.5769C31.1151 38.5723 31.3361 38.7537 32.0417 38.7537H33.735ZM51.87 32.6045H46.1692C46.0986 32.6045 46.0986 32.7502 46.1692 32.7502C48.4669 32.8051 48.8597 33.0223 48.8597 34.8651V36.9276C48.8597 38.5556 47.0958 38.9877 45.9904 38.9877C43.4975 38.9877 41.8042 36.8011 41.8042 32.7812C41.8042 28.7613 43.2294 26.5246 45.7059 26.5246C48.1471 26.5246 48.7515 27.4651 49.6075 30.141C49.6264 30.2127 49.751 30.2127 49.751 30.1243V26.2954C49.751 26.2214 49.6428 26.2047 49.6075 26.2763C49.1657 27.1752 48.8089 27.0495 48.1376 26.8133C47.9443 26.7452 47.7248 26.6679 47.4697 26.6033C46.8938 26.4498 46.3013 26.3696 45.7059 26.3646C42.2157 26.3646 39.6499 28.5894 39.6499 32.7836C39.6499 36.9777 42.4721 39.15 45.7952 39.15C46.9313 39.15 47.5845 38.8804 48.2974 38.5861C48.9259 38.3266 49.6009 38.048 50.6941 37.9183L50.6941 34.7807C50.6938 33.0195 50.6938 32.9311 51.87 32.7502C51.9406 32.7502 51.9406 32.6045 51.87 32.6045ZM70.0944 26.6033L76.7618 26.6033C80.0144 26.6033 83.1118 28.556 83.1118 32.7502C83.1118 36.9443 80.005 38.9161 76.7618 38.9161H75.2284C75.1414 38.9161 75.1414 38.7537 75.2284 38.7537H76.5737C78.8009 38.7537 80.9387 36.7653 80.9387 32.7502C80.9387 28.735 78.8009 26.7657 76.5737 26.7657H74.544C73.0906 26.7657 72.6626 27.742 72.6626 30.1291V38.9352C72.6626 39.0068 72.5732 39.0235 72.5191 38.9519L63.0154 27.8399C62.2745 27.0044 62.0299 26.7657 61.1339 26.7657H57.552C56.8394 26.7657 56.6254 26.9471 56.6254 27.9401V32.552H57.7449C59.1772 32.552 59.8098 31.738 59.8827 30.4729C59.8827 30.4333 59.9143 30.4012 59.9533 30.4012C59.9922 30.4012 60.0238 30.4333 60.0238 30.4729V34.7935C60.0238 34.8331 59.9922 34.8651 59.9533 34.8651C59.9143 34.8651 59.8827 34.8331 59.8827 34.7935C59.8098 33.5284 59.1866 32.7144 57.7449 32.7144H56.6207V37.5769C56.6207 38.5723 56.8418 38.7537 57.5473 38.7537H59.33C61.3126 38.7537 62.5591 38.2286 63.093 34.92C63.1118 34.8484 63.2012 34.8484 63.2012 34.9391V38.8612C63.2015 38.8645 63.2015 38.8679 63.2012 38.8712C63.1984 38.8988 63.1742 38.9188 63.1471 38.9161H52.8154C52.7425 38.9161 52.7425 38.7705 52.8154 38.7705C54.3065 38.663 54.6969 38.5007 54.6969 36.1136V29.4058C54.6969 27.0187 54.3112 26.8564 52.8154 26.7466C52.7425 26.7466 52.7425 26.6033 52.8154 26.6033H64.41L72.5003 36.0372V30.1291C72.5003 27.742 72.124 26.8182 70.0944 26.7657C70.0238 26.7657 70.0238 26.6033 70.0944 26.6033Z" fill="#8C7343"/>
</svg>
