<svg width="70" height="40" viewBox="0 0 70 40" fill="none" xmlns="http://www.w3.org/2000/svg">
<path d="M25.1299 27.2833C26.316 26.3752 26.9083 25.1289 26.9083 23.5444C26.9083 23.1078 26.8432 22.7046 26.7162 22.333C26.5876 21.9615 26.4288 21.6392 26.2414 21.3614C26.054 21.0852 25.7905 20.82 25.4506 20.566C25.1108 20.312 24.7933 20.104 24.4963 19.9405C24.1994 19.7769 23.8151 19.6055 23.3435 19.4261C22.8719 19.2467 22.4702 19.1069 22.1383 19.0053C21.8064 18.9037 21.3793 18.7799 20.8569 18.6307C20.3488 18.4909 19.9518 18.375 19.6628 18.2845C19.3738 18.1956 19.0086 18.0702 18.5687 17.9099C18.1273 17.7495 17.778 17.6003 17.5207 17.459C17.2635 17.3177 16.9824 17.1414 16.6776 16.9271C16.3727 16.7128 16.1393 16.4905 15.9757 16.2603C15.8122 16.0301 15.6724 15.7586 15.5597 15.4474C15.4469 15.1347 15.3898 14.7997 15.3898 14.4409C15.3898 13.5518 15.755 12.8453 16.4838 12.3229C17.2127 11.8006 18.194 11.5386 19.4278 11.5386C20.7537 11.5386 22.0208 12.0292 23.226 13.0072C24.4312 13.9868 25.322 15.2712 25.9 16.8636L26.4272 16.7239L24.8361 10.8496H24.5313C24.4455 11.1306 24.3391 11.3227 24.2153 11.4291C24.0898 11.5339 23.9295 11.5863 23.7357 11.5863C23.4547 11.5863 23.0974 11.5164 22.6655 11.3751C22.232 11.2354 21.735 11.0925 21.1729 10.948C20.6108 10.8036 20.0296 10.7321 19.4294 10.7321C17.7049 10.7321 16.3266 11.1163 15.2913 11.8848C14.2576 12.6532 13.74 13.6883 13.74 14.9918C13.74 15.53 13.8146 16.0206 13.9623 16.4667C14.1099 16.9112 14.3561 17.3018 14.699 17.6368C15.042 17.9718 15.3707 18.2576 15.6819 18.4909C15.9932 18.7243 16.4394 18.9529 17.0158 19.1752C17.5938 19.3975 18.0558 19.5658 18.402 19.6785C18.7482 19.7912 19.2579 19.9452 19.9296 20.1405C20.3503 20.2659 20.6536 20.3548 20.8362 20.4104C21.0188 20.4644 21.2999 20.5549 21.6794 20.6787C22.0573 20.8041 22.3368 20.9058 22.5162 20.9835C22.6957 21.0613 22.9354 21.1725 23.2355 21.317C23.5357 21.4614 23.7627 21.5964 23.9136 21.7202C24.066 21.8456 24.2407 21.9996 24.4408 22.1822C24.6392 22.3664 24.7837 22.5506 24.8742 22.7379C24.9632 22.9252 25.0441 23.138 25.114 23.3761C25.1839 23.6143 25.2188 23.8699 25.2188 24.143C25.2188 25.2972 24.7726 26.2021 23.8786 26.8578C22.9847 27.5135 21.708 27.8406 20.0455 27.8406C18.5703 27.8406 17.2492 27.3373 16.0837 26.3307C14.9166 25.3242 14.0718 23.9429 13.5494 22.1886L13 22.3283L14.3338 28.5312H14.6736C14.8292 28.2581 14.9737 28.074 15.1071 27.9803C15.2405 27.8866 15.4152 27.8406 15.6343 27.8406C15.9154 27.8406 16.2774 27.9089 16.722 28.0454C17.1666 28.1819 17.6859 28.3169 18.2781 28.4487C18.8704 28.582 19.4834 28.6471 20.1153 28.6471C22.2685 28.6471 23.939 28.193 25.1251 27.2833" fill="#8C7343"/>
<path d="M44.9849 19.696C44.9849 22.1457 44.3735 24.116 43.1525 25.6052C41.9314 27.0944 40.3228 27.8406 38.3253 27.8406C36.3277 27.8406 34.6922 27.096 33.4679 25.6052C32.2436 24.1144 31.6307 22.1457 31.6307 19.696C31.6307 17.2462 32.2436 15.2744 33.4679 13.7804C34.6922 12.2864 36.3118 11.5402 38.3253 11.5402C40.3387 11.5402 41.9314 12.2864 43.1525 13.7804C44.3735 15.2744 44.9849 17.2462 44.9849 19.696ZM46.9983 19.696C46.9983 17.0049 46.2028 14.8378 44.6101 13.1961C43.0191 11.5545 40.9231 10.7321 38.3253 10.7321C35.7275 10.7321 33.6061 11.5529 32.0102 13.1961C30.4144 14.8378 29.6173 17.0049 29.6173 19.696C29.6173 22.387 30.4144 24.5526 32.0102 26.191C33.6061 27.8295 35.71 28.6487 38.3253 28.6487C40.9405 28.6487 43.0191 27.8295 44.6101 26.191C46.2012 24.5526 46.9983 22.387 46.9983 19.696Z" fill="#8C7343"/>
<path d="M57.2259 9L47.5239 30.6952L48.2146 31L57.9167 9.31594L57.2259 9Z" fill="#8C7343"/>
</svg>
