<svg width="100" height="58" viewBox="0 0 100 58" fill="none" xmlns="http://www.w3.org/2000/svg">
<path d="M82.7445 20.2998H84.5237V37.3721H82.7445V20.2998Z" fill="#8C7343"/>
<path d="M38.0841 23.9559C38.0864 23.2711 38.6352 22.718 39.3098 22.7203L39.3118 22.7203C39.9865 22.7191 40.5343 23.2733 40.5354 23.958C40.5352 24.6447 39.9868 25.2014 39.3102 25.2016C38.6333 25.2018 38.0843 24.6451 38.0841 23.958L38.0841 23.9559Z" fill="#8C7343"/>
<path d="M24.3085 28.1675H22.2921L26.997 37.6889L29.7272 31.5299L32.4344 37.6889L37.1394 28.1675H35.123L32.4344 34.0286L29.7272 27.6563L26.997 34.0286L24.3085 28.1675Z" fill="#8C7343"/>
<path d="M21.4077 29.5044C20.9458 28.5139 19.9569 27.8882 18.8773 27.9034C17.4009 27.8729 16.1795 29.0629 16.1494 30.5616L16.1493 30.5668C16.1493 31.8341 16.9005 32.3368 17.9284 32.8902L19.6681 33.8174C20.0843 34.092 20.3194 34.3285 20.3194 34.8206C20.3194 35.6063 19.6681 36.1175 18.9169 36.1175C18.0658 36.1175 17.6121 35.6253 17.2355 34.9389L15.7144 35.6211C16.2075 36.9201 17.5726 37.6889 18.9169 37.6889C20.6357 37.6889 22.0986 36.3899 22.0986 34.639C22.0986 33.1837 21.0581 32.5142 19.9656 32.0221C19.8332 31.9624 19.7012 31.9048 19.5714 31.8482C18.6309 31.4377 17.8098 31.0794 17.8098 30.3704C17.842 29.8548 18.2685 29.4563 18.7775 29.4664C19.2912 29.488 19.7499 29.7994 19.9656 30.2732L21.4077 29.5044Z" fill="#8C7343"/>
<path d="M40.2004 28.1675H38.4212V37.3721H40.2004V28.1675Z" fill="#8C7343"/>
<path d="M44.9407 27.9034C46.0204 27.8877 47.0096 28.5136 47.4711 29.5044L46.0332 30.2732C45.8178 29.8001 45.3601 29.4887 44.8471 29.4664C44.3342 29.453 43.9033 29.8548 43.8732 30.3746C43.8732 31.0847 44.6952 31.4431 45.6385 31.8543C45.767 31.9103 45.8978 31.9673 46.029 32.0263C47.1236 32.5184 48.164 33.188 48.164 34.6432C48.164 36.3942 46.6991 37.6931 44.9802 37.6931C43.636 37.6931 42.2709 36.9243 41.7777 35.6253L43.3009 34.9389C43.6755 35.6253 44.1312 36.1175 44.9802 36.1175C45.7314 36.1175 46.3848 35.6063 46.3848 34.8206C46.3848 34.3285 46.1476 34.092 45.7314 33.8174L43.9918 32.9007C42.9638 32.3473 42.2126 31.8447 42.2126 30.5774L42.2129 30.5617C42.2429 29.0631 43.4642 27.8729 44.9407 27.9034Z" fill="#8C7343"/>
<path d="M55.0581 29.5044C54.597 28.5132 53.6075 27.8872 52.5277 27.9034C51.0512 27.8729 49.8298 29.0629 49.7997 30.5616L49.7996 30.5668C49.7996 31.8341 50.5508 32.3368 51.5788 32.8902L53.3184 33.8174C53.7346 34.092 53.9718 34.3285 53.9718 34.8206C53.9718 35.6063 53.3184 36.1175 52.5672 36.1175C51.7182 36.1175 51.2625 35.6253 50.8879 34.9389L49.3647 35.6254C49.86 36.9243 51.2229 37.6931 52.5672 37.6931C54.2881 37.6931 55.751 36.3942 55.751 34.6432C55.751 33.188 54.7106 32.5184 53.616 32.0263C53.4848 31.9673 53.354 31.9103 53.2255 31.8543C52.2822 31.4431 51.4602 31.0847 51.4602 30.3746C51.4924 29.8582 51.9202 29.4594 52.4299 29.4706C52.9432 29.492 53.4014 29.8037 53.616 30.2775L55.0581 29.5044Z" fill="#8C7343"/>
<path fill-rule="evenodd" clip-rule="evenodd" d="M61.7211 27.9034C58.9535 27.9034 56.779 30.0282 56.779 32.8014C56.779 35.5747 58.9535 37.6995 61.7211 37.6995C64.4887 37.6995 66.6633 35.5747 66.6633 32.8014C66.6633 30.0282 64.4887 27.9034 61.7211 27.9034ZM64.8758 32.8036C64.8781 31.0328 63.4657 29.5955 61.7211 29.5931C59.9772 29.5943 58.5627 31.0271 58.5581 32.7972C58.557 34.5671 59.9691 36.0032 61.7128 36.0055C63.4574 36.0079 64.8735 34.5743 64.8758 32.8036Z" fill="#8C7343"/>
<path d="M72.0549 29.8191H70.3153V37.3721H68.5361V29.8191H67.5664V28.1675H68.5361V24.6465H70.3153V28.1675H72.0549V29.8191Z" fill="#8C7343"/>
<path fill-rule="evenodd" clip-rule="evenodd" d="M81.2629 32.7888V33.0655L74.2045 33.0676C74.2253 34.639 75.2928 36.1175 76.9929 36.1175C78.358 36.1175 79.0884 35.4268 79.7605 34.3264L81.2629 35.1712C80.4017 36.7498 78.756 37.7209 76.9783 37.6995C74.1525 37.6995 72.4316 35.5747 72.4316 32.8606C72.4316 30.0156 73.9548 27.9034 76.9388 27.9034C79.8854 27.9034 81.2629 30.0557 81.2629 32.7888ZM74.3106 31.7285C74.4925 30.3999 75.6173 29.4146 76.9388 29.4263C78.3642 29.4263 79.2715 30.3493 79.49 31.7285H74.3106Z" fill="#8C7343"/>
<path d="M59.7692 26.9783L58.6227 26.0743L61.7648 23.223L64.9486 26.0743L63.7812 26.9783L61.7648 25.0901L59.7692 26.9783Z" fill="#8C7343"/>
</svg>
