<svg width="100" height="58" viewBox="0 0 100 58" fill="none" xmlns="http://www.w3.org/2000/svg">
<path fill-rule="evenodd" clip-rule="evenodd" d="M15.4238 18.8496H11.4287V20.2858H12.7817V25.6079H14.0617V20.2858H15.4238V18.8496ZM19.5492 18.8496H18.0871V25.6079H19.5492V22.921H21.9518V25.6079H23.4138V18.8496H21.9518V21.4541H19.5492V18.8496ZM26.0772 18.8496H30.0722V20.1877H27.6073V21.5519H30.0722V22.8696H27.6073V24.2695H30.0722V25.6079H26.0772V18.8496ZM36.861 18.8496H35.3989V25.6079H36.861V22.921H39.2636V25.6079H40.7257V18.8496H39.2636V21.4541H36.861V18.8496ZM46.5463 20.3819C46.0209 20.372 45.5971 20.5586 45.2757 20.9418C44.9538 21.3248 44.7931 21.8195 44.7931 22.425C44.7931 22.998 44.9572 23.4733 45.2853 23.8496C45.6132 24.2262 46.0271 24.4144 46.5271 24.4144C47.0527 24.4144 47.4767 24.2286 47.7999 23.8568C48.1232 23.4855 48.2849 22.9949 48.2849 22.3858C48.2849 21.7867 48.1265 21.3054 47.8098 20.9418C47.4928 20.5783 47.0716 20.3917 46.5463 20.3819ZM44.3035 20.0258C43.6906 20.6462 43.3842 21.4328 43.3842 22.3858C43.3842 23.3453 43.6794 24.1361 44.2701 24.7582C44.8608 25.3805 45.6132 25.6915 46.5271 25.6915C47.441 25.6915 48.1988 25.3789 48.8007 24.7531C49.4028 24.1281 49.7037 23.3419 49.7037 22.3957C49.7037 21.4426 49.3994 20.6542 48.7913 20.0308C48.183 19.4069 47.414 19.0948 46.4841 19.0948C45.6435 19.0948 44.9165 19.4053 44.3035 20.0258ZM52.2982 19.1638H53.631V23.108C53.631 23.4748 53.7295 23.7693 53.927 23.9918C54.1245 24.2146 54.3839 24.3261 54.7056 24.3261C55.0749 24.3261 55.3616 24.2138 55.5653 23.9894C55.7693 23.7653 55.8711 23.4484 55.8711 23.039V19.1638H57.1989V23.3386C57.1989 23.7056 57.1066 24.0862 56.9219 24.4806C56.7373 24.8754 56.453 25.1773 56.0694 25.3871C55.6855 25.5966 55.2566 25.7013 54.782 25.7013C53.9223 25.7013 53.2932 25.4548 52.8954 24.9622C52.4973 24.4692 52.2982 23.9511 52.2982 23.4076V19.1638ZM62.6549 20.6964L63.4955 19.7481C63.0243 19.2995 62.4416 19.0754 61.7473 19.0754C61.1612 19.0754 60.6869 19.254 60.3238 19.6106C59.961 19.9674 59.7793 20.4325 59.7793 21.0058C59.7793 21.2643 59.8358 21.5173 59.9488 21.7643C60.0618 22.0117 60.2012 22.2001 60.3668 22.3294C60.5325 22.4589 60.8126 22.5972 61.2076 22.7454C61.8984 23.0023 62.2441 23.2987 62.2441 23.6353C62.2441 23.7984 62.1692 23.9546 62.0197 24.1031C61.8699 24.2515 61.7138 24.3262 61.5516 24.3262C61.2043 24.3262 60.8318 24.1148 60.4337 23.6924L59.5452 24.7582C60.1789 25.3869 60.8207 25.7014 61.4702 25.7014C62.0627 25.7014 62.5761 25.4967 63.0108 25.0874C63.4454 24.678 63.6626 24.1966 63.6626 23.6433C63.6626 23.3419 63.5919 23.062 63.4501 22.8032C63.3083 22.5447 63.1326 22.3424 62.9224 22.1969C62.7122 22.0511 62.4017 21.888 61.9909 21.7081C61.4303 21.4752 61.1504 21.2001 61.1504 20.8827C61.1504 20.7222 61.2043 20.5842 61.3126 20.4677C61.4209 20.3518 61.5498 20.2934 61.6996 20.2934C61.8937 20.2934 62.2122 20.4277 62.6549 20.6964ZM66.1092 19.1638H69.6391V20.4407H67.4611V21.7424H69.6391V22.9998H67.4611V24.3357H69.6391V25.6128H66.1092V19.1638ZM78.0097 20.9418C78.3311 20.5586 78.7549 20.372 79.2803 20.3819C79.8056 20.3917 80.2268 20.5783 80.5438 20.9418C80.8605 21.3054 81.0189 21.7867 81.0189 22.3858C81.0189 22.9949 80.8571 23.4855 80.5339 23.8568C80.2107 24.2286 79.7867 24.4144 79.2611 24.4144C78.7611 24.4144 78.3472 24.2262 78.0193 23.8496C77.6912 23.4733 77.5271 22.998 77.5271 22.425C77.5271 21.8195 77.6878 21.3248 78.0097 20.9418ZM76.1182 22.3858C76.1182 21.4328 76.4246 20.6462 77.0375 20.0258C77.6505 19.4053 78.3775 19.0948 79.2181 19.0948C80.148 19.0948 80.917 19.4069 81.5253 20.0308C82.1334 20.6542 82.4377 21.4426 82.4377 22.3957C82.4377 23.3419 82.1368 24.1281 81.5347 24.7531C80.9328 25.3789 80.175 25.6915 79.2611 25.6915C78.3472 25.6915 77.5948 25.3805 77.0041 24.7582C76.4134 24.1361 76.1182 23.3453 76.1182 22.3858ZM88.5716 19.1638H85.0417V25.6128H86.3936V22.9852H88.5716V21.7277H86.384V20.4114H88.5716V19.1638ZM24.3509 32.4532C23.8256 32.4434 23.4018 32.6299 23.0804 33.0132C22.7585 33.3962 22.5978 33.8909 22.5978 34.4964C22.5978 35.0694 22.7619 35.5446 23.09 35.921C23.4179 36.2976 23.8318 36.4857 24.3317 36.4857C24.8574 36.4857 25.2814 36.3 25.6046 35.9282C25.9278 35.5569 26.0895 35.0662 26.0895 34.4572C26.0895 33.8581 25.9312 33.3767 25.6145 33.0132C25.2975 32.6497 24.8763 32.4631 24.3509 32.4532ZM22.1082 32.0972C21.4952 32.7176 21.1889 33.5041 21.1889 34.4572C21.1889 35.4167 21.4841 36.2075 22.0748 36.8296C22.6654 37.4519 23.4179 37.7629 24.3317 37.7629C25.2456 37.7629 26.0035 37.4503 26.6053 36.8245C27.2074 36.1995 27.5083 35.4132 27.5083 34.4671C27.5083 33.514 27.204 32.7256 26.596 32.1022C25.9877 31.4783 25.2187 31.1662 24.2887 31.1662C23.4482 31.1662 22.7212 31.4767 22.1082 32.0972ZM31.4498 32.3845V34.0644H31.7422C32.4485 34.0644 32.8017 33.7678 32.8017 33.1753C32.8017 32.933 32.7097 32.7406 32.526 32.5983C32.3422 32.4557 32.0874 32.3845 31.7616 32.3845H31.4498ZM32.1543 31.2353H30.0886V37.6843H31.4402V35.1889H31.5931L33.2162 37.6843H34.7697L33.0145 34.9957C33.4642 34.7928 33.7729 34.5127 33.9403 34.1561C34.1078 33.7995 34.1917 33.456 34.1917 33.1252C34.1917 32.5458 34.009 32.086 33.6441 31.7457C33.2792 31.4053 32.7825 31.2353 32.1543 31.2353ZM37.2066 37.6843V31.2352H38.5585V37.6843H37.2066ZM45.7146 33.4993L46.6127 32.6349C46.0205 31.6427 45.1732 31.1467 44.0716 31.1467C43.2085 31.1467 42.4706 31.466 41.8577 32.1045C41.2447 32.7429 40.9381 33.5126 40.9381 34.4132C40.9381 35.3625 41.2359 36.1602 41.8312 36.805C42.4268 37.4502 43.1575 37.7727 44.0237 37.7727C44.5014 37.7727 44.9744 37.6592 45.4425 37.4313C45.9106 37.2039 46.2879 36.8436 46.5746 36.3505C46.861 35.858 47.0043 35.3969 47.0043 34.9681V34.1331H44.1097V35.3905H45.5954C45.4394 35.7866 45.233 36.0568 44.9767 36.201C44.7204 36.3452 44.4537 36.4169 44.1766 36.4169C43.667 36.4169 43.2316 36.2247 42.8703 35.8399C42.5087 35.4553 42.3281 34.9859 42.3281 34.4326C42.3281 33.9121 42.5087 33.4601 42.8703 33.0771C43.2316 32.6941 43.6577 32.5025 44.1481 32.5025C44.4506 32.5025 44.7403 32.5851 45.0174 32.7506C45.2945 32.9158 45.5267 33.1653 45.7146 33.4993ZM49.4127 37.6843V31.2352H50.7646V37.6843H49.4127ZM58.9573 31.2351H57.6342V35.3807L54.7577 31.2351H53.4211V37.6842H54.773V33.5091L57.6404 37.6842H58.9573V31.2351ZM64.387 33.347L63.6496 35.2481H65.1399L64.387 33.347ZM64.9105 31.2351H63.8631L61.3514 37.6842H62.7046L63.1962 36.4171H65.603L66.1051 37.6842H67.4653L64.9105 31.2351ZM69.912 31.2351H71.2543V36.294H73.1028V37.6842H69.912V31.2351ZM78.2052 32.7678L79.0458 31.8195C78.5746 31.3709 77.9919 31.1468 77.2975 31.1468C76.7115 31.1468 76.2372 31.3253 75.8741 31.6819C75.5112 32.0388 75.3295 32.5039 75.3295 33.0772C75.3295 33.3357 75.3861 33.5887 75.4991 33.8357C75.6121 34.0831 75.7515 34.2715 75.9171 34.4008C76.0827 34.5303 76.3629 34.6686 76.7579 34.8168C77.4487 35.0737 77.7944 35.3701 77.7944 35.7067C77.7944 35.8698 77.7195 36.026 77.57 36.1745C77.4201 36.3229 77.2641 36.3975 77.1019 36.3975C76.7546 36.3975 76.3821 36.1862 75.984 35.7638L75.0955 36.8296C75.7292 37.4583 76.371 37.7728 77.0205 37.7728C77.613 37.7728 78.1264 37.5681 78.5611 37.1587C78.9957 36.7494 79.2129 36.268 79.2129 35.7147C79.2129 35.4133 79.1422 35.1334 79.0004 34.8746C78.8586 34.6161 78.6829 34.4138 78.4727 34.2683C78.2625 34.1225 77.952 33.9594 77.5412 33.7795C76.9806 33.5465 76.7006 33.2715 76.7006 32.9541C76.7006 32.7936 76.7546 32.6556 76.8629 32.5391C76.9712 32.4231 77.1001 32.3648 77.2499 32.3648C77.444 32.3648 77.7625 32.4991 78.2052 32.7678Z" fill="#8C7343"/>
</svg>
