<svg width="100" height="58" viewBox="0 0 100 58" fill="none" xmlns="http://www.w3.org/2000/svg">
<path d="M73.3334 43.5H25.7144V14.5H73.3334V43.5ZM27.7847 41.383H71.2346V16.617H27.7847V41.383ZM33.4854 24.418H35.4424V35.612H37.4844V24.418H39.413V22.504H33.4854V24.418ZM46.6735 27.405V25.085C46.6735 23.316 45.5674 22.533 44.1777 22.533H40.8878V35.612H42.9298V30.102H43.7523L44.8584 35.641H46.9572L45.5107 29.522C46.2481 29.145 46.6735 28.217 46.6735 27.405ZM42.9298 24.302H44.0076C44.4613 24.302 44.7166 24.621 44.7166 25.143V27.521C44.7166 28.13 44.4613 28.449 43.9508 28.449H42.9865V24.302H42.9298ZM48.6021 35.583H50.6442V22.504H48.6021V35.583ZM57.139 28.942C58.0465 28.681 58.4152 27.956 58.4152 26.97V25.056C58.4152 23.287 57.3942 22.533 55.9478 22.533H52.6295V35.612H55.9761C57.3658 35.612 58.4436 34.858 58.4436 33.089V30.914C58.4719 29.928 58.1032 29.232 57.139 28.942ZM54.6999 24.302H55.7209C56.1747 24.302 56.4299 24.621 56.4299 25.143V27.289C56.4299 27.898 56.1179 28.188 55.6358 28.188H54.6715V24.302H54.6999ZM56.4866 32.944C56.4866 33.495 56.2881 33.785 55.7776 33.785H54.6999V29.783H55.6642C56.1747 29.783 56.4583 30.131 56.4583 30.711C56.4866 30.711 56.4866 32.944 56.4866 32.944ZM60.2871 35.583H65.3922V33.669H62.3291V29.725H64.4562V27.985H62.3291V24.36H65.3922V22.504H60.2871V35.583Z" fill="#8C7343"/>
</svg>
