<svg width="115" height="24" viewBox="0 0 115 24" fill="none" xmlns="http://www.w3.org/2000/svg">
<path d="M113.901 16.0822C113.546 16.0822 113.258 16.3703 113.258 16.725C113.258 17.0797 113.546 17.3678 113.901 17.3678C114.257 17.3678 114.545 17.0797 114.545 16.725C114.545 16.3703 114.257 16.0822 113.901 16.0822ZM113.901 17.2658C113.602 17.2658 113.36 17.0225 113.36 16.725C113.36 16.426 113.603 16.1841 113.901 16.1841C114.201 16.1841 114.445 16.4274 114.445 16.725C114.445 17.0226 114.201 17.2658 113.901 17.2658ZM114.111 16.6149C114.111 16.498 114.028 16.4287 113.905 16.4287H113.7V17.0144H113.801V16.8024H113.911L114.017 17.0144H114.126L114.009 16.7807C114.072 16.7522 114.111 16.695 114.111 16.6149ZM113.901 16.7114H113.802V16.5171H113.901C113.969 16.5171 114.01 16.551 114.01 16.6136C114.01 16.6774 113.968 16.7114 113.901 16.7114ZM36.3192 9.57677V8.0221H33.9316V17.2713H36.3192V11.7253C36.3192 10.721 36.9645 10.2277 37.9705 10.2277H39.2773V8.02214H38.161C37.2871 8.0221 36.5275 8.47735 36.3192 9.57677ZM41.5138 4.36377C40.6971 4.36377 40.0709 5.00793 40.0709 5.82331C40.0709 6.61967 40.6971 7.26383 41.5138 7.26383C42.3306 7.26383 42.9568 6.61967 42.9568 5.82331C42.9567 5.0079 42.3306 4.36377 41.5138 4.36377ZM40.3227 17.2713H42.7049V8.0221H40.3227V17.2713ZM54.0523 12.6467C54.0523 15.2872 51.9084 17.4276 49.2634 17.4276C48.1962 17.4276 47.2283 17.0783 46.4524 16.4885V19.9865H44.0702V8.0221H46.4524V8.80486C47.2283 8.21507 48.1962 7.86582 49.2634 7.86582C51.9084 7.86582 54.0523 10.0062 54.0523 12.6467ZM51.6552 12.6467C51.6552 11.213 50.49 10.0497 49.0538 10.0497C47.6177 10.0497 46.4524 11.213 46.4524 12.6467C46.4524 14.0804 47.6177 15.2437 49.0538 15.2437C50.49 15.2437 51.6552 14.0818 51.6552 12.6467ZM95.4563 11.8354L94.0665 11.4549C93.1518 11.217 92.7965 10.9371 92.7965 10.4547C92.7965 9.98446 93.2974 9.65559 94.0134 9.65559C94.6955 9.65559 95.2304 10.1013 95.2304 10.6721V10.7251H97.4261V10.6721C97.4261 8.99373 96.0553 7.86578 94.0134 7.86578C91.992 7.86578 90.5232 8.99237 90.5232 10.5457C90.5232 11.7538 91.325 12.6643 92.7243 13.0421L94.0556 13.405C95.067 13.6849 95.4427 13.9948 95.4427 14.5506C95.4427 15.1363 94.8996 15.5304 94.091 15.5304C93.2484 15.5304 92.6807 14.9977 92.6807 14.2068V14.1537H90.3503V14.2068C90.3503 16.1039 91.8803 17.4302 94.072 17.4302C96.1833 17.4302 97.7161 16.1352 97.7161 14.3522C97.716 13.477 97.324 12.3328 95.4563 11.8354ZM62.5031 8.0221H64.8852V17.2713H62.5031V16.4885C61.7271 17.0783 60.7593 17.4275 59.692 17.4275C57.0472 17.4275 54.9032 15.2872 54.9032 12.6466C54.9032 10.0061 57.0472 7.86578 59.692 7.86578C60.7593 7.86578 61.7272 8.21504 62.5031 8.80482V8.0221ZM62.5031 12.6467C62.5031 11.2116 61.3378 10.0497 59.9017 10.0497C58.4655 10.0497 57.3003 11.213 57.3003 12.6467C57.3003 14.0804 58.4655 15.2437 59.9017 15.2437C61.3391 15.2437 62.5031 14.0818 62.5031 12.6467ZM73.487 4.73068H75.8693V17.2726H73.487V16.4898C72.7111 17.0797 71.7433 17.4289 70.6761 17.4289C68.0311 17.4289 65.8871 15.2885 65.8871 12.648C65.8871 10.0075 68.0311 7.86715 70.6761 7.86715C71.7433 7.86715 72.7111 8.2164 73.487 8.80619V4.73068ZM73.487 12.6467C73.487 11.213 72.3218 10.0497 70.8856 10.0497C69.4496 10.0497 68.2843 11.213 68.2843 12.6467C68.2843 14.0804 69.4482 15.2437 70.8856 15.2437C72.3218 15.2437 73.487 14.0818 73.487 12.6467ZM86.9295 17.2713H89.3116V8.0221H86.9295V17.2713ZM88.1205 4.36377C87.3038 4.36377 86.6776 5.00793 86.6776 5.82331C86.6776 6.61967 87.3038 7.26383 88.1205 7.26383C88.9373 7.26383 89.5635 6.61967 89.5635 5.82331C89.5635 5.0079 88.9373 4.36377 88.1205 4.36377ZM108.013 12.6467C108.013 15.2872 105.869 17.4276 103.224 17.4276C100.579 17.4276 98.4348 15.2872 98.4348 12.6467C98.4348 10.0062 100.579 7.86582 103.224 7.86582C105.869 7.86582 108.013 10.0062 108.013 12.6467ZM105.825 12.6467C105.825 11.213 104.66 10.0497 103.224 10.0497C101.788 10.0497 100.622 11.213 100.622 12.6467C100.622 14.0804 101.786 15.2437 103.224 15.2437C104.66 15.2437 105.825 14.0818 105.825 12.6467ZM35.0995 4.73068H25.9614V6.85205H29.3442V17.2713H31.7182V6.85205H35.1009V4.73068H35.0995ZM81.3129 14.7381L79.1934 8.02214H76.6914L79.87 17.2713H82.7368L85.9343 8.02214H83.4323L81.3129 14.7381ZM111.503 9.57677V8.0221H109.115V17.2713H111.503V11.7253C111.503 10.721 112.148 10.2277 113.154 10.2277H114.461V8.02214H113.345C112.471 8.0221 111.712 8.47735 111.503 9.57677Z" fill="#2E2E2E"/>
<path d="M12 24C18.6274 24 24 18.6274 24 12C24 5.37258 18.6274 0 12 0C5.37258 0 0 5.37258 0 12C0 18.6274 5.37258 24 12 24Z" fill="#34E0A1"/>
<path d="M19.3009 9.80392L20.7275 8.25445H17.5639C15.9801 7.17442 14.0674 6.54541 11.9989 6.54541C9.93296 6.54541 8.0256 7.17577 6.44445 8.25445H3.27295L4.69954 9.80392C3.82511 10.6004 3.27693 11.7477 3.27693 13.0215C3.27693 15.4255 5.22926 17.3745 7.63728 17.3745C8.7812 17.3745 9.82338 16.9341 10.6014 16.2141L11.9989 17.7332L13.3965 16.2154C14.1745 16.9354 15.2153 17.3745 16.3593 17.3745C18.7673 17.3745 20.7222 15.4255 20.7222 13.0215C20.7235 11.7464 20.1754 10.5991 19.3009 9.80392ZM7.63857 15.9675C6.00855 15.9675 4.68767 14.6488 4.68767 13.0215C4.68767 11.3943 6.00858 10.0756 7.63857 10.0756C9.26857 10.0756 10.5895 11.3943 10.5895 13.0215C10.5895 14.6488 9.26857 15.9675 7.63857 15.9675ZM12.0002 12.9358C12.0002 10.9973 10.5882 9.33315 8.72436 8.62236C9.73221 8.20168 10.8378 7.96828 11.9989 7.96828C13.16 7.96828 14.2669 8.20168 15.2748 8.62236C13.4123 9.33447 12.0002 10.9974 12.0002 12.9358ZM16.3606 15.9675C14.7306 15.9675 13.4096 14.6488 13.4096 13.0215C13.4096 11.3943 14.7306 10.0756 16.3606 10.0756C17.9906 10.0756 19.3115 11.3943 19.3115 13.0215C19.3115 14.6488 17.9906 15.9675 16.3606 15.9675ZM16.3606 11.476C15.5059 11.476 14.8138 12.167 14.8138 13.0202C14.8138 13.8734 15.5059 14.5644 16.3606 14.5644C17.2152 14.5644 17.9074 13.8734 17.9074 13.0202C17.9073 12.1683 17.2152 11.476 16.3606 11.476ZM9.18536 13.0215C9.18536 13.8747 8.49319 14.5657 7.63857 14.5657C6.78396 14.5657 6.09179 13.8747 6.09179 13.0215C6.09179 12.1683 6.78396 11.4773 7.63857 11.4773C8.49319 11.476 9.18536 12.1683 9.18536 13.0215Z" fill="#2E2E2E"/>
</svg>
