<svg width="100" height="58" viewBox="0 0 100 58" fill="none" xmlns="http://www.w3.org/2000/svg">
<path fill-rule="evenodd" clip-rule="evenodd" d="M37.5081 29.6608V31.7874H44.8573V29.5802H40.1906C44.3335 23.6996 45.0954 21.8791 45.0954 19.4141C45.0954 17.5935 43.6986 15.9502 41.5239 15.9502C39.0478 15.9502 37.6033 17.7224 37.6033 20.0102V20.7513H40.1112V19.688C40.1112 18.7374 40.5239 18.0608 41.3811 18.0608C42.0954 18.0608 42.5716 18.6085 42.5716 19.833C42.5716 22.1208 40.7938 24.7952 37.5081 29.6608ZM34.8414 36.9269H35.4287V41.003H36.4446V36.9108H37.016V36.073H36.4446V35.4769C36.4446 35.2513 36.5398 35.1546 36.7779 35.1546H37.0636V34.3169H36.5557C35.8414 34.3169 35.4287 34.6874 35.4287 35.4769V36.0891H34.8414V36.9269ZM11.4287 36.0891V36.9108H12.0001V39.9719C12.0001 40.7291 12.4128 41.0835 13.1747 41.0835C13.4287 41.0835 13.5398 41.0674 13.6827 41.0352V40.1652H13.3493C13.1113 40.1652 13.0001 40.0202 13.0001 39.7624V36.9269H13.6827V36.0891H13.0001V34.768H11.9843V36.0891H11.4287ZM16.7144 36.0891H15.9684L15.3335 39.1502H15.3176L14.8732 36.073H13.9049L14.8414 40.9869H15.6509L16.3017 37.8774H16.3176L16.8732 40.9869H17.6827L18.7938 36.073H17.8255L17.27 39.1502H17.2541L16.7144 36.0891ZM22.4287 38.7313H20.3017V39.4402C20.3017 40.0041 20.4922 40.2458 20.8573 40.2458C21.2224 40.2458 21.4128 40.0041 21.4128 39.4402V39.3274H22.4287C22.4128 40.3746 21.9843 41.0835 20.8573 41.0835C19.6986 41.0835 19.2859 40.3263 19.2859 39.2469V37.7969C19.2859 36.7174 19.6986 35.9602 20.8573 35.9602C22.016 35.9602 22.4287 36.7174 22.4287 37.7969V38.7313ZM21.4128 37.6357V37.8935H20.3017V37.6357C20.3017 37.0719 20.4922 36.8302 20.8573 36.8302C21.2224 36.8302 21.4128 37.0719 21.4128 37.6357ZM23.3493 41.003V36.0891H24.3017V36.5885L24.3715 36.528C24.7545 36.1952 24.9694 36.0085 25.5239 36.0085C26.0478 36.0085 26.3652 36.3952 26.3652 37.0396V41.003H25.3493V37.1846C25.3493 36.943 25.2065 36.8302 24.9843 36.8302C24.782 36.8302 24.606 36.9504 24.3964 37.0935L24.3335 37.1363V41.003H23.3493ZM26.9525 36.0891V36.9108H27.5239V39.9719C27.5239 40.7291 27.9366 41.0835 28.6986 41.0835C28.9525 41.0835 29.0636 41.0674 29.2065 41.0352V40.1652H28.8732C28.6351 40.1652 28.5239 40.0202 28.5239 39.7624V36.9269H29.2065V36.0891H28.5239V34.768H27.5081V36.0891H26.9525ZM31.762 36.0891H32.7779L31.5081 41.3735C31.2859 42.2758 30.889 42.5496 30.1271 42.5496H29.6986V41.7119H29.9366C30.4446 41.7119 30.6033 41.438 30.6033 40.9224C30.6033 40.7291 30.5557 40.5035 30.4922 40.278L29.4446 36.1052H30.4763L31.1271 39.2469H31.143L31.762 36.0891ZM37.3652 35.3319V34.3974H38.3811V35.3319H37.3652ZM37.3652 36.0891V41.003H38.3811V36.0891H37.3652ZM41.2541 36.0891H42.2859L41.1112 41.003H40.1271L38.9525 36.0891H39.9843L40.6033 39.3758H40.6192L41.2541 36.0891ZM43.8097 38.7313H45.9366V37.7969C45.9366 36.7174 45.5239 35.9602 44.3652 35.9602C43.2065 35.9602 42.7938 36.7174 42.7938 37.7969V39.2469C42.7938 40.3263 43.2065 41.0835 44.3652 41.0835C45.4922 41.0835 45.9208 40.3746 45.9366 39.3274H44.9208V39.4402C44.9208 40.0041 44.7303 40.2458 44.3652 40.2458C44.0001 40.2458 43.8097 40.0041 43.8097 39.4402V38.7313ZM44.9366 37.8935V37.6357C44.9366 37.0719 44.7462 36.8302 44.3811 36.8302C44.016 36.8302 43.8255 37.0719 43.8255 37.6357V37.8935H44.9366ZM48.8573 34.3974V41.003H49.8573V37.1363L49.9202 37.0935C50.1298 36.9504 50.3058 36.8302 50.5081 36.8302C50.7303 36.8302 50.8732 36.943 50.8732 37.1846V41.003H51.889V37.0235C51.889 36.3791 51.5716 35.9924 51.0478 35.9924C50.4909 35.9924 50.2622 36.1952 49.9288 36.4909L49.8732 36.5402V34.3974H48.8573ZM52.8097 37.813C52.8097 36.7335 53.2224 35.9763 54.3811 35.9763C55.5398 35.9763 55.9525 36.7335 55.9525 37.813V39.263C55.9525 40.3424 55.5398 41.0996 54.3811 41.0996C53.2224 41.0996 52.8097 40.3424 52.8097 39.263V37.813ZM54.3811 36.8302C54.7462 36.8302 54.9366 37.0719 54.9366 37.6357V39.4402C54.9366 40.0041 54.7462 40.2458 54.3811 40.2458C54.016 40.2458 53.8255 40.0041 53.8255 39.4402V37.6357C53.8255 37.0719 54.016 36.8302 54.3811 36.8302ZM59.889 41.003H58.9366V40.5035L58.8668 40.5641C58.4838 40.8968 58.2689 41.0835 57.7144 41.0835C57.1906 41.0835 56.8732 40.6969 56.8732 40.0524V36.073H57.889V39.8913C57.889 40.133 58.0319 40.2458 58.2541 40.2458C58.4564 40.2458 58.6324 40.1256 58.842 39.9825L58.9049 39.9396V36.073H59.889V41.003ZM60.8573 36.0891V41.0191H61.8573V37.6357C61.8573 37.2008 62.1906 36.9752 62.5398 36.9752C62.8414 36.9752 63.016 37.0235 63.1906 37.0719V36.0085H62.9843C62.5081 36.0085 62.0795 36.2502 61.8414 36.6691H61.8255V36.0891H60.8573ZM65.6985 37.4424C65.6192 37.0558 65.4446 36.8302 65.1271 36.8302C64.8731 36.8302 64.6827 36.9752 64.6827 37.2169C64.6827 37.5422 65.017 37.7849 65.4044 38.066C65.9377 38.4531 66.5716 38.9131 66.5716 39.7624C66.5716 40.6324 65.9843 41.0835 65.1589 41.0835C64.27 41.0835 63.7779 40.568 63.6192 39.7141L64.5081 39.4724C64.5716 39.8913 64.7144 40.2458 65.1747 40.2458C65.4287 40.2458 65.6192 40.0846 65.6192 39.8108C65.6192 39.4315 65.2465 39.1571 64.8323 38.8521C64.3139 38.4704 63.7303 38.0407 63.7303 37.2974C63.7303 36.5241 64.3176 35.9763 65.0795 35.9763C65.8731 35.9763 66.397 36.508 66.5557 37.2813L65.6985 37.4424ZM69.3652 34.3974V41.003H70.3652V37.1363L70.4281 37.0935C70.6377 36.9504 70.8137 36.8302 71.016 36.8302C71.2382 36.8302 71.3811 36.943 71.3811 37.1846V41.003H72.397V37.0235C72.397 36.3791 72.0795 35.9924 71.5557 35.9924C70.9988 35.9924 70.7702 36.1952 70.4368 36.4909L70.3811 36.5402V34.3974H69.3652ZM73.3017 37.813C73.3017 36.7335 73.7144 35.9763 74.8731 35.9763C76.0319 35.9763 76.4446 36.7335 76.4446 37.813V39.263C76.4446 40.3424 76.0319 41.0996 74.8731 41.0996C73.7144 41.0996 73.3017 40.3424 73.3017 39.263V37.813ZM74.8731 36.8302C75.2382 36.8302 75.4287 37.0719 75.4287 37.6357V39.4402C75.4287 40.0041 75.2382 40.2458 74.8731 40.2458C74.5081 40.2458 74.3176 40.0041 74.3176 39.4402V37.6357C74.3176 37.0719 74.5081 36.8302 74.8731 36.8302ZM76.9684 36.9108V36.0891H77.5239V34.768H78.5398V36.0891H79.2224V36.9269H78.5398V39.7624C78.5398 40.0202 78.6509 40.1652 78.889 40.1652H79.2224V41.0352C79.0954 41.0674 78.9684 41.0835 78.7144 41.0835C77.9525 41.0835 77.5398 40.7291 77.5398 39.9719V36.9108H76.9684ZM80.8255 38.7313H82.9525V37.7969C82.9525 36.7174 82.5398 35.9602 81.3811 35.9602C80.2224 35.9602 79.8097 36.7174 79.8097 37.7969V39.2469C79.8097 40.3263 80.2224 41.0835 81.3811 41.0835C82.5081 41.0835 82.9366 40.3746 82.9525 39.3274H81.9366V39.4402C81.9366 40.0041 81.7462 40.2458 81.3811 40.2458C81.016 40.2458 80.8255 40.0041 80.8255 39.4402V38.7313ZM81.9366 37.8935V37.6357C81.9366 37.0719 81.7462 36.8302 81.3811 36.8302C81.016 36.8302 80.8255 37.0719 80.8255 37.6357V37.8935H81.9366ZM83.8732 34.3974V41.003H84.889V34.3974H83.8732ZM87.6985 37.4424C87.6192 37.0558 87.4446 36.8302 87.1271 36.8302C86.8732 36.8302 86.6827 36.9752 86.6827 37.2169C86.6827 37.5422 87.017 37.7849 87.4044 38.066C87.9377 38.4531 88.5716 38.9131 88.5716 39.7624C88.5716 40.6324 87.9843 41.0835 87.1589 41.0835C86.27 41.0835 85.7779 40.568 85.6192 39.7141L86.5081 39.4724C86.5716 39.8913 86.7144 40.2458 87.1747 40.2458C87.4287 40.2458 87.6192 40.0846 87.6192 39.8108C87.6192 39.4315 87.2465 39.1571 86.8323 38.8521C86.3139 38.4704 85.7303 38.0407 85.7303 37.2974C85.7303 36.5241 86.3176 35.9763 87.0795 35.9763C87.8732 35.9763 88.397 36.508 88.5557 37.2813L87.6985 37.4424ZM48.6192 27.2602V28.5008C48.6192 29.3385 49.0954 29.8702 49.7938 29.8702C50.6192 29.8702 51.0954 29.3708 51.0954 27.9691V24.4246C51.0954 23.4096 50.5874 22.9908 49.9843 22.9908C49.1747 22.9908 48.7938 23.5385 48.5557 24.183H46.5081C46.5257 23.6459 46.5449 23.1344 46.5641 22.6228C46.6313 20.8323 46.6986 19.0417 46.6986 16.1596H53.1112L53.0319 18.3669H48.8732L48.7303 21.7341L48.7779 21.7824C49.4446 20.9769 49.9843 20.8802 50.7938 20.8802C52.8097 20.8802 53.6033 22.3785 53.6033 24.9885V27.1474C53.6033 30.4341 52.5874 31.9969 50.0319 31.9969C47.9049 31.9969 46.2382 31.0463 46.2382 28.4524V27.2602H48.6192ZM55.3493 16.1435V31.7874H57.7144V22.6685C58.27 22.2496 58.7462 21.9274 59.2541 21.9274C59.7779 21.9274 60.1112 22.1852 60.1112 22.7652V31.7713H62.4922V22.3624C62.4922 20.848 61.7462 19.9135 60.4922 19.9135C59.1793 19.9135 58.6555 20.3795 57.8569 21.09C57.8155 21.1268 57.7733 21.1643 57.7303 21.2024V16.1435H55.3493Z" fill="#8C7343"/>
</svg>
