<svg width="37" height="36" viewBox="0 0 37 36" fill="none" xmlns="http://www.w3.org/2000/svg">
<path d="M33.9167 8.83465C32.7799 9.31264 31.5618 9.64613 30.2858 9.79064C31.585 9.03474 32.5943 7.8453 33.0583 6.43353C31.8402 7.13386 30.483 7.63409 29.0446 7.912C27.8846 6.73367 26.2489 6 24.4277 6C20.9361 6 18.1056 8.71237 18.1056 12.0695C18.1056 12.5364 18.1636 13.0032 18.268 13.4479C13.0131 13.1811 8.34983 10.7689 5.22938 7.10051C4.68417 8.00093 4.37097 9.03474 4.37097 10.1575C4.37097 12.2585 5.49619 14.1038 7.18981 15.2043C6.1574 15.1709 5.18298 14.893 4.32457 14.4484C4.32457 14.4706 4.32457 14.5039 4.32457 14.5039C4.32457 17.4609 6.5054 19.9176 9.39385 20.4623C8.87184 20.5956 8.31503 20.6623 7.72342 20.6623C7.31742 20.6623 6.92301 20.629 6.5402 20.5623C7.35222 22.9745 9.67226 24.7198 12.4447 24.7642C10.2755 26.3872 7.54942 27.3654 4.59137 27.3654C4.08096 27.3654 3.57055 27.3432 3.08334 27.2765C5.87899 28.9884 9.20825 30 12.7811 30C24.4161 30 30.773 20.7624 30.773 12.7476C30.773 12.4919 30.773 12.2251 30.7614 11.9694C31.991 11.1135 33.0583 10.0574 33.9167 8.83465Z" fill="#8C7343"/>
</svg>
