<svg width="37" height="36" viewBox="0 0 37 36" fill="none" xmlns="http://www.w3.org/2000/svg">
<path fill-rule="evenodd" clip-rule="evenodd" d="M30.546 8.12661C31.8722 8.4721 32.9181 9.48823 33.272 10.7787C33.9167 13.1192 33.9167 18 33.9167 18C33.9167 18 33.9167 22.8808 33.272 25.2213C32.9181 26.5118 31.8722 27.5279 30.546 27.8734C28.1424 28.5 18.5 28.5 18.5 28.5C18.5 28.5 8.85759 28.5 6.45399 27.8734C5.1278 27.5279 4.08192 26.5118 3.72804 25.2213C3.08334 22.8808 3.08334 18 3.08334 18C3.08334 18 3.08334 13.1192 3.72804 10.7787C4.08192 9.48823 5.1278 8.4721 6.45399 8.12661C8.85759 7.5 18.5 7.5 18.5 7.5C18.5 7.5 28.1424 7.5 30.546 8.12661ZM23.125 18L15.4167 22.5V13.5L23.125 18Z" fill="#8C7343"/>
</svg>
